<svg width="84" height="87" viewBox="0 0 84 87" fill="none" xmlns="http://www.w3.org/2000/svg">
<path d="M0.510874 3.59497C0.483215 3.50175 0.507286 3.42274 0.595002 3.38682C0.664982 3.35814 0.74489 3.34181 0.820633 3.34104C1.22957 3.33675 1.63856 3.33899 2.04756 3.33899C2.16851 3.23924 2.30046 3.15716 2.44305 3.09096C3.06103 2.90682 3.69726 2.99165 4.32682 2.96028C5.13727 2.89657 5.94809 2.92795 6.75815 2.92788C30.0928 2.92564 53.4274 2.92615 76.762 2.92564C77.2738 2.92564 77.7856 2.91988 78.2975 2.9129C78.9874 2.90349 79.4467 2.64233 79.5148 1.89937C79.541 1.24848 79.4179 0.566859 79.9032 0.0111767C79.9979 -0.0173149 80.0781 0.00765555 80.1138 0.0977402C80.1422 0.169193 80.1565 0.25057 80.1573 0.327785C80.1616 0.698304 80.1592 1.06889 80.1592 1.40611C80.2286 1.52046 80.297 1.54575 80.3834 1.54895C80.7923 1.56406 81.205 1.50036 81.6095 1.59358C81.701 1.61471 81.7243 1.70838 81.6736 1.83221C81.4418 2.2218 80.5236 1.97665 80.6346 2.84977C81.5433 2.99588 81.2466 2.02672 81.6736 1.83221C81.7906 1.77465 81.8708 1.79962 81.9066 1.8897C81.9349 1.96115 81.9491 2.04253 81.95 2.11975C81.9543 2.4902 81.9519 2.86072 81.9519 3.19807C82.0213 3.31242 82.0897 3.33771 82.1761 3.34092C82.585 3.35603 82.9977 3.29232 83.4022 3.38554C83.4938 3.40667 83.5171 3.50034 83.4886 3.5951C83.0187 4.00262 82.448 3.95268 81.8897 3.95076C81.4584 3.97676 80.9854 3.82835 80.6162 4.21039C80.6957 5.04068 81.7613 4.6895 81.9306 5.36849C82.1073 6.53076 82.3267 7.69289 81.7197 8.80445C81.2409 9.11293 80.7561 9.07355 80.3375 8.88064C79.8527 8.53644 79.8237 8.01789 79.5519 7.61408C79.2318 7.28217 78.7 7.2764 78.3565 6.94097C78.0474 6.62993 77.9954 6.17349 77.7325 5.65187C53.9304 5.53714 30.1284 5.53861 6.32508 5.53803C5.96314 7.08471 4.57563 7.54903 3.9549 8.68082C3.66275 9.21345 2.90724 9.14104 2.32294 8.82827C1.63863 7.72497 1.90389 6.54945 2.06075 5.38463C2.28203 4.61286 3.35862 5.07705 3.63995 4.29439C3.23268 3.74991 2.64543 4.01281 2.14136 3.95038C1.56781 3.96274 0.989469 4.00538 0.510874 3.59497Z" fill="#D9A749"/>
<path d="M81.6956 3.5957C82.2932 3.5957 82.8908 3.5957 83.4883 3.5957C83.4883 29.9811 83.4883 56.3665 83.4867 82.7519C83.4867 82.7892 83.4625 82.8265 83.453 82.854C83.4173 82.8916 83.3883 82.949 83.3587 82.9493C82.8044 82.9546 82.25 82.9532 81.6956 82.9532C81.6455 82.8999 81.5954 82.8466 81.5444 82.7938C81.2761 82.2401 81.3666 81.6451 81.3427 81.0624C81.3082 80.4616 81.3281 79.861 81.3304 79.2595C81.2823 78.1478 81.2993 77.0368 81.3197 75.925C81.2319 67.5506 81.2983 59.177 81.2847 50.8035C81.2806 48.296 81.2353 45.788 81.3143 43.2807C81.2349 35.1384 81.2992 26.9961 81.2804 18.8539C81.274 16.0828 81.2724 13.3118 81.2844 10.5408C81.2872 9.90682 81.2264 9.24888 81.6956 8.71561C81.6956 7.52101 81.6956 6.32635 81.6956 5.13175C81.2958 4.61967 81.2959 4.10772 81.6956 3.5957Z" fill="#020201"/>
<path d="M0.511394 3.5957C1.10895 3.5957 1.70657 3.5957 2.30412 3.5957C2.70377 4.10772 2.7039 4.61967 2.30412 5.13169C2.30412 6.32635 2.30412 7.52095 2.30412 8.71555C2.71165 9.16744 2.71306 9.73004 2.71293 10.2838C2.71011 21.1891 2.75128 32.0945 2.69724 42.9997C2.71716 53.9661 2.7598 64.9327 2.68092 75.8983C2.69955 77.011 2.71895 78.1246 2.6708 79.2372C2.6758 79.8405 2.69263 80.4448 2.65972 81.0484C2.63923 81.635 2.72823 82.2352 2.45823 82.7934C2.40746 82.847 2.35579 82.9001 2.30412 82.9532C1.74972 82.9532 1.19538 82.9532 0.640915 82.9532C0.597698 82.8862 0.519393 82.8202 0.517216 82.7518C0.505115 82.3685 0.511394 81.9847 0.511394 81.6011C0.511394 55.5993 0.511394 29.5975 0.511394 3.5957Z" fill="#020202"/>
<path d="M4.09713 86.2806C4.00237 86.3091 3.92221 86.2842 3.88648 86.1941C3.85812 86.1226 3.84391 86.0412 3.84295 85.964C3.83866 85.5935 3.84103 85.2229 3.84103 84.8857C3.77169 84.7713 3.70331 84.746 3.61694 84.7428C3.20794 84.7277 2.79529 84.7914 2.39077 84.6982C2.29922 84.6771 2.27591 84.5834 2.3044 84.4887C2.63247 84.1203 3.17836 84.2427 3.46449 84.0181C3.84192 83.6375 3.78013 83.1451 4.10026 82.8424C4.22857 82.753 4.36476 82.6914 4.51458 82.6496C5.19108 82.4994 5.87526 82.5409 6.55579 82.5409C30.2935 82.5383 54.0312 82.5384 77.769 82.5405C78.4072 82.5406 79.0483 82.5069 79.6776 82.6274C79.8213 82.6571 79.9595 82.7128 80.0864 82.7867C80.4556 83.0481 80.4134 83.5283 80.6961 83.937C80.9118 84.2161 81.4157 84.165 81.6967 84.4887C81.7252 84.5834 81.7002 84.6636 81.6101 84.6993C81.5386 84.7277 81.4571 84.7419 81.3799 84.7428C81.0092 84.7471 80.6384 84.7447 80.3011 84.7447C80.1868 84.814 80.1614 84.8824 80.1582 84.9687C80.1431 85.3775 80.2069 85.79 80.1135 86.1943C80.0924 86.2858 79.9987 86.3091 79.9039 86.2806C79.6411 86.002 79.4588 85.6597 79.0526 85.1563C54.4344 85.1561 29.6757 85.1561 5.18551 85.1563C4.52687 85.5402 4.40983 85.9938 4.09713 86.2806Z" fill="#954E41"/>
<path d="M79.9041 0.0113917C79.9041 0.608691 79.9041 1.20605 79.9041 1.80335C79.2025 2.37773 78.3608 2.21216 77.5664 2.21261C62.2554 2.22221 46.9444 2.21959 31.6334 2.21959C23.2315 2.21959 14.8296 2.22234 6.42778 2.21504C5.70909 2.2144 4.9724 2.31146 4.28732 1.97776C4.22355 1.92026 4.16042 1.86181 4.09723 1.80335C4.09723 1.24921 4.09723 0.695126 4.09717 0.140917C4.1642 0.097699 4.23021 0.0193952 4.29859 0.0172183C4.68198 0.00511738 5.06594 0.0113917 5.44978 0.0113917C30.2679 0.0113917 55.086 0.0113917 79.9041 0.0113917Z" fill="#020403"/>
<path d="M4.09723 86.2799C4.09723 85.8107 4.09723 85.3415 4.09717 84.8723C4.16472 84.8295 4.23072 84.753 4.30006 84.7498C4.59817 84.7361 4.89724 84.744 5.19592 84.744C29.7324 84.744 54.2689 84.7437 78.8053 84.7464C79.1412 84.7465 79.48 84.7049 79.8034 84.773C79.8434 84.8124 79.8998 84.8421 79.9002 84.8724C79.9057 85.3415 79.9041 85.8107 79.9041 86.2799C54.6351 86.2799 29.3662 86.2799 4.09723 86.2799Z" fill="black"/>
<path d="M4.09608 3.33939C3.49852 3.33939 2.90091 3.33939 2.30335 3.33939C2.1082 2.82744 2.10884 2.31542 2.30335 1.80347C2.90091 1.80347 3.49852 1.80347 4.09608 1.80347C4.49573 2.31542 4.49573 2.82744 4.09608 3.33939Z" fill="#0C0A08"/>
<path d="M4.09644 82.9522C4.09644 83.411 4.09779 83.8697 4.09363 84.3285C4.09331 84.3612 4.05239 84.3936 4.03037 84.4262C3.9972 84.4469 3.96416 84.4853 3.93086 84.4855C3.3885 84.4892 2.84608 84.4882 2.30371 84.4882C2.30371 83.9762 2.30371 83.4642 2.30371 82.9522C2.90127 82.5184 3.49889 82.48 4.09644 82.9522Z" fill="#0F0D0D"/>
<path d="M81.6962 84.489C81.2382 84.489 80.7801 84.4904 80.3221 84.4863C80.2891 84.486 80.2564 84.4464 80.2236 84.425C80.2023 84.3922 80.1627 84.3596 80.1624 84.3266C80.1583 83.8688 80.1596 83.4109 80.1596 82.9531C80.6718 82.5099 81.184 82.5761 81.6962 82.9531C81.6962 83.4651 81.6962 83.9771 81.6962 84.489Z" fill="#080909"/>
<path d="M2.30413 1.80347C2.30413 2.31542 2.30413 2.82744 2.30413 3.33939C2.21878 3.33939 2.13337 3.33939 2.04803 3.33939C2.04803 2.88973 2.04739 2.44001 2.04854 1.99036C2.04873 1.89067 2.12665 1.83586 2.30413 1.80347Z" fill="#E0D6A3"/>
<path d="M2.30371 43.0183C2.30371 31.584 2.30371 20.1497 2.30371 8.71538C2.77264 8.71538 3.24156 8.71538 3.71407 8.71538C3.83182 8.59584 3.95136 8.47451 4.07345 8.35056C4.14305 7.90135 4.0408 7.43633 4.14151 6.96798C4.61242 6.86138 5.07853 6.97694 5.53741 6.89576C5.73884 6.63293 5.59632 6.32779 5.63198 6.04364C5.6679 5.75725 5.55681 5.45716 5.70574 5.18223C5.78967 5.16456 5.86804 5.13357 5.94647 5.13357C30.0321 5.13146 54.1177 5.13152 78.2034 5.13421C78.237 5.13421 78.2705 5.17512 78.3042 5.19696C78.325 5.23095 78.3638 5.26476 78.364 5.29889C78.3679 5.80668 78.3667 6.31453 78.3667 6.80632C78.6569 7.02951 78.9623 6.8866 79.2465 6.92227C79.5331 6.95819 79.8332 6.84742 80.1097 6.99647C80.2079 7.28798 80.1464 7.58391 80.1575 7.87542C80.1669 8.12602 80.1594 8.37726 80.1594 8.57766C80.231 8.6536 80.2598 8.71103 80.2894 8.71141C80.7582 8.71705 81.2271 8.71538 81.6961 8.71538C81.6961 20.235 81.6961 31.7546 81.6961 43.2743C80.0105 44.0218 78.3128 43.6629 76.8104 43.5054C76.2763 43.035 76.2275 42.5797 76.0014 42.2222C75.75 41.8525 75.2559 41.8133 74.7973 41.2098C74.5646 40.8617 74.6826 40.1617 74.6819 39.4906C74.6737 30.4607 74.6663 21.4307 74.6918 12.4008C74.6947 11.389 74.5323 10.623 73.3939 10.4272C72.8874 10.1199 72.968 9.45514 72.5669 9.0843C72.1201 8.7198 71.5888 8.82423 71.0862 8.8241C51.709 8.81968 32.3319 8.81955 12.9547 8.82474C12.4516 8.82487 11.9233 8.71961 11.3791 9.1094C11.0291 9.33227 11.131 9.91625 10.7676 10.2804C10.4673 10.6374 9.89048 10.5078 9.42001 10.8599C9.31719 21.0284 9.33076 31.1967 9.21405 41.3635C8.84833 41.7418 8.38894 41.8327 8.11997 42.0655C7.80393 42.4555 7.762 42.9138 7.29563 43.4527C5.73589 43.5777 3.97703 44.2824 2.30371 43.0183Z" fill="#E9C95C"/>
<path d="M4.09717 3.33939C4.09717 2.82744 4.09717 2.31542 4.09717 1.80347C29.3661 1.80347 54.635 1.80347 79.904 1.80347C79.904 2.27233 79.904 2.74119 79.9041 3.21012C79.8369 3.25327 79.7709 3.33145 79.7024 3.33356C79.319 3.34566 78.935 3.33939 78.5512 3.33939C53.7332 3.33939 28.9152 3.33939 4.09717 3.33939Z" fill="#EFE1AE"/>
<path d="M2.30371 5.13175C2.30371 4.6198 2.30371 4.10778 2.30371 3.59577C2.85619 3.59577 3.40861 3.59577 3.96115 3.5957C4.00629 3.66056 4.0885 3.72433 4.09042 3.79047C4.10233 4.20946 4.0965 4.62896 4.0965 5.00716C4.02268 5.07509 3.99214 5.12785 3.96109 5.1281C3.40861 5.1331 2.85619 5.13175 2.30371 5.13175Z" fill="#E0D6A3"/>
<path d="M81.6958 3.59569C81.6958 4.1077 81.6958 4.61965 81.6958 5.13167C81.2286 5.13167 80.7613 5.13167 80.2941 5.13173C80.2491 5.06681 80.167 5.00291 80.1652 4.93671C80.1533 4.51792 80.1592 4.09861 80.1592 3.72054C80.2327 3.65254 80.2631 3.59978 80.2942 3.5994C80.7613 3.59408 81.2286 3.59569 81.6958 3.59569Z" fill="#E1D9A8"/>
<path d="M81.6961 1.80295C81.6961 2.29781 81.6961 2.79267 81.6961 3.24501C81.5886 3.30225 81.5544 3.33625 81.5198 3.33657C81.1025 3.34022 80.6852 3.33894 80.2763 3.33894C80.1313 2.99839 80.1313 2.99839 80.2144 1.87601C80.2464 1.85168 80.2781 1.80648 80.3102 1.80616C80.7721 1.80148 81.2341 1.80295 81.6961 1.80295Z" fill="#020000"/>
<path d="M73.2444 10.2507C73.7987 10.2507 74.353 10.2507 74.9074 10.2506C74.9507 10.3176 75.0291 10.3835 75.0313 10.4518C75.0434 10.835 75.0371 11.2188 75.0371 11.6024C75.0371 21.1066 75.0371 30.6108 75.0371 40.115C75.0371 40.5375 75.0371 40.96 75.0371 41.3615C75.286 41.5709 75.5496 41.4469 75.7917 41.4808C76.0355 41.515 76.2946 41.411 76.5502 41.5742C76.6118 42.1005 76.5388 42.6479 76.5912 43.1646C76.6458 43.2159 76.6764 43.27 76.7071 43.2701C78.37 43.2742 80.0329 43.2737 81.6958 43.2737C81.6958 54.196 81.6958 65.1183 81.6958 76.0406C81.421 76.3216 81.0075 76.3624 80.7342 76.5809C80.4405 76.9416 80.4526 77.4169 80.1482 77.7333C79.8446 78.1362 79.2939 78.0856 78.937 78.3913C78.658 78.6682 78.6634 79.1037 78.3845 79.3801C78.0716 79.695 77.5975 79.6815 77.2545 79.9346C76.8004 80.327 76.9892 81.1223 76.3374 81.3962C75.7166 81.6206 75.0717 81.574 74.4344 81.5741C52.8105 81.5774 31.1866 81.5774 9.56268 81.5741C8.92536 81.574 8.28042 81.6211 7.66507 81.3996C7.05298 81.1425 7.1859 80.462 6.86551 79.9905C6.56766 79.6412 6.00584 79.7548 5.76824 79.5246C5.35719 79.1641 5.33554 78.7442 5.05677 78.3993C4.82763 78.162 4.40724 78.1431 4.17649 77.9517C3.74572 77.5619 3.81724 77.0238 3.53456 76.6495C3.18146 76.3312 2.6373 76.3979 2.30347 76.0406C2.30347 65.0329 2.30347 54.0253 2.30347 43.0176C2.34617 43.0176 2.40315 42.9999 2.42889 43.0208C2.52647 43.0997 2.61393 43.1912 2.693 43.2665C4.24358 43.2665 5.77771 43.2665 7.3046 43.2665C7.34199 43.2291 7.39411 43.2022 7.39904 43.1683C7.47779 42.6294 7.3662 42.0794 7.46051 41.5618C7.52671 41.5224 7.56084 41.4847 7.59522 41.4844C8.01805 41.4803 8.441 41.4817 8.83406 41.4817C8.89341 41.4224 8.93388 41.3971 8.95078 41.3608C8.96717 41.3256 8.96179 41.2791 8.96179 41.2377C8.96218 30.9587 8.96205 20.6798 8.96525 10.4008C8.96525 10.3685 9.01212 10.3362 9.03952 10.3007C9.32309 10.1993 9.61966 10.2645 9.91117 10.2529C10.1623 10.2428 10.4141 10.2508 10.6268 10.2508C10.694 10.1837 10.7501 10.1538 10.7504 10.1233C10.7559 9.6116 10.7543 9.09984 10.7543 8.58827C10.822 8.54493 10.8877 8.46797 10.9568 8.46477C11.2548 8.451 11.5539 8.45888 11.8526 8.45888C31.9501 8.45888 52.0477 8.45849 72.1452 8.46188C72.4809 8.46195 72.8217 8.4065 73.1528 8.4996C73.2491 8.52668 73.2744 8.61708 73.2442 8.71485C72.541 9.28692 71.6993 9.11924 70.9049 9.11963C51.9646 9.12884 33.0244 9.12635 14.0841 9.12737C13.5297 9.12737 12.9756 9.12295 12.4211 9.15349C11.891 9.18269 11.5381 9.41997 11.3873 9.93544C11.3402 10.0856 11.2756 10.2286 11.1991 10.3646C11.1147 10.4925 11.0035 10.5947 10.8712 10.6723C10.4952 10.8622 10.0117 10.8388 9.74144 11.2423C9.46395 11.8148 9.5854 12.422 9.58515 13.0099C9.57798 32.8086 9.5806 52.6073 9.58054 72.4036C9.59129 72.8199 9.55467 73.2456 9.7746 73.6509C10.2337 74.0384 11.0067 74.0063 11.2791 74.6921C11.4922 75.3514 11.9524 75.6393 12.6331 75.6225C12.8883 75.6162 13.1446 75.633 13.4005 75.633C32.5512 75.6339 51.7018 75.637 70.8524 75.6203C71.5628 75.6197 72.4494 75.9135 72.8271 74.912C72.8735 74.7729 72.9263 74.6348 72.9767 74.4987C73.0314 74.3714 73.1127 74.259 73.2135 74.1636C73.5208 73.9301 73.9564 73.9906 74.2639 73.713C74.5361 73.345 74.4094 72.909 74.4257 72.4895C74.4159 72.3399 74.4064 72.1948 74.3903 72.0461C74.3498 52.3681 74.3839 32.6939 74.36 13.0196C74.3591 12.2158 74.6413 11.2542 73.5629 10.8161C73.4158 10.7364 73.2947 10.6274 73.1968 10.4926C73.2127 10.4121 73.2286 10.3314 73.2444 10.2507Z" fill="url(#paint0_linear_30_2584)"/>
<path d="M76.5742 81.1591C76.5742 80.6916 76.5742 80.2239 76.5742 79.7463C76.6917 79.6339 76.8143 79.5167 76.945 79.3916C77.384 79.3133 77.849 79.4294 78.282 79.3318C78.3216 79.274 78.3636 79.2411 78.364 79.2078C78.3685 78.7853 78.3669 78.3627 78.3669 77.9592C78.4159 77.9102 78.4456 77.8544 78.4761 77.854C78.8988 77.8483 79.3215 77.8502 79.7433 77.8502C79.8742 77.7255 79.9953 77.6102 80.1352 77.477C80.1976 77.0406 80.1303 76.5789 80.1685 76.1567C80.2317 76.097 80.262 76.0434 80.2929 76.043C80.7607 76.0376 81.2285 76.0393 81.6963 76.0393C81.6963 77.1486 81.6963 78.2579 81.6963 79.3672C81.4371 79.6718 80.9923 79.631 80.7091 79.8937C80.3852 80.2605 80.5352 80.7984 80.2453 81.1807C80.1439 81.2852 80.0264 81.3588 79.8903 81.4085C78.7701 81.5064 77.6353 81.816 76.5742 81.1591Z" fill="#C87435"/>
<path d="M81.6952 82.9534C81.183 82.9534 80.6708 82.9534 80.1586 82.9534C79.7108 82.3561 79.7108 81.7588 80.1586 81.1614C80.6708 80.762 81.183 80.762 81.6952 81.1614C81.6952 81.7587 81.6952 82.356 81.6952 82.9534Z" fill="#975042"/>
<path d="M81.6962 81.1596C81.184 81.1596 80.6718 81.1596 80.1596 81.1596C80.1596 80.6174 80.1585 80.0753 80.1623 79.5331C80.1625 79.4999 80.2009 79.4668 80.2216 79.4337C80.2542 79.4116 80.2867 79.3707 80.3194 79.3705C80.7783 79.3663 81.2373 79.3676 81.6963 79.3676C81.6962 79.965 81.6962 80.5623 81.6962 81.1596Z" fill="#ECD9A0"/>
<path d="M2.30359 76.0391C2.88476 76.0391 3.46585 76.0391 4.04241 76.0391C4.15657 76.6478 4.04561 77.1918 4.11796 77.7242C4.24403 77.8974 4.42561 77.8176 4.58343 77.8285C4.75137 77.84 4.92129 77.8221 5.08917 77.8337C5.24962 77.8447 5.42236 77.7741 5.56706 77.8921C5.5903 77.9284 5.62987 77.9615 5.63019 77.9951C5.63442 78.4146 5.63295 78.8342 5.63295 79.239C5.67744 79.2835 5.70389 79.3346 5.73757 79.3399C6.27199 79.4244 6.81698 79.3 7.34238 79.4097C7.37535 79.4513 7.42215 79.4829 7.42241 79.5148C7.42689 80.0628 7.42561 80.6109 7.42561 81.159C6.46221 81.7817 5.42249 81.5007 4.40083 81.4175C4.26887 81.3769 4.14889 81.3089 4.04331 81.22C3.73688 80.8568 3.84112 80.323 3.5603 79.9859C3.19029 79.6166 2.62808 79.7376 2.30347 79.3671C2.30359 78.2576 2.30359 77.1484 2.30359 76.0391Z" fill="#C87435"/>
<path d="M4.09644 82.9516C3.49888 82.9516 2.90127 82.9516 2.30371 82.9516C2.30371 82.3543 2.30371 81.757 2.30371 81.1596C2.90127 80.7121 3.49888 80.7121 4.09644 81.1596C4.54417 81.7569 4.54417 82.3542 4.09644 82.9516Z" fill="#995445"/>
<path d="M4.09644 81.1604C3.49888 81.1604 2.90127 81.1604 2.30371 81.1604C2.30371 80.5631 2.30371 79.9658 2.30371 79.3684C2.76009 79.3684 3.2164 79.3684 3.74987 79.3684C3.85257 79.471 3.99374 79.6121 4.09644 79.7148C4.09644 80.2481 4.09644 80.7042 4.09644 81.1604Z" fill="#E9D49B"/>
<path d="M4.09717 82.9533C4.09717 82.356 4.09717 81.7587 4.09717 81.1614C5.20693 81.1614 6.31676 81.1614 7.42652 81.1614C30.4759 81.1614 53.5253 81.1614 76.5747 81.1614C77.7698 81.1614 78.9649 81.1614 80.1601 81.1614C80.1601 81.7587 80.1601 82.356 80.1601 82.9533C54.8058 82.9533 29.4515 82.9533 4.09717 82.9533Z" fill="#EDDCA3"/>
<path d="M11.0108 10.251C11.0108 9.78219 11.0108 9.31346 11.0107 8.84459C11.0778 8.80138 11.1437 8.72301 11.2121 8.72083C11.5954 8.70873 11.9793 8.71501 12.363 8.71501C32.6567 8.71501 52.9504 8.71501 73.2441 8.71501C73.2441 9.22702 73.2441 9.73897 73.2441 10.2509C72.7859 10.6682 72.2145 10.6085 71.6656 10.6086C51.9716 10.6145 32.2776 10.6147 12.5836 10.6071C12.0394 10.6069 11.4613 10.6928 11.0108 10.251Z" fill="#010000"/>
<path d="M10.7546 10.507C10.8399 10.507 10.9253 10.507 11.0107 10.507C11.0635 10.5659 11.1162 10.6248 11.17 10.6832C11.4394 11.2064 11.3392 11.7798 11.396 12.3333C11.4633 23.2848 11.4214 34.2355 11.4221 45.186C11.4227 53.7504 11.468 62.3148 11.3974 70.8785C11.4198 71.2247 11.5078 71.5459 11.736 71.8165C12.4335 72.1478 13.1689 72.0396 13.8849 72.0398C33.0308 72.0457 52.1767 72.0439 71.3226 72.0462C71.9189 72.0463 72.5166 72.0127 73.1117 72.0828C73.6959 72.0824 74.2945 72.0209 74.7807 72.457C74.7807 72.5423 74.7807 72.6276 74.7807 72.7129C74.5165 73.019 74.0677 72.9834 73.7811 73.2496C73.5163 73.537 73.5502 73.9847 73.244 74.2488C72.7853 74.6639 72.2149 74.6063 71.6657 74.6064C51.9774 74.6114 32.2891 74.6107 12.6007 74.6134C11.7491 74.6135 10.9851 74.526 10.5563 73.6453C10.2898 73.0983 9.59658 73.1226 9.21799 72.7129C9.21799 52.4286 9.21768 32.1443 9.22011 11.86C9.22017 11.4391 9.17586 11.0151 9.25993 10.598C9.27927 10.502 9.37639 10.4767 9.47409 10.5069C10.0469 11.2095 9.88073 12.0509 9.88111 12.8452C9.89027 31.7806 9.88636 50.7161 9.89526 69.6516C9.89558 70.2726 9.7505 70.9241 10.1144 71.5628C10.4778 70.924 10.3332 70.2726 10.3335 69.6515C10.3424 50.7161 10.3385 31.7806 10.3477 12.8451C10.3479 12.0509 10.1819 11.2096 10.7546 10.507Z" fill="#020202"/>
<path d="M73.244 72.4568C52.5666 72.4568 31.8892 72.4568 11.2118 72.4552C11.1746 72.4552 11.1373 72.4309 11.1108 72.4218C11.0724 72.3855 11.0151 72.3567 11.0147 72.3271C11.0091 71.8584 11.0107 71.3896 11.0107 70.9208C11.5023 70.4877 12.0996 70.5448 12.6879 70.558C32.2612 70.5541 51.8342 70.5744 71.4066 70.5441C71.7479 70.5053 72.0795 70.4416 72.362 70.163C72.6793 69.5033 72.5702 68.7683 72.5704 68.053C72.5762 49.9017 72.5754 31.7504 72.5746 13.5991C72.5746 13.0879 72.5662 12.5765 72.6012 12.0664C72.5707 11.7219 72.4865 11.3994 72.2415 11.1351C71.5458 10.8213 70.812 10.9246 70.0958 10.9244C51.1794 10.9187 32.263 10.9222 13.3465 10.913C12.553 10.9126 11.7124 11.0788 11.0107 10.5067C11.0107 10.4214 11.0107 10.336 11.0107 10.2507C31.7551 10.2507 52.4995 10.2507 73.244 10.2507C73.244 10.3361 73.244 10.4214 73.244 10.5067C73.6832 10.9987 73.6557 11.6093 73.656 12.2031C73.6639 31.7222 73.6639 51.2412 73.656 70.7602C73.6558 71.3541 73.6832 71.9648 73.244 72.4568Z" fill="#6B9AD3"/>
<path d="M73.2441 74.5046C73.2441 74.9738 73.2441 75.4429 73.2441 75.9121C73.1767 75.955 73.1107 76.0315 73.0413 76.0347C72.7433 76.0484 72.4442 76.0405 72.1455 76.0405C52.1335 76.0405 32.1214 76.0408 12.1093 76.038C11.7734 76.0379 11.4346 76.0796 11.1119 76.0115C11.0715 75.9717 11.015 75.9422 11.0147 75.9119C11.009 75.4429 11.0107 74.9737 11.0107 74.5045C11.4101 74.2771 11.8464 74.3859 12.2641 74.3858C32.1729 74.3797 52.0816 74.3798 71.9904 74.3857C72.4083 74.3858 72.8445 74.2785 73.2441 74.5046Z" fill="#C67435"/>
<path d="M73.2444 72.4564C73.2444 51.8064 73.2444 31.1564 73.2444 10.5064C73.7134 10.5064 74.1823 10.5064 74.6514 10.5063C74.6946 10.5733 74.773 10.6393 74.7752 10.7076C74.7873 11.0907 74.781 11.4745 74.781 11.858C74.781 32.0575 74.781 52.2569 74.781 72.4564C74.2688 72.4564 73.7566 72.4564 73.2444 72.4564Z" fill="black"/>
<path d="M10.7549 10.5063C10.7549 31.1101 10.7549 51.7138 10.7549 72.3176C10.6909 72.3639 10.6284 72.4474 10.5625 72.4501C10.2272 72.4637 9.89105 72.4564 9.59717 72.4564C9.52955 72.38 9.47776 72.3487 9.47776 72.3175C9.4743 51.7138 9.47437 31.1101 9.47437 10.5063C9.90123 10.5063 10.328 10.5063 10.7549 10.5063Z" fill="#020202"/>
<path d="M73.245 74.5051C52.5006 74.5051 31.7561 74.5051 11.0117 74.5051C10.9702 74.5051 10.9117 74.5228 10.8902 74.502C10.8016 74.4165 10.7241 74.3194 10.6625 74.2491C10.2051 74.2491 9.79019 74.2506 9.37537 74.2462C9.34304 74.2459 9.31115 74.2038 9.27901 74.1811C9.25897 74.148 9.22184 74.1149 9.22152 74.0816C9.21768 73.6254 9.21895 73.1693 9.21895 72.7131C9.77368 72.7131 10.3284 72.7131 10.9077 72.7131C11.1602 73.173 10.8978 73.6997 11.0634 74.1729C11.0962 74.1986 11.1284 74.246 11.1606 74.246C31.8554 74.2491 52.5502 74.2491 73.245 74.2491C73.245 74.3344 73.245 74.4198 73.245 74.5051Z" fill="#C17033"/>
<path d="M73.2441 74.2493C73.2441 73.7914 73.2428 73.3335 73.2469 72.8757C73.2472 72.8427 73.2868 72.8101 73.3081 72.7773C73.3409 72.756 73.3736 72.7164 73.4065 72.7161C73.8646 72.712 74.3226 72.7133 74.7807 72.7133C74.7807 73.1712 74.7821 73.629 74.778 74.0869C74.7777 74.1199 74.738 74.1525 74.7167 74.1853C74.6839 74.2066 74.6513 74.2463 74.6183 74.2465C74.1602 74.2506 73.7022 74.2493 73.2441 74.2493Z" fill="#C87435"/>
<path d="M11.0108 10.5063C31.6029 10.5063 52.1949 10.5063 72.7869 10.5079C72.8242 10.5079 72.8615 10.5322 72.8879 10.5414C72.9262 10.5777 72.9836 10.6065 72.984 10.6361C72.9896 11.1047 72.9879 11.5735 72.9879 12.0423C72.4969 12.475 71.9004 12.4182 71.3127 12.4051C51.7725 12.4004 32.2324 12.4055 12.6925 12.4061C12.1017 12.4255 11.503 12.4785 11.0107 12.0423C11.0108 11.5303 11.0108 11.0184 11.0108 10.5063Z" fill="#99BADF"/>
<path d="M11.0107 12.0437C11.523 12.0437 12.0352 12.0437 12.5474 12.0437C13.0697 12.6706 12.8962 13.4247 12.9033 14.1332C13.0735 31.0881 12.8465 48.0431 12.9085 64.9981C12.914 66.4892 12.9151 67.9803 12.9055 69.4714C12.9021 69.9814 12.93 70.5035 12.5474 70.9218C12.0352 70.9218 11.523 70.9218 11.0107 70.9218C11.0107 51.2958 11.0107 31.6697 11.0107 12.0437Z" fill="#7EA8DA"/>
<path d="M12.5464 70.9218C12.5464 51.2958 12.5464 31.6697 12.5464 12.0437C32.1811 12.0437 51.8157 12.0437 71.4503 12.0437C71.525 12.2209 71.4799 12.3591 71.3159 12.459C70.5476 12.8276 69.7233 12.7002 68.9207 12.7005C51.1658 12.7082 33.4109 12.7049 15.656 12.7112C14.9398 12.7115 14.203 12.5952 13.3956 12.9855C13.0977 14.0834 13.1522 15.2359 13.3807 16.5751C14.174 16.0046 14.5532 15.1415 15.3736 15.047C15.7589 14.634 15.7914 14.1092 16.1721 13.7836C17.3785 13.3098 66.3385 13.2587 67.7677 13.7342C68.1759 14.0231 68.2379 14.5348 68.5658 14.9642C69.2021 15.3263 70.025 15.5915 70.1727 16.4055C70.6412 16.7997 71.1688 16.787 71.5251 17.1162C71.8978 17.6407 71.8587 18.2496 71.8594 18.842C71.8677 25.9149 71.8677 32.9879 71.8604 40.0609C71.8599 40.5712 71.8671 41.0866 71.6397 41.5639C71.3516 42.0535 70.7763 41.8072 70.2258 42.1558C69.9715 42.3365 70.0281 42.894 69.5136 43.4573C67.1349 44.0091 64.4425 43.3618 61.9263 43.7832C61.456 44.3083 61.5567 45.0649 60.8884 45.3127C58.3426 45.6291 55.7905 45.4526 53.2407 45.4164C52.9851 45.4127 52.7418 45.3115 52.54 45.1395C52.5468 44.2398 53.2853 44.4668 53.7438 44.4432C55.3596 44.36 56.9799 44.4217 58.5984 44.4054C59.1462 44.3999 59.7075 44.4741 60.4597 44.1024C60.6187 41.8318 60.5716 39.4497 60.476 36.992C57.7518 36.4077 55.0761 37.1536 52.3027 36.453C51.9533 33.6145 52.03 30.7942 52.2326 27.9727C52.4021 27.291 53.2607 27.4825 53.5671 26.9955C53.4837 26.2695 52.6764 26.5483 52.4451 26.0853C52.5242 25.5246 53.1199 25.6586 53.407 25.3386C53.9092 25.2497 53.4968 24.1502 54.3931 24.4418C54.6363 24.6862 54.6931 25.0557 55.1407 25.438C57.3455 25.5122 59.726 25.5302 62.3047 25.4249C61.8279 24.5865 61.2764 24.7258 60.8094 24.7192C59.1496 24.6958 57.4893 24.7207 55.8293 24.7043C55.2811 24.6989 54.7087 24.7448 54.2766 24.2855C54.5294 23.5883 55.1569 23.7134 55.6745 23.6987C57.2944 23.6526 58.9157 23.6874 60.5364 23.6785C61.0441 23.6757 61.5602 23.7169 62.2654 23.3799C62.4321 21.0865 62.3351 18.6963 62.3107 16.0713C58.5438 15.9898 54.9559 16.0031 51.5551 16.0586C51.0278 16.5957 51.0559 17.142 50.5845 17.5591C49.6402 17.9921 48.5345 17.8057 47.4399 17.7343C47.0347 17.6861 46.6377 17.4682 46.1969 17.6656C45.7799 18.0677 45.9888 18.6002 45.9374 19.0822C45.9057 19.6824 46.0782 20.3351 45.4962 20.7897C44.7655 20.6257 45.2535 19.6711 44.5406 19.4086C43.8862 19.808 44.2315 20.4843 44.1692 21.0468C44.1346 22.1328 44.3643 23.2395 43.9181 24.2537C43.3624 24.7789 42.7284 24.7136 42.0968 24.6586C41.7234 24.6346 41.3481 24.5006 40.7755 24.6687C40.4722 28.2509 40.616 31.8407 40.6054 35.2204C41.1112 35.8346 41.7759 35.6871 42.0487 36.1946C41.6988 36.8575 41.0491 36.7464 40.4858 36.751C38.1667 36.7697 35.8472 36.7973 33.5298 36.7414C33.0339 36.7488 32.5181 36.6626 32.0985 37.0374C31.6493 37.7533 31.9184 38.5418 31.8638 39.2927C31.769 40.5982 32.0405 41.929 31.6774 43.1266C31.1268 43.7066 30.5091 43.6662 29.9197 43.668C25.2677 43.6813 20.6158 43.6817 15.9638 43.6688C15.4103 43.6673 14.8495 43.6644 14.3697 43.3222C13.9758 43.0435 14.0614 42.4304 13.3374 42.0726C13.0346 46.5751 13.3109 50.964 13.1806 55.3411C13.2327 59.3393 13.2352 63.3367 13.1825 67.334C13.3075 68.2084 13.0382 69.1265 13.458 69.9733C14.1384 70.3797 14.879 70.2477 15.5901 70.2481C33.3643 70.2556 51.1386 70.252 68.9128 70.2595C69.7147 70.2598 70.5375 70.1351 71.3075 70.4974C71.3703 70.5547 71.4322 70.6128 71.4942 70.6709C71.4796 70.7545 71.4651 70.8382 71.4505 70.9218C51.8157 70.9218 32.1811 70.9218 12.5464 70.9218Z" fill="#548ACD"/>
<path d="M71.4515 41.7387C71.4515 33.547 71.4515 25.3552 71.4515 17.1635C70.816 15.5423 70.816 13.921 71.4515 12.2997C71.4515 12.2143 71.4515 12.129 71.4515 12.0437C71.9637 12.0437 72.4759 12.0437 72.9881 12.0437C72.9881 31.6028 72.9881 51.1618 72.9865 70.7209C72.9865 70.7581 72.9622 70.7954 72.9532 70.8213C72.9166 70.86 72.8878 70.9174 72.8583 70.9178C72.3894 70.9235 71.9204 70.9218 71.4515 70.9218C71.4515 70.8364 71.4515 70.7512 71.4515 70.6658C70.763 69.5918 71.1361 68.404 71.0842 67.2612C71.1389 59.4415 70.9937 51.6226 71.0444 43.8034C71.0489 43.0988 70.8929 42.3426 71.4515 41.7387Z" fill="#7CA6D7"/>
<path d="M41.9997 24.3305C42.5468 24.3305 43.094 24.3317 43.6411 24.3274C43.6733 24.3271 43.7052 24.2819 43.7372 24.2576C43.7556 24.2232 43.79 24.1887 43.79 24.1542C43.7928 23.0183 43.7924 21.8825 43.7924 20.7466C44.3046 20.347 44.8168 20.3469 45.329 20.7466C45.4229 20.7745 45.5024 20.7502 45.5382 20.6615C45.5668 20.5911 45.5826 20.5105 45.5832 20.4343C45.587 19.9411 45.5851 19.4479 45.5851 18.9546C45.8533 18.6551 46.2916 18.6682 46.4704 18.5231C46.8648 18.1361 46.7865 17.6653 47.1218 17.4187C48.2703 17.4187 49.4187 17.4193 50.5672 17.4153C50.5986 17.4152 50.6297 17.3643 50.6854 17.3157C50.7443 16.7991 50.6731 16.253 50.7225 15.7566C50.7823 15.6898 50.8104 15.6307 50.8386 15.6307C54.7519 15.6266 58.6652 15.6266 62.5786 15.6294C62.6123 15.6294 62.646 15.6692 62.6798 15.6904C62.7012 15.724 62.7414 15.7577 62.7414 15.7913C62.7443 18.5117 62.7441 21.232 62.7441 23.949C62.6702 23.9931 62.6021 24.0692 62.5337 24.0693C59.9816 24.0754 57.4294 24.0737 54.8772 24.0761C54.7124 24.0762 54.5447 24.0858 54.3837 24.1178C54.288 24.1367 54.2627 24.233 54.2927 24.3304C54.1979 24.3019 54.1178 24.3268 54.082 24.4169C54.0537 24.4884 54.0395 24.5698 54.0386 24.647C54.0343 25.0175 54.0366 25.388 54.0366 25.7254C53.9672 25.8397 53.8988 25.865 53.8124 25.8682C53.4035 25.8833 52.9908 25.8196 52.5863 25.9128C52.4948 25.934 52.4715 26.0276 52.5 26.1224C52.8998 26.6344 52.8998 27.1464 52.5 27.6583C52.5 30.5447 52.5 33.431 52.5 36.3043C52.9138 36.4089 53.2521 36.3477 53.5869 36.3595C53.9275 36.3714 54.2689 36.3621 54.6099 36.3621C54.951 36.3621 55.292 36.3621 55.633 36.3621C56.0167 36.3621 56.4003 36.3621 56.784 36.3621C57.125 36.3621 57.4661 36.3621 57.8071 36.3621C58.1481 36.3621 58.4891 36.3621 58.8301 36.3621C59.1711 36.3621 59.5122 36.3621 59.8532 36.3621C60.1895 36.3621 60.5259 36.3621 60.8233 36.3621C60.891 36.4297 60.9474 36.4598 60.9474 36.4899C60.9515 39.217 60.9512 41.944 60.9513 44.6711C60.8873 44.7174 60.8234 44.8038 60.7593 44.804C58.2015 44.8108 55.6438 44.8091 53.0861 44.8114C52.9207 44.8115 52.7527 44.8209 52.5912 44.8528C52.4952 44.8717 52.4697 44.9681 52.4998 45.0658C52.927 45.5452 52.8678 46.1335 52.8704 46.7086C52.9313 50.1714 52.9237 53.6343 52.8786 57.0973C52.9269 60.5142 52.932 63.9309 52.879 67.348C52.9126 67.9437 52.9361 68.5376 52.5994 69.0726C52.1321 69.5509 51.5216 69.5285 50.9332 69.533C48.4741 69.5517 46.0148 69.5552 43.5557 69.5308C42.9311 69.5246 42.2595 69.5825 41.8245 68.9629C41.5199 68.3191 41.5934 67.6276 41.5927 66.95C41.5863 60.5126 41.5923 54.0753 41.5843 47.6378C41.5835 47.0085 41.6865 46.3572 41.3282 45.7077C40.5115 45.3155 39.6041 45.5074 38.7265 45.4832C37.3626 45.4456 35.997 45.5057 34.6328 45.4501C33.7283 45.4132 33.0057 45.0767 32.9495 44.0687C32.821 41.7702 32.8452 39.4682 32.9391 37.1679C32.9516 36.862 33.0897 36.5937 33.2919 36.362C36.0009 36.362 38.7098 36.3627 41.4187 36.3603C41.5826 36.3602 41.7493 36.3499 41.9094 36.3178C42.0042 36.2988 42.0292 36.203 41.9995 36.106C41.6255 35.695 41.5981 35.1821 41.5954 34.6704C41.5798 31.6991 41.5771 28.7277 41.5981 25.7564C41.6019 25.2532 41.5815 24.7253 41.9997 24.3305Z" fill="#FFFFFD"/>
<path d="M33.2925 36.3628C33.2925 39.1331 33.2925 41.9034 33.2925 44.691C33.4089 44.7971 33.5344 44.9116 33.7044 45.0665C34.5819 45.0665 35.516 45.0665 36.4502 45.0665C37.3456 45.0665 38.241 45.0665 39.1364 45.0665C40.0672 45.0665 40.9979 45.0665 41.8864 45.0665C41.9517 45.1547 41.9971 45.1872 41.9971 45.2199C42.0002 53.1045 42.0001 60.9891 42.0001 68.8738C41.5287 69.6568 40.8894 69.4655 40.344 69.2751C39.8653 68.8552 39.8659 68.3186 39.5167 67.9562C38.9375 67.6571 38.2871 67.7503 37.6548 67.7498C30.0656 67.7432 22.4764 67.7494 14.8873 67.7402C14.1739 67.7394 13.4231 67.8592 12.8042 67.3378C12.8042 63.3272 12.8042 59.3167 12.8042 55.3062C13.2538 54.9424 13.7312 54.9298 14.1909 55.1671C14.69 55.4921 14.6809 56.1021 15.056 56.4476C16.3073 56.7967 38.3337 56.7924 39.7505 56.3784C39.8508 53.4145 39.8051 50.3806 39.7665 47.2543C37.0399 46.6506 34.3645 47.3769 31.4959 46.6936C31.3983 43.2327 31.6763 39.7972 31.7558 36.3628C32.2681 36.3628 32.7803 36.3628 33.2925 36.3628Z" fill="#3C5CB5"/>
<path d="M31.7559 36.3615C31.7559 39.7314 31.7559 43.1012 31.7558 46.4711C31.8228 46.5145 31.8896 46.5956 31.9566 46.5958C34.5171 46.6022 37.0776 46.6003 39.638 46.6035C39.8017 46.6037 39.9735 46.5572 40.1279 46.6495C40.1553 46.6832 40.204 46.7151 40.204 46.747C40.2075 50.1579 40.2073 53.5689 40.2073 56.9624C40.1448 57.0615 40.0756 57.0976 39.9888 57.0973C39.6047 57.0962 39.2206 57.0968 38.8365 57.0968C30.8138 57.0968 22.7909 57.0968 14.7412 57.0968C14.6339 56.9963 14.5122 56.8824 14.3812 56.7597C14.2607 56.3154 14.413 55.8467 14.3057 55.3991C14.2724 55.3655 14.2427 55.3092 14.2124 55.3088C13.7431 55.3032 13.2736 55.3049 12.8042 55.3049C12.8042 50.7529 12.8041 46.2008 12.8068 41.6488C12.8068 41.6149 12.8458 41.581 12.8665 41.547C12.9 41.5251 12.9333 41.4845 12.967 41.4841C13.3897 41.4798 13.8123 41.4813 14.2163 41.4813C14.4257 41.6736 14.318 41.8981 14.3374 42.0978C14.3538 42.2664 14.329 42.4389 14.3438 42.6077C14.3616 42.8109 14.2717 43.0274 14.4018 43.211C14.4469 43.2355 14.4816 43.2709 14.5163 43.2709C20.1343 43.2734 25.7524 43.2732 31.3705 43.2733C31.4137 43.2063 31.4942 43.1394 31.4944 43.0722C31.501 40.9877 31.4992 38.9031 31.5014 36.8186C31.5015 36.6962 31.5107 36.5699 31.5423 36.4527C31.5681 36.3568 31.6583 36.3315 31.7559 36.3615Z" fill="#4371C5"/>
<path d="M52.5002 57.0964C52.5002 53.5978 52.5002 50.0993 52.5002 46.6007C53.0376 46.1377 53.695 46.2282 54.3255 46.2145C56.2741 46.1723 58.2271 46.2916 60.0341 46.1434C60.5561 45.8218 60.6463 45.3581 60.9517 45.0647C61.049 45.0946 61.1392 45.0695 61.165 44.9739C61.1966 44.8568 61.2045 44.731 61.2061 44.6088C61.2109 44.2267 61.2066 43.8444 61.2098 43.4623C61.2102 43.4261 61.2389 43.3902 61.2545 43.3542C61.2857 43.327 61.3169 43.2762 61.3482 43.2762C64.0671 43.2726 66.7859 43.2731 69.5049 43.2699C69.5375 43.2699 69.5701 43.2252 69.6186 43.1898C69.7245 42.666 69.6047 42.118 69.6816 41.5866C69.7177 41.5505 69.7474 41.4947 69.7779 41.4944C70.2013 41.4887 70.6249 41.4905 71.0662 41.4905C71.143 41.5637 71.23 41.655 71.3272 41.7338C71.3528 41.7546 71.4096 41.737 71.4521 41.737C71.4521 50.27 71.4521 58.803 71.4521 67.3361C71.2805 67.4119 71.1447 67.3704 71.0441 67.2127C70.7453 66.6619 70.8024 66.0575 70.8001 65.4669C70.7898 62.7905 70.8038 60.1138 70.7893 57.4374C70.7867 56.9558 70.8918 56.4314 70.5046 56.004C69.9369 56.2004 70.047 56.8358 69.7724 57.0259C69.2467 57.4621 68.7306 57.4822 68.222 57.4845C63.4618 57.5064 58.7014 57.4999 53.9411 57.4888C53.4287 57.4875 52.9149 57.4669 52.5002 57.0964Z" fill="#4371C5"/>
<path d="M71.196 67.3365C71.2813 67.3365 71.3668 67.3365 71.4521 67.3365C71.4521 68.4458 71.4521 69.5551 71.4521 70.6644C51.9691 70.6644 32.4861 70.6644 13.0031 70.6627C12.966 70.6627 12.929 70.6375 12.9202 70.6343C12.8679 70.5884 12.8083 70.5606 12.8082 70.5325C12.8035 69.4672 12.8042 68.4019 12.8042 67.3365C21.8831 67.3365 30.9618 67.3365 40.0407 67.3391C40.0746 67.3391 40.1085 67.3786 40.1718 67.4178C40.2674 67.936 40.1559 68.4853 40.2312 69.0244C40.2614 69.0545 40.2912 69.1105 40.3217 69.1109C40.746 69.1167 41.1704 69.1148 41.6177 69.1148C41.6899 69.0461 41.7773 68.9546 41.8748 68.8757C41.9005 68.8549 41.9575 68.8726 42.0001 68.8726C41.97 68.9702 41.9965 69.0524 42.0914 69.0878C42.1658 69.1154 42.2503 69.1269 42.3303 69.127C45.6111 69.1289 48.892 69.1289 52.1729 69.1269C52.2526 69.1269 52.3324 69.1023 52.3966 69.0917C52.4376 69.0545 52.4961 69.0264 52.4964 68.9976C52.5017 68.444 52.5004 67.8903 52.5004 67.3366C52.9916 66.8989 53.601 66.9284 54.1935 66.9273C59.2966 66.9181 64.3998 66.9181 69.503 66.9273C70.0955 66.9282 70.7049 66.8987 71.196 67.3365Z" fill="#4371C5"/>
<path d="M71.4518 12.2983C71.4518 13.9196 71.4518 15.5409 71.4518 17.1622C70.8969 17.1622 70.342 17.1622 69.7637 17.1622C69.5097 16.7021 69.7738 16.175 69.6068 15.7018C69.5738 15.6763 69.5417 15.6299 69.5091 15.6295C69.0844 15.6246 68.6596 15.6262 68.2505 15.6262C68.1143 15.4901 67.9936 15.3695 67.8696 15.2455C67.8696 14.823 67.8696 14.3973 67.8696 13.9736C67.8018 13.9257 67.7394 13.8446 67.6722 13.8405C67.417 13.825 67.1604 13.8343 66.9043 13.8343C50.3007 13.8343 33.6971 13.834 17.0935 13.8364C16.8011 13.8365 16.5046 13.7905 16.218 13.8773C16.1883 13.9109 16.1371 13.9419 16.1368 13.9735C16.1318 14.4843 16.1333 14.9952 16.1333 15.5009C15.8729 15.7547 15.5611 15.588 15.2785 15.6235C14.99 15.6596 14.6912 15.5671 14.4105 15.6829C14.3853 15.7205 14.3438 15.7536 14.3434 15.7872C14.339 16.2108 14.3405 16.6343 14.3405 17.0483C13.9671 17.1948 13.5639 17.2026 12.8557 17.0858C12.7886 16.0603 12.7823 13.7862 12.8423 12.395C12.8753 12.3601 12.9045 12.3021 12.9337 12.3021C32.4397 12.2983 51.9457 12.2983 71.4518 12.2983Z" fill="#4471C5"/>
<path d="M41.9998 24.3309C41.9998 28.2561 41.9998 32.1813 41.9998 36.1065C41.4473 36.1065 40.8947 36.1065 40.3421 36.1066C40.2971 36.0417 40.2128 35.9767 40.2127 35.9117C40.2064 32.0899 40.2071 28.2681 40.2071 24.4589C40.3399 24.3261 40.4601 24.2059 40.5858 24.0803C40.9188 24.0803 41.2573 24.0803 41.6094 24.0803C41.6905 24.1576 41.7776 24.2489 41.8748 24.3277C41.9005 24.3486 41.9573 24.3309 41.9998 24.3309Z" fill="#3D5EB6"/>
<path d="M60.9517 45.0655C60.9517 45.5313 60.9517 45.9971 60.9517 46.4629C60.8882 46.5092 60.8248 46.5955 60.7611 46.5957C58.0074 46.6024 55.2538 46.6014 52.5002 46.6014C52.5002 46.0894 52.5002 45.5774 52.5002 45.0654C55.3174 45.0655 58.1345 45.0655 60.9517 45.0655Z" fill="#425FB6"/>
<path d="M54.2922 24.3296C57.0532 24.3296 59.814 24.3293 62.575 24.3322C62.6089 24.3322 62.6429 24.3705 62.677 24.3909C62.6992 24.4242 62.7405 24.4573 62.7408 24.4907C62.7453 24.9127 62.7437 25.3347 62.7437 25.7679C62.4195 25.9666 62.0751 25.837 61.7501 25.8594C61.3696 25.8856 60.9859 25.8656 60.6037 25.8656C60.2639 25.8656 59.924 25.8656 59.5842 25.8656C59.2444 25.8656 58.9046 25.8656 58.5648 25.8656C58.225 25.8656 57.8852 25.8656 57.5454 25.8656C57.1631 25.8656 56.7808 25.8656 56.3985 25.8656C56.0588 25.8656 55.7187 25.8743 55.3792 25.8631C55.0453 25.8521 54.7083 25.9097 54.3868 25.8328C54.3491 25.7921 54.2963 25.7616 54.2959 25.7306C54.2906 25.2637 54.2922 24.7966 54.2922 24.3296Z" fill="#4360B7"/>
<path d="M41.9996 20.8083C42.1598 20.777 42.2382 20.7494 42.3171 20.7484C42.6944 20.7437 43.0718 20.7463 43.3949 20.7463C43.4741 20.8193 43.5321 20.8479 43.5323 20.8767C43.5369 21.8958 43.5362 22.9151 43.5362 23.9344C43.4729 23.981 43.4108 24.0657 43.346 24.0678C42.964 24.0806 42.5814 24.0752 42.1991 24.0724C42.1619 24.0721 42.125 24.0477 42.1041 24.0403C42.0617 24.0011 42.0036 23.9725 42.0035 23.9437C41.9988 22.9247 41.9996 21.9054 41.9996 20.8083Z" fill="#4262B8"/>
<path d="M47.1219 17.4176C47.1219 17.8755 47.1232 18.3334 47.1191 18.7912C47.1189 18.8242 47.0792 18.8568 47.0579 18.8896C47.0251 18.9109 46.9924 18.9505 46.9595 18.9509C46.5014 18.955 46.0434 18.9536 45.5853 18.9536C45.5853 18.4025 45.5853 17.8513 45.5852 17.3001C45.6488 17.2539 45.7129 17.1675 45.7761 17.1682C46.1949 17.1728 46.6168 17.1186 47.0317 17.2044C47.1268 17.2241 47.1517 17.3206 47.1219 17.4176Z" fill="#3D5EB6"/>
<path d="M45.3297 20.7474C44.8174 20.7474 44.3052 20.7474 43.793 20.7474C43.793 20.1952 43.793 19.643 43.793 19.0907C43.8578 19.0456 43.9215 18.9637 43.9878 18.9615C44.3698 18.9491 44.7525 18.9543 45.135 18.9574C45.1716 18.9577 45.2081 18.9842 45.2446 18.9985C45.2729 19.0293 45.3257 19.0598 45.326 19.0908C45.331 19.643 45.3297 20.1952 45.3297 20.7474Z" fill="#4564B9"/>
<path d="M50.4004 15.3696C50.4913 15.7891 50.4416 16.1241 50.4478 16.4565C50.4516 16.6615 50.4893 16.8718 50.421 17.0561C50.3794 17.1003 50.3509 17.1572 50.3216 17.1576C49.8993 17.1634 49.477 17.1616 49.0545 17.1617C49.0079 17.0988 48.9233 17.0372 48.9212 16.9728C48.9084 16.5932 48.914 16.213 48.9164 15.8331C48.9166 15.7954 48.9372 15.7579 48.938 15.7552C49.0727 15.6074 49.1859 15.4831 49.2893 15.3697C49.6477 15.3696 49.9856 15.3696 50.4004 15.3696Z" fill="#4769BB"/>
<path d="M52.5002 27.6585C52.5002 27.1465 52.5002 26.6346 52.5002 26.1226C52.9674 26.1226 53.4347 26.1226 53.902 26.1226C53.947 26.1875 54.029 26.2514 54.0309 26.3176C54.0428 26.7364 54.0369 27.1557 54.0369 27.5338C53.9633 27.6018 53.9329 27.6545 53.9018 27.6549C53.4347 27.6601 52.9674 27.6585 52.5002 27.6585Z" fill="#435FB6"/>
<path d="M71.1958 67.3371C64.964 67.3371 58.7321 67.3371 52.5002 67.3371C52.5002 63.9239 52.5002 60.5106 52.5002 57.0974C58.1954 57.0974 63.8905 57.0974 69.5442 57.0974C69.61 57.0108 69.6558 56.9787 69.6561 56.9461C69.6606 56.4375 69.6592 55.9288 69.6592 55.4265C69.9954 55.266 70.047 55.2641 71.1308 55.3684C71.1525 55.4019 71.1932 55.4355 71.1932 55.469C71.196 59.4251 71.1958 63.381 71.1958 67.3371Z" fill="#3C5CB5"/>
<defs>
<linearGradient id="paint0_linear_30_2584" x1="41.7648" y1="8.44556" x2="41.7648" y2="81.5782" gradientUnits="userSpaceOnUse">
<stop stop-color="#DF8B1D"/>
<stop offset="1" stop-color="#ECB523"/>
</linearGradient>
</defs>
</svg>
