<svg width="84" height="87" viewBox="0 0 84 87" fill="none" xmlns="http://www.w3.org/2000/svg">
<path d="M2.29382 82.9594C1.73936 82.9594 1.18496 82.9594 0.630433 82.9595C0.587211 82.8924 0.508898 82.8264 0.506721 82.758C0.494619 82.3747 0.500894 81.9908 0.500894 81.6072C0.500894 55.6025 0.500894 29.5978 0.500894 3.59322C0.622109 3.50005 0.759012 3.4592 0.911795 3.4706C1.41561 3.53873 1.95925 3.29649 2.42541 3.66564C2.72963 4.17964 2.66009 4.74569 2.65919 5.30316C2.77721 6.6663 2.65657 8.02822 2.6565 9.3904C2.65631 20.6807 2.65253 31.9709 2.65932 43.2611C2.64869 53.9452 2.65574 64.6294 2.65945 75.3135C2.6599 76.6746 2.76357 78.0355 2.66669 79.3956C2.69108 79.9411 2.68462 80.4875 2.65145 81.0329C2.62872 81.6258 2.72079 82.233 2.44872 82.798C2.39768 82.8521 2.34575 82.9058 2.29382 82.9594Z" fill="#030303"/>
<path d="M4.08673 1.80226C4.08673 1.24774 4.08673 0.693147 4.08667 0.138492C4.15416 0.0956542 4.22018 0.0191345 4.28953 0.0159329C4.58767 0.0022298 4.88676 0.0101057 5.18548 0.0101057C29.8101 0.0101057 54.4347 0.00984965 79.0593 0.012539C79.3952 0.0126031 79.7341 -0.0290184 80.057 0.0390488C80.0973 0.0787494 80.1539 0.108397 80.1542 0.138556C80.1595 0.693083 80.1581 1.24761 80.1581 1.8022C80.0944 1.85919 80.0307 1.91612 79.9675 1.97413C79.3686 2.27925 78.7188 2.21329 78.0835 2.21342C54.1094 2.21848 30.1353 2.21829 6.16122 2.21355C5.52594 2.21342 4.87613 2.27989 4.27614 1.97631C4.21262 1.91893 4.14968 1.8606 4.08673 1.80226Z" fill="#020403"/>
<path d="M83.488 3.59461C83.488 29.9829 83.488 56.3711 83.4864 82.7593C83.4864 82.7967 83.4624 82.8339 83.4524 82.863C83.4175 82.8994 83.3884 82.9565 83.3586 82.9569C82.8895 82.9625 82.4204 82.9608 81.9512 82.9608C81.5411 82.5592 81.5558 82.0375 81.5573 81.526C81.6334 56.3117 81.5657 31.0975 81.5941 5.88322C81.595 5.12955 81.469 4.34828 81.88 3.59621C82.4217 3.41423 82.9512 3.39611 83.488 3.59461Z" fill="black"/>
<path d="M80.1581 84.7523C80.1581 85.2216 80.1581 85.6908 80.1582 86.1601C80.0906 86.2029 80.0246 86.2794 79.9553 86.2826C79.6571 86.2963 79.358 86.2884 79.0593 86.2884C54.4347 86.2884 29.8102 86.2887 5.18565 86.286C4.84974 86.2859 4.51087 86.3275 4.1875 86.2594C4.14748 86.2199 4.09107 86.1903 4.09069 86.16C4.08512 85.6908 4.08678 85.2216 4.08678 84.7523C4.5345 84.301 5.11535 84.3968 5.65796 84.3966C29.9676 84.3884 54.2773 84.3884 78.587 84.3966C79.1296 84.3969 79.7105 84.301 80.1581 84.7523Z" fill="black"/>
<path d="M80.1582 84.7533C54.8011 84.7533 29.444 84.7533 4.08687 84.7533C3.55226 84.7533 3.01758 84.7538 2.48297 84.753C2.38154 84.7528 2.32551 84.6746 2.29395 84.4973C2.6015 84.1767 3.05876 84.2043 3.49361 83.9782C3.86769 83.9098 3.71721 83.072 4.38271 83.2368C5.00088 84.1898 5.97086 84.0876 6.90824 84.0876C19.6599 84.0874 32.4115 84.0874 45.1631 84.0873C55.9529 84.0873 66.7428 84.0912 77.5326 84.0802C78.3129 84.0795 79.2109 84.2754 79.5949 83.2561C79.6579 83.1338 79.7453 83.0246 79.8475 82.9325C80.6468 82.8817 80.2535 84.0018 80.9501 84.0485C81.1958 83.5318 81.1958 83.5318 80.1073 82.9111C79.7521 82.4239 79.7987 81.8968 79.9441 81.3596C79.9951 81.234 80.076 81.1296 80.1825 81.0462C80.4918 80.8403 80.9184 80.8802 81.1992 80.5564C81.4408 80.1079 81.3286 79.6037 81.3254 79.1081C81.3046 78.0397 81.2962 76.9738 81.3199 75.9064C81.2307 67.8063 81.2971 59.7074 81.2845 51.6087C81.2802 48.8384 81.2342 46.0675 81.3141 43.2974C81.2398 35.493 81.2941 27.6885 81.2846 19.884C81.2802 16.2591 81.2493 12.6341 81.3032 9.0112C81.3142 8.85521 81.3235 8.69705 81.3266 8.54043C81.3107 7.57372 81.3261 6.60528 81.3275 5.63998C81.3308 5.50903 81.3375 5.37495 81.3414 5.24375C81.3201 4.8721 81.4333 4.47906 81.186 4.13546C80.9094 3.83713 80.4486 3.92883 80.1632 3.65137C80.1042 3.53611 80.1087 3.42277 80.1751 3.31187C80.443 3.01687 80.8978 3.08212 81.1733 2.79826C81.4293 2.5094 81.3874 2.06431 81.695 1.80293C81.7898 1.77443 81.87 1.7994 81.9057 1.8895C81.9341 1.96096 81.9483 2.04235 81.9492 2.11957C81.9535 2.49007 81.9512 2.86063 81.9512 3.19802C82.0205 3.31238 82.0889 3.33767 82.1753 3.34087C82.5843 3.35599 82.997 3.29227 83.4016 3.3855C83.4931 3.40664 83.5165 3.50032 83.488 3.59509C83.0188 3.59509 82.5497 3.59508 82.0805 3.59502C82.0373 3.66213 81.9591 3.72821 81.9569 3.79673C81.9448 4.18003 81.9511 4.56391 81.9511 4.94759C81.9511 30.9521 81.9511 56.9567 81.9511 82.9613C81.9511 83.5044 81.9522 84.0475 81.9483 84.5906C81.9481 84.6237 81.9084 84.6565 81.8871 84.6895C81.8541 84.7108 81.8213 84.7505 81.7882 84.7508C81.2449 84.7545 80.7016 84.7533 80.1582 84.7533Z" fill="#934E41"/>
<path d="M80.1582 3.33775C80.1582 3.42311 80.1582 3.50847 80.1582 3.59376C80.4658 3.85764 80.4282 4.30709 80.6938 4.59447C80.9814 4.85976 81.4304 4.82351 81.695 5.12991C81.695 5.21527 81.695 5.30063 81.695 5.38592C81.1148 5.83684 80.5227 5.81097 79.964 5.47083C79.5674 5.10155 79.5428 4.5784 79.0452 4.00498C54.5283 4.00524 29.8412 4.00466 5.15344 4.08003C4.79665 4.36318 4.70169 4.77818 4.42667 5.04014C3.66262 5.21706 3.91075 4.34993 3.62324 4.22852C3.14613 3.87582 2.62452 3.94389 2.29391 3.59376C1.78165 3.59376 1.26938 3.59376 0.757119 3.59376C0.700002 3.5369 0.680984 3.47997 0.700002 3.42311C0.71902 3.36625 0.738037 3.33775 0.757119 3.33775C1.26938 3.33775 1.78165 3.33775 2.29391 3.33775C2.86362 2.8495 3.55172 2.97296 4.21491 2.96361C4.63977 2.89887 5.06725 2.9232 5.49352 2.92314C29.562 2.92167 53.6304 2.9209 77.6989 2.92692C78.4599 2.92711 79.2404 2.81595 79.9687 3.16365C80.0322 3.22102 80.0953 3.27936 80.1582 3.33775Z" fill="#D9A649"/>
<path d="M4.08684 3.33795C3.48921 3.33795 2.89153 3.33795 2.29391 3.33795C2.29391 2.87915 2.29256 2.42036 2.29673 1.96162C2.29705 1.92884 2.3379 1.89644 2.35993 1.86384C2.3931 1.84316 2.42614 1.80474 2.45943 1.80455C3.00186 1.80077 3.54435 1.80192 4.08677 1.80192C4.48653 2.31387 4.48653 2.82594 4.08684 3.33795Z" fill="#0C0908"/>
<path d="M4.08687 83.2165C4.08687 83.6246 4.08687 84.0327 4.08687 84.3963C3.985 84.4569 3.9517 84.4938 3.91815 84.494C3.37675 84.4976 2.83535 84.4966 2.29395 84.4966C2.29395 83.9845 2.29395 83.4725 2.29395 82.9604C2.72354 82.5701 3.23312 82.6445 3.74193 82.7094C3.8659 82.7427 3.97885 82.7992 4.08149 82.8762C4.15955 82.9881 4.16525 83.1016 4.08687 83.2165Z" fill="#0F0F0F"/>
<path d="M81.6946 1.80249C81.6946 2.26039 81.6959 2.71836 81.6918 3.17619C81.6915 3.20917 81.6519 3.24183 81.6306 3.27461C81.5978 3.29594 81.5651 3.33557 81.5321 3.33583C81.0741 3.33993 80.616 3.33858 80.1578 3.33858C79.7581 2.82657 79.7581 2.3145 80.1578 1.80249C80.6701 1.80249 81.1823 1.80249 81.6946 1.80249Z" fill="#0D0B0B"/>
<path d="M0.757109 3.33813C0.757109 3.42349 0.757109 3.50885 0.757109 3.59414C0.671753 3.59414 0.586333 3.59414 0.500977 3.59414C0.53453 3.38994 0.552779 3.37169 0.757109 3.33813Z" fill="#DED4A3"/>
<path d="M4.08694 5.13174C4.18478 5.1619 4.27519 5.13642 4.30094 5.04011C4.33238 4.92242 4.33225 4.79595 4.34269 4.67307C4.37112 4.33972 4.28928 4.0006 4.38187 3.6819C4.42766 3.64611 4.45987 3.59879 4.49207 3.59879C29.5794 3.59565 54.6667 3.59565 79.754 3.59879C79.7861 3.59879 79.8182 3.64649 79.8534 3.67435C79.9521 3.95834 79.8833 4.25481 79.9016 4.54616C79.9175 4.79659 79.8685 5.05036 79.9372 5.29119C79.9717 5.32672 80.0011 5.38358 80.0311 5.3839C80.5857 5.38922 81.1403 5.38781 81.695 5.38781C81.695 6.41189 81.695 7.43597 81.695 8.46006C81.2932 8.80001 80.8753 8.79866 80.4656 8.53991C80.1043 8.21648 80.1351 7.76933 79.9969 7.39051C79.9189 7.29882 79.8394 7.20872 79.7471 7.13182C79.4141 6.92787 78.985 6.99869 78.6692 6.75242C78.2179 6.45659 78.4575 5.59028 77.678 5.56557C76.8626 5.51396 76.0521 5.54732 75.2423 5.54725C52.7708 5.54482 30.2993 5.54636 7.82775 5.54501C7.40142 5.54501 6.9749 5.53643 6.55497 5.57383C5.84714 5.59989 5.98687 6.31424 5.7194 6.62179C5.35639 6.99338 4.89574 6.93652 4.5125 7.08968C4.42683 7.16697 4.34358 7.24541 4.27263 7.33557C4.09699 7.66534 4.1609 8.0699 3.93678 8.38206C3.67655 8.77215 2.97545 8.73655 2.97635 9.38361C2.92397 19.7301 2.97519 30.0709 2.95534 40.4117C2.95387 41.1767 2.99933 41.9441 2.88708 42.7063C2.85584 42.8685 2.79558 43.0201 2.71074 43.1616C2.60483 43.3163 2.46555 43.3552 2.29395 43.2786C2.29395 30.563 2.29395 17.8473 2.29395 5.13168C2.37623 5.04709 2.47708 5.00957 2.594 5.01104C3.03161 5.10306 3.47798 5.08423 3.92103 5.10927C3.97642 5.11625 4.03168 5.12399 4.08694 5.13174Z" fill="url(#paint0_linear_30_2450)"/>
<path d="M2.29395 43.2771C2.3793 43.2771 2.46472 43.2771 2.55008 43.2771C3.10268 43.8863 2.94286 44.6431 2.94375 45.3481C2.95605 54.7097 2.9499 64.0713 2.95515 73.433C2.95547 74.0655 2.87479 74.7119 3.17773 75.3852C3.8495 75.7571 4.46352 76.2645 4.62943 77.0634C4.96605 77.4542 5.44418 77.4603 5.89222 77.8217C6.21738 78.4035 6.68886 79.0486 7.42799 79.318C7.82724 79.9313 7.8435 80.4959 7.57418 81.0799C6.60824 81.8482 5.51097 81.501 4.45045 81.448C4.31765 81.4135 4.19272 81.3531 4.08047 81.2741C3.69723 80.906 3.88453 80.3214 3.58159 79.9211C3.20731 79.5673 2.68429 79.8939 2.29395 79.632C2.29395 67.5136 2.29395 55.3954 2.29395 43.2771Z" fill="#C87435"/>
<path d="M4.08687 82.9606C3.48925 82.9606 2.89157 82.9606 2.29395 82.9606C2.29395 82.3633 2.29395 81.7659 2.29395 81.1685C2.89157 80.7209 3.48925 80.7209 4.08687 81.1685C4.52089 81.7658 4.55931 82.3632 4.08687 82.9606Z" fill="#955042"/>
<path d="M4.08687 81.1686C3.48925 81.1686 2.89157 81.1686 2.29395 81.1686C2.29395 80.6566 2.29395 80.1445 2.29395 79.6325C2.3355 79.6325 2.39429 79.6501 2.41567 79.6294C2.50417 79.5433 2.58126 79.4457 2.64158 79.3765C3.10249 79.3765 3.51826 79.3749 3.93396 79.3795C3.96604 79.3799 3.99768 79.4235 4.0295 79.447C4.04865 79.4806 4.08425 79.5141 4.0845 79.548C4.0879 80.0881 4.08687 80.6283 4.08687 81.1686Z" fill="#E7D39B"/>
<path d="M2.55008 5.13078C2.46472 5.13078 2.3793 5.13078 2.29395 5.13078C2.29395 4.61877 2.29395 4.1067 2.29395 3.59463C2.83637 3.59463 3.37886 3.59354 3.92128 3.59732C3.95458 3.59757 3.98762 3.63599 4.02079 3.65661C4.04282 3.6892 4.08374 3.72161 4.08406 3.75439C4.08828 4.21312 4.08687 4.67192 4.08687 5.13072C3.57461 5.32532 3.06234 5.3257 2.55008 5.13078Z" fill="#DED4A3"/>
<path d="M80.1582 1.80249C80.1582 2.3145 80.1582 2.82657 80.1582 3.33858C54.8011 3.33858 29.4439 3.33858 4.08679 3.33858C4.08679 2.82657 4.08679 2.3145 4.08679 1.80249C29.4439 1.80249 54.8011 1.80249 80.1582 1.80249Z" fill="#EFE1AE"/>
<path d="M7.41681 81.168C7.41681 80.6141 7.41681 80.0602 7.41688 79.5064C7.35022 79.4628 7.28458 79.3839 7.21652 79.3817C6.83328 79.3695 6.44946 79.3771 6.0659 79.3737C6.02998 79.3734 5.99432 79.3428 5.95852 79.3264C5.93233 79.2946 5.88373 79.2631 5.88335 79.231C5.87829 78.8065 5.87995 78.3819 5.87995 77.9678C5.83935 77.9272 5.81291 77.8761 5.77852 77.8701C5.24084 77.7746 4.68951 77.9158 4.16265 77.7919C4.1314 77.7449 4.09016 77.7116 4.08991 77.678C4.08581 77.1697 4.08702 76.6614 4.08702 76.1756C4.03471 76.1233 4.00762 76.0711 3.97394 76.0664C3.51995 76.0032 3.05481 76.1033 2.62246 76.0083C2.5866 75.9391 2.55253 75.904 2.55253 75.8689C2.55023 65.0048 2.55029 54.1409 2.55029 43.277C3.16994 42.7626 3.91644 42.9351 4.62298 42.8974C5.3333 42.8596 6.05969 42.9921 6.69804 42.7447C7.1026 42.3637 7.06508 41.8209 7.47662 41.4022C8.04101 41.1401 8.68102 40.8209 9.37347 41.3675C9.60649 41.7967 9.61654 42.2671 9.61629 42.7343C9.61091 52.5503 9.65855 62.3663 9.5965 72.1796C9.57671 72.6769 9.50538 73.1828 9.76792 73.6386C10.1807 74.0247 10.8676 73.8811 11.1859 74.4153C11.3902 74.7388 11.4306 75.1502 11.7387 75.541C31.987 75.6413 52.2347 75.6377 72.4831 75.5493C72.8094 75.184 72.8451 74.7693 73.038 74.4454C73.342 73.8946 74.017 74.0163 74.4557 73.6708C74.7546 73.2264 74.6611 72.714 74.6557 72.2127C74.5837 62.4584 74.6351 52.7065 74.6287 42.9546C74.6284 42.4864 74.6389 42.015 74.8695 41.5858C75.341 41.0239 75.9025 41.1738 76.3463 41.3007C76.9216 41.6924 76.8926 42.2995 77.3059 42.6862C78.6858 43.2778 80.3123 42.4191 81.6952 43.2771C81.6952 54.2007 81.6952 65.1241 81.6952 76.0477C81.4199 76.3281 81.0061 76.3773 80.7396 76.604C80.4528 76.9804 80.5038 77.4582 80.23 77.801C79.912 78.2046 79.3559 78.1053 78.9815 78.39C78.6816 78.6527 78.6667 79.0843 78.4031 79.3686C78.0958 79.6968 77.6203 79.6875 77.2724 79.9329C76.8034 80.319 76.9917 81.1197 76.3462 81.3999C75.7268 81.6291 75.0823 81.5823 74.4454 81.5824C52.836 81.586 31.2266 81.5871 9.61725 81.5771C8.86902 81.5766 8.0672 81.7454 7.41681 81.168Z" fill="url(#paint1_linear_30_2450)"/>
<path d="M9.20974 41.2299C9.16728 41.2299 9.11049 41.2123 9.08487 41.233C8.98774 41.3119 8.90071 41.4031 8.80921 41.4904C8.38275 41.4904 7.9593 41.4904 7.54039 41.4904C7.50588 41.5249 7.45088 41.5538 7.44953 41.5851C7.42654 42.1254 7.41022 42.666 7.39325 43.1817C7.32896 43.2297 7.29656 43.275 7.26409 43.2751C5.69285 43.2785 4.12154 43.2781 2.55029 43.2781C2.55029 31.7572 2.55029 20.2363 2.55029 8.71536C2.93981 8.42721 3.45092 8.75595 3.85599 8.45705C4.13614 7.98333 3.78325 7.40044 4.08709 6.92326C4.56471 6.61904 5.15042 6.97539 5.63631 6.67962C5.9322 6.19399 5.57573 5.60853 5.88002 5.1311C30.0418 5.1311 54.2037 5.1311 78.3655 5.1311C78.6699 5.60853 78.3133 6.19399 78.6092 6.67962C79.0951 6.97539 79.6808 6.61904 80.1585 6.92326C80.4479 7.40287 80.1384 7.97891 80.3555 8.43156C80.7947 8.75717 81.3062 8.42542 81.6953 8.71542C81.6953 20.2363 81.6953 31.7572 81.6953 43.2781C80.1243 43.2781 78.5532 43.2781 76.9366 43.2781C76.854 43.1698 76.7516 43.0356 76.5798 42.8104C76.5517 42.483 76.5875 42.0239 76.5687 41.6069C76.4985 41.5424 76.468 41.4899 76.4369 41.4896C75.9699 41.4844 75.5029 41.486 75.0358 41.486C74.4591 40.8339 74.6347 40.0318 74.6335 39.284C74.6202 30.5447 74.6266 21.8053 74.6226 13.066C74.6223 12.3867 74.6887 11.6994 74.4623 11.0412C74.1721 10.4482 73.3476 10.639 73.0345 10.078C72.7612 9.40333 72.261 9.09821 71.5368 9.13074C71.2821 9.14214 71.0255 9.12421 70.7698 9.12421C51.6738 9.12363 32.5777 9.12267 13.4816 9.12741C12.6055 9.1276 11.635 8.95061 11.2202 10.0723C10.9058 10.6455 10.0725 10.4451 9.77701 11.0476C9.5625 11.6725 9.62295 12.3168 9.62269 12.9533C9.61917 21.6453 9.62544 30.3373 9.612 39.0293C9.61078 39.7766 9.78629 40.5783 9.20974 41.2299Z" fill="#E9C95C"/>
<path d="M7.41652 81.1687C30.4685 81.1687 53.5204 81.1687 76.5723 81.1687C77.7676 80.579 78.9629 80.5522 80.1582 81.1687C80.1582 81.766 80.1582 82.3634 80.1582 82.9608C80.0728 82.9608 79.9874 82.9608 79.9021 82.9608C79.2009 83.5353 78.3594 83.3708 77.565 83.3713C62.6828 83.3809 47.8005 83.3783 32.9183 83.3783C24.0486 83.3783 15.179 83.3793 6.30932 83.3771C5.54361 83.3769 4.76439 83.4366 4.08679 82.9608C4.08679 82.3635 4.08679 81.7661 4.08679 81.1687C5.19668 81.1687 6.30663 81.1687 7.41652 81.1687Z" fill="#EDDCA3"/>
<path d="M4.08679 82.9604C29.3586 82.9604 54.6303 82.9604 79.902 82.9604C79.902 83.4292 79.902 83.898 79.9021 84.3669C79.8351 84.4102 79.77 84.4866 79.7006 84.4906C79.4457 84.5056 79.1893 84.4965 78.9335 84.4965C54.2473 84.4965 29.561 84.4967 4.87478 84.4937C4.71438 84.4937 4.53739 84.5548 4.372 84.4111C4.35016 84.05 4.33601 83.6776 4.29945 83.3073C4.29016 83.2132 4.18457 83.1864 4.08679 83.2165C4.08679 83.1311 4.08679 83.0457 4.08679 82.9604Z" fill="#954E41"/>
<path d="M80.1584 81.1685C78.9631 81.1685 77.7678 81.1685 76.5725 81.1685C76.5725 80.6998 76.5725 80.231 76.5725 79.7585C76.6921 79.6409 76.8135 79.5215 76.9376 79.3994C77.3869 79.3296 77.8522 79.4322 78.3211 79.3312C78.4272 78.8607 78.3123 78.3948 78.393 77.9361C78.6559 77.7344 78.9606 77.865 79.2457 77.8448C79.5342 77.8242 79.8254 77.8402 80.0842 77.8402C80.2068 77.4756 80.1399 77.1794 80.1581 76.8881C80.1737 76.6379 80.1242 76.3843 80.1925 76.15C80.2302 76.1099 80.259 76.0524 80.2884 76.0521C80.7573 76.0464 81.2262 76.0481 81.6952 76.0481C81.6952 77.1575 81.6952 78.2669 81.6952 79.3763C81.4326 79.6743 80.9942 79.656 80.697 79.9337C80.4054 80.2825 80.5346 80.8379 80.1584 81.1685Z" fill="#C77435"/>
<path d="M80.1584 81.1686C80.1584 80.6264 80.1573 80.0842 80.161 79.542C80.1612 79.5087 80.1997 79.4756 80.2203 79.4424C80.2529 79.4204 80.2854 79.3796 80.3182 79.3792C80.7771 79.3751 81.2362 79.3764 81.6951 79.3764C81.6951 79.9187 81.6962 80.4608 81.6925 81.0031C81.6923 81.0364 81.6538 81.0694 81.6332 81.1025C81.6006 81.1245 81.5681 81.1654 81.5353 81.1657C81.0764 81.1699 80.6173 81.1686 80.1584 81.1686Z" fill="#E3D199"/>
<path d="M81.6951 5.13077C81.237 5.13077 80.7788 5.13211 80.3207 5.12801C80.2878 5.12769 80.2551 5.08812 80.2223 5.0668C80.201 5.03401 80.1614 5.00136 80.161 4.96838C80.1569 4.51048 80.1583 4.05258 80.1583 3.59468C80.6164 3.59468 81.0745 3.59339 81.5326 3.59743C81.5656 3.59775 81.5983 3.63732 81.6311 3.65864C81.6524 3.69143 81.692 3.72409 81.6923 3.75706C81.6964 4.2149 81.6951 4.67287 81.6951 5.13077Z" fill="#DAD1A1"/>
<path d="M80.1583 82.9604C80.6534 82.9604 81.1486 82.9604 81.6012 82.9604C81.6585 83.0678 81.6924 83.1021 81.6927 83.1367C81.6964 83.5538 81.6951 83.971 81.6951 84.3797C81.3543 84.5247 81.3543 84.5247 80.2314 84.4416C80.207 84.4097 80.1618 84.378 80.1614 84.3459C80.1568 83.8841 80.1583 83.4223 80.1583 82.9604Z" fill="#111313"/>
<path d="M81.6951 8.7148C81.2361 8.7148 80.777 8.71614 80.3181 8.71198C80.2853 8.71166 80.2529 8.67081 80.2203 8.64878C80.1996 8.61561 80.1612 8.58257 80.1609 8.54934C80.1572 8.00717 80.1582 7.46494 80.1582 6.9227C80.2553 6.89299 80.3452 6.91797 80.371 7.01305C80.4027 7.12966 80.4045 7.25497 80.4137 7.37695C80.4387 7.70916 80.3687 8.04565 80.448 8.36543C80.4894 8.40296 80.5198 8.45476 80.551 8.45521C80.9322 8.46078 81.3136 8.45886 81.6949 8.45886C81.6951 8.54415 81.6951 8.62951 81.6951 8.7148Z" fill="#D9A649"/>
<path d="M80.1583 6.92205C79.615 6.92205 79.0716 6.92314 78.5283 6.9193C78.4952 6.91904 78.4623 6.87934 78.4294 6.85802C78.4081 6.82511 78.3684 6.79226 78.3681 6.75915C78.3643 6.21609 78.3654 5.67296 78.3654 5.12983C78.4601 5.10134 78.5403 5.12631 78.576 5.2164C78.6044 5.28786 78.6187 5.36931 78.6196 5.44647C78.6239 5.81697 78.6215 6.18753 78.6215 6.52492C78.6909 6.63928 78.7592 6.66458 78.8456 6.66778C79.2547 6.68289 79.6674 6.61918 80.0719 6.71241C80.1635 6.7336 80.1868 6.82728 80.1583 6.92205Z" fill="#D9A649"/>
<path d="M5.87968 5.13033C5.87968 5.67346 5.88083 6.21652 5.87692 6.75965C5.87667 6.79276 5.83697 6.82554 5.81564 6.85852C5.78267 6.87984 5.74988 6.91954 5.71678 6.9198C5.17345 6.92364 4.63013 6.92255 4.08675 6.92255C4.05825 6.82778 4.08316 6.74768 4.17332 6.71195C4.24478 6.68358 4.3263 6.66937 4.40352 6.66847C4.77427 6.66418 5.14509 6.66655 5.48242 6.66655C5.59678 6.59726 5.62214 6.52881 5.62534 6.4425C5.64045 6.03364 5.57667 5.62114 5.66997 5.21677C5.69116 5.12514 5.78491 5.10183 5.87968 5.13033Z" fill="#D9A649"/>
<path d="M4.08697 6.92302C4.08697 7.46525 4.08806 8.00748 4.08435 8.54965C4.08409 8.58295 4.04567 8.61599 4.02499 8.64916C3.99239 8.67119 3.95993 8.71204 3.92714 8.71236C3.46822 8.71652 3.00917 8.71518 2.55018 8.71518C2.52181 8.62066 2.54518 8.53435 2.63611 8.50483C2.9922 8.38918 3.36532 8.51014 3.71148 8.4447C3.80766 8.38752 3.82988 8.31881 3.83302 8.23166C3.84749 7.82384 3.78365 7.41223 3.87771 7.00895C3.89897 6.91777 3.99246 6.89465 4.08697 6.92302Z" fill="#D9A649"/>
<path d="M2.55018 5.1311C3.06245 5.1311 3.57471 5.1311 4.08698 5.1311C4.1165 5.22767 4.09159 5.32711 3.99772 5.34292C3.54616 5.41893 3.09101 5.41893 2.63945 5.34292C2.54557 5.32711 2.52067 5.22767 2.55018 5.1311Z" fill="#D9A649"/>
<path d="M73.2423 74.2558C73.2423 74.8104 73.2423 75.3649 73.2423 75.9195C73.1748 75.9624 73.1089 76.0389 73.0396 76.0421C72.7415 76.0558 72.4424 76.0479 72.1437 76.0479C52.1294 76.0479 32.1151 76.0479 12.1007 76.0479C11.7641 76.0479 11.4275 76.0479 11.1331 76.0479C11.063 75.979 11.0063 75.9495 11.006 75.9194C11.0007 75.3649 11.0021 74.8104 11.0021 74.2558C11.0657 74.199 11.1293 74.1421 11.1923 74.0842C11.7912 73.7792 12.4409 73.8456 13.0761 73.8454C32.4402 73.8401 51.8044 73.8403 71.1685 73.8453C71.8036 73.8455 72.4534 73.7785 73.0534 74.0821C73.1166 74.1394 73.1795 74.1976 73.2423 74.2558Z" fill="#C67435"/>
<path d="M74.779 10.5067C74.8767 10.4767 74.966 10.5018 74.994 10.5977C75.078 10.8852 75.033 11.1824 75.0331 11.475C75.0355 21.4784 75.0351 31.4818 75.0351 41.4851C75.0351 51.8113 75.0351 62.1374 75.0351 72.4635C74.9011 72.5741 74.7521 72.6587 74.5888 72.718C74.1986 72.7926 73.8264 72.7751 73.5093 72.5093C73.0125 71.4017 72.9579 11.8609 73.4606 10.5334C73.882 10.3075 74.3267 10.3179 74.779 10.5067Z" fill="#020201"/>
<path d="M9.20916 41.2294C9.20916 31.3114 9.20871 21.3933 9.21121 11.4753C9.21127 11.1827 9.16626 10.8854 9.25027 10.598C9.27825 10.5021 9.3677 10.477 9.46529 10.507C9.87299 10.2844 10.2897 10.4019 10.6635 10.4312C11.1818 10.9029 11.1006 11.4836 11.1008 12.0259C11.1106 31.6609 11.1096 51.2959 11.1031 70.931C11.1029 71.4383 11.1398 71.9594 10.8326 72.4142C10.5052 72.7667 10.0958 72.8021 9.65534 72.7199C9.49129 72.6612 9.34267 72.5756 9.20909 72.4639C9.20916 62.0523 9.20916 51.6409 9.20916 41.2294Z" fill="#020202"/>
<path d="M9.20902 72.4639C9.29438 72.4639 9.3798 72.4639 9.46515 72.4639C9.92472 72.7622 10.468 72.4599 10.9782 72.6784C11.4245 73.1801 11.4021 73.7107 11.0019 74.256C10.4586 74.256 9.91524 74.2571 9.37192 74.2533C9.33882 74.253 9.30597 74.2133 9.27305 74.192C9.25173 74.1591 9.21197 74.1262 9.21177 74.0931C9.20787 73.5501 9.20902 73.0069 9.20902 72.4639Z" fill="#C57334"/>
<path d="M74.7795 72.4639C74.8649 72.4639 74.9503 72.4639 75.0356 72.4639C75.0356 73.007 75.0367 73.5501 75.0329 74.0932C75.0326 74.1263 74.9929 74.1591 74.9716 74.1921C74.9386 74.2134 74.9059 74.2531 74.8727 74.2533C74.3294 74.2572 73.7861 74.2561 73.2427 74.2561C72.8551 73.7609 72.8506 73.2544 73.1911 72.7358C73.6816 72.3943 74.2934 72.7922 74.7795 72.4639Z" fill="#BC7134"/>
<path d="M74.7792 72.4635C74.8089 72.5606 74.7839 72.6505 74.6886 72.6763C74.5719 72.7079 74.4464 72.7097 74.3243 72.7189C73.9918 72.7441 73.6549 72.6732 73.3351 72.7536C73.2978 72.7953 73.2463 72.826 73.2459 72.8572C73.2407 73.3233 73.2423 73.7894 73.2423 74.2556C52.4956 74.2556 31.7488 74.2556 11.0021 74.2556C11.0021 73.7894 11.0021 73.3233 11.0022 72.8571C10.9383 72.8112 10.8768 72.7298 10.8101 72.7252C10.3924 72.6965 9.97015 72.7626 9.55553 72.6766C9.46038 72.6568 9.4356 72.5605 9.46538 72.4634C9.84945 72.4634 10.2335 72.4634 10.6177 72.4635C10.6605 72.396 10.737 72.33 10.7402 72.2606C10.7539 71.9626 10.746 71.6637 10.746 71.3651C10.746 51.445 10.746 31.5249 10.746 11.6048C10.746 11.2683 10.746 10.9318 10.746 10.6366C10.6775 10.5672 10.6479 10.5109 10.6175 10.5105C10.2336 10.5045 9.84945 10.5066 9.46538 10.5066C9.43771 10.4134 9.46179 10.3343 9.54951 10.2984C9.6195 10.2697 9.69942 10.2534 9.77517 10.2526C10.1841 10.2483 10.5932 10.2506 11.0022 10.2506C11.0492 10.2992 11.0962 10.3477 11.1443 10.3962C11.2116 10.5177 11.2554 10.647 11.2797 10.7837C11.3428 11.2736 11.3369 11.7666 11.3535 12.2616C11.3607 12.4181 11.3622 12.5717 11.3622 12.7281C11.3641 32.4139 11.364 52.0969 11.3642 72.049C31.9263 72.0491 52.2022 72.049 72.3154 72.049C73.034 71.2322 72.8746 70.4789 72.8748 69.7731C72.8822 50.7115 72.879 31.6498 72.8862 12.5881C72.8865 11.8701 72.7664 11.1343 73.0707 10.439C73.1275 10.3759 73.185 10.3133 73.2425 10.2506C73.6924 10.2506 74.1424 10.25 74.5922 10.2512C74.692 10.2514 74.7468 10.3293 74.7793 10.5067C74.3952 10.5067 74.0111 10.5067 73.627 10.5067C73.5842 10.5741 73.5077 10.6402 73.5045 10.7095C73.4908 11.0075 73.4986 11.3064 73.4986 11.605C73.4986 31.5251 73.4986 51.4452 73.4986 71.3653C73.4986 71.7018 73.4986 72.0383 73.4986 72.3335C73.5672 72.4029 73.5967 72.4592 73.6271 72.4596C74.011 72.4656 74.3951 72.4635 74.7792 72.4635Z" fill="#020202"/>
<path d="M11.002 10.2498C11.002 9.7806 11.002 9.31143 11.002 8.84213C11.0694 8.79929 11.1355 8.72277 11.2048 8.71957C11.5029 8.70587 11.802 8.71375 12.1007 8.71375C32.115 8.71375 52.1292 8.71343 72.1435 8.71618C72.4795 8.71624 72.8183 8.67456 73.1411 8.74269C73.1815 8.78245 73.2379 8.81204 73.2383 8.84226C73.2439 9.31143 73.2422 9.78067 73.2422 10.2498C72.7831 10.6643 72.2126 10.6077 71.6632 10.6078C51.9691 10.6134 32.2751 10.6134 12.5811 10.6078C12.0316 10.6077 11.4611 10.6642 11.002 10.2498Z" fill="#010000"/>
<path d="M11.0021 10.2507C31.7488 10.2507 52.4955 10.2507 73.2423 10.2507C73.2423 30.9432 73.2423 51.6357 73.2423 72.3283C73.1772 72.3734 73.1136 72.4542 73.0463 72.4574C72.7482 72.4717 72.449 72.4636 72.1503 72.4636C52.1316 72.4636 32.113 72.4636 12.0944 72.4636C11.7582 72.4636 11.4219 72.4636 11.1269 72.4636C11.0591 72.3901 11.0056 72.3593 11.0056 72.3284C11.002 52.3186 11.0021 32.3087 11.0021 12.2989C11.5904 12.3674 11.5683 12.8567 11.6253 13.2546C11.7099 13.8457 11.6706 14.4461 11.6706 15.0426C11.6715 32.7317 11.6705 50.4208 11.6749 68.11C11.675 68.7267 11.5932 69.3592 11.9144 70.2115C12.1976 69.3701 12.122 68.7406 12.1221 68.1281C12.1266 50.2685 12.1238 32.4088 12.1316 14.5492C12.1319 13.7485 11.9997 12.9235 12.3939 12.1615C12.5039 12.0049 12.6495 11.9589 12.8301 12.022C13.4971 13.1523 13.0879 14.3943 13.1905 15.583C13.2371 16.1233 13.2014 16.6701 13.1733 17.2135C13.2302 25.2955 13.2335 33.3773 13.1754 41.4591C13.2238 46.0699 13.2315 50.6807 13.1749 55.2915C13.2229 59.3025 13.2299 63.3135 13.1747 67.3242C13.3014 68.2854 13.0248 69.2847 13.5482 70.5182C32.5579 70.5167 51.6669 70.521 70.681 70.5148C71.2331 69.3149 70.9366 68.3124 71.0698 67.3537C71.022 63.3516 71.0142 59.3498 71.0704 55.3481C71.013 51.216 71.0521 47.0835 71.0505 42.9512C71.0504 42.5255 71.06 42.097 71.2508 41.6997C71.3338 41.5321 71.4689 41.4602 71.6545 41.4828C72.2923 42.1061 72.1054 42.9168 72.1068 43.661C72.1223 51.8515 72.1145 60.0419 72.1193 68.2323C72.1196 68.804 72.0529 69.3907 72.3311 70.1721C72.6709 69.3508 72.5701 68.7185 72.5703 68.108C72.5763 49.9355 72.5756 31.763 72.5747 13.5904C72.5747 13.0786 72.568 12.5666 72.5994 12.0556C72.5655 11.7116 72.4821 11.3886 72.2313 11.1299C71.5327 10.8236 70.7994 10.9246 70.0829 10.9244C51.1678 10.9189 32.2528 10.9223 13.3377 10.9132C12.5442 10.9128 11.7036 11.0789 11.002 10.5068C11.0021 10.4214 11.0021 10.336 11.0021 10.2507Z" fill="#6B9AD3"/>
<path d="M11.0021 10.5063C31.5964 10.5063 52.1907 10.5063 72.785 10.5079C72.8223 10.5079 72.8596 10.5322 72.8861 10.5414C72.9244 10.5776 72.9819 10.6065 72.9822 10.6361C72.9878 11.1048 72.9862 11.5737 72.9862 12.0425C72.4959 12.4782 71.8946 12.4118 71.3081 12.4156C71.0116 12.4666 70.7125 12.4582 70.4141 12.4582C51.9018 12.4593 33.3894 12.4607 14.877 12.4536C14.1629 12.4533 13.4118 12.5674 12.795 12.0425C12.7096 12.0425 12.6242 12.0425 12.5389 12.0425C12.0266 12.4687 11.5143 12.3727 11.0021 12.0425C11.0021 11.5304 11.0021 11.0184 11.0021 10.5063Z" fill="#99BADF"/>
<path d="M11.002 12.0437C11.5143 12.0437 12.0265 12.0437 12.5388 12.0437C12.5388 31.6481 12.5388 51.2525 12.5388 70.8157C12.4494 70.8807 12.417 70.9247 12.3838 70.9252C12.0452 70.9303 11.7064 70.9283 11.3984 70.9283C11.2836 70.8594 11.2558 70.7893 11.2566 70.6994C11.2601 70.3158 11.2581 69.932 11.2581 69.5483C11.2581 50.9167 11.2584 32.2851 11.256 13.6536C11.2559 13.2325 11.3002 12.8083 11.2162 12.391C11.1969 12.2948 11.0997 12.2696 11.002 12.2997C11.002 12.2144 11.002 12.1291 11.002 12.0437Z" fill="#7DA7D9"/>
<path d="M12.7949 41.4846C12.7949 33.3773 12.7949 25.27 12.7949 17.1627C13.8856 16.7215 14.0887 15.2042 15.2972 15.1188C15.7513 14.6961 15.7657 14.1644 16.1834 13.7611C16.6507 13.3872 17.3054 13.4357 17.9383 13.4353C34.0418 13.4273 50.1454 13.4281 66.249 13.4339C66.8836 13.4341 67.5314 13.4008 68.1835 13.833C68.3511 15.0821 69.8474 15.3695 70.2329 16.4645C70.6621 16.8058 71.1885 16.7924 71.5388 17.1325C71.8988 17.6616 71.8599 18.269 71.8606 18.861C71.8686 25.7981 71.8702 32.7353 71.8578 39.6725C71.8567 40.2976 71.9563 40.9649 71.4494 41.4847C71.1363 41.7884 70.6913 41.8548 70.3409 42.0945C70.0051 42.4343 69.998 42.9635 69.6514 43.2959C69.4224 43.5109 69.1335 43.6024 68.8377 43.6154C66.5494 43.7161 64.2603 43.6942 61.9715 43.6291C61.6728 43.6206 61.3856 43.5344 61.1446 43.3387C60.7139 42.7344 60.8115 42.034 60.8097 41.3612C60.7988 37.1009 60.8067 32.8406 60.8023 28.5803C60.8017 27.9441 60.8544 27.2997 60.62 26.6947C59.2605 25.6471 57.9301 24.5874 56.7523 22.9573C47.1189 22.9187 37.2919 22.9476 27.4641 23.0056C27.0781 23.252 27.0041 23.6771 26.7554 23.9548C26.287 23.8172 26.287 23.8172 25.7 22.7726C25.5682 22.7395 25.4442 22.7615 25.3567 22.8649C25.203 23.0463 25.2045 23.2474 25.3327 23.4821C25.5695 23.8309 26.1139 23.7354 26.3767 24.1011C26.3383 24.7589 25.5996 24.5102 25.3723 24.8758C25.0569 25.1919 25.1778 25.7584 24.6808 25.9233C24.0674 25.6746 24.4786 24.8424 23.8446 24.5306C23.1311 24.7257 23.4968 25.5765 23.0701 25.9522C22.9567 26.0434 22.8341 26.1101 22.6987 26.1606C22.3929 26.2993 22.0236 26.3162 21.813 26.6655C21.5824 27.2139 21.6483 27.8154 21.6475 28.4061C21.6419 32.7005 21.6495 36.995 21.6399 41.2894C21.6383 41.9622 21.7329 42.6577 21.3508 43.2794C20.8982 43.6933 20.3288 43.6508 19.7816 43.6594C18.5913 43.6779 17.4 43.6423 16.2103 43.6713C15.0324 43.7 14.0812 43.4229 13.8294 42.2158C13.4448 41.8869 13.0743 41.7512 12.7949 41.4846Z" fill="#548ACD"/>
<path d="M21.2472 43.2757C21.2472 37.5011 21.2472 31.7264 21.2472 25.9914C21.3204 25.9234 21.3509 25.8703 21.3818 25.87C21.9346 25.865 22.4874 25.8664 23.0402 25.8664C23.5937 26.4773 23.4335 27.236 23.4345 27.9427C23.447 36.7731 23.4408 45.6037 23.4457 54.4342C23.446 55.0695 23.3664 55.7171 23.6284 56.3258C23.9291 56.7309 24.4702 56.7378 24.95 57.1917C25.1289 57.367 25.2238 57.8038 25.5015 58.2212C26.2094 58.5676 27.0092 58.9203 27.2244 60.025C37.1445 60.0282 46.9864 60.0274 56.7865 60.0257C57.3201 59.1571 57.8342 58.4836 58.6576 58.3121C59.0441 57.8965 59.0685 57.37 59.4336 57.0404C59.8725 56.7195 60.3821 56.7039 60.8974 56.7127C63.5642 56.6823 66.2334 56.746 68.7119 56.6753C69.3513 56.2285 69.2722 55.5943 69.7994 55.1733C70.2802 54.8901 70.8716 54.8626 71.4491 55.3087C71.4491 59.3197 71.4491 63.3306 71.4491 67.3416C70.9569 67.7805 70.3459 67.7531 69.7519 67.7533C51.332 67.7613 32.912 67.7613 14.4921 67.7533C13.898 67.7531 13.2871 67.7805 12.7948 67.3416C12.7948 63.3306 12.7948 59.3197 12.7948 55.3087C13.245 54.9358 13.7253 54.9527 14.1108 55.1248C14.6867 55.4989 14.6572 56.1164 15.148 56.5716C16.8879 56.8157 18.7327 56.7412 20.4797 56.603C20.9457 55.9059 20.8444 55.2937 20.8464 54.7072C20.8571 51.5072 20.8456 48.3071 20.8557 45.1071C20.8577 44.4738 20.7824 43.8144 21.2472 43.2757Z" fill="#3C5CB5"/>
<path d="M12.795 67.344C32.3464 67.344 51.8979 67.344 71.4493 67.344C71.4493 68.4957 71.4493 69.6474 71.4494 70.7992C71.3821 70.8423 71.3164 70.9192 71.2472 70.9224C70.9491 70.9361 70.65 70.9282 70.3513 70.9282C51.5319 70.9282 32.7125 70.9282 13.893 70.9282C13.5564 70.9282 13.2198 70.9282 12.9293 70.9282C12.8564 70.8581 12.799 70.8287 12.7989 70.7991C12.7943 69.6474 12.795 68.4957 12.795 67.344Z" fill="#4371C5"/>
<path d="M71.4496 55.3111C70.8956 55.3111 70.3417 55.3111 69.7877 55.3111C69.7439 55.3775 69.6641 55.4432 69.6625 55.5108C69.6515 55.9791 69.6577 56.4477 69.6545 56.9162C69.6543 56.9522 69.6242 56.988 69.608 57.0238C69.5764 57.0503 69.5447 57.0999 69.513 57.1C66.658 57.1035 63.8031 57.1032 60.9481 57.1032C60.756 56.7479 60.7828 56.361 60.7857 55.9774C60.8133 52.3511 60.7826 48.7248 60.8046 45.0987C60.8084 44.4714 60.703 43.8036 61.2042 43.2782C64.0057 43.2782 66.8073 43.2782 69.6207 43.2782C69.6962 42.6604 69.621 42.1132 69.6717 41.6146C69.731 41.5489 69.7591 41.4904 69.7878 41.49C70.3417 41.4846 70.8956 41.486 71.4495 41.486C71.4496 46.0945 71.4496 50.7028 71.4496 55.3111Z" fill="#4371C5"/>
<path d="M71.4493 17.1639C70.8951 17.1639 70.3409 17.1639 69.7866 17.164C69.7431 17.0972 69.6643 17.0315 69.6622 16.9634C69.65 16.5803 69.6576 16.1965 69.6541 15.813C69.6538 15.7772 69.623 15.7416 69.6063 15.7058C69.5744 15.6798 69.5428 15.6316 69.5107 15.6312C69.0859 15.6261 68.6611 15.6278 68.2475 15.6278C68.2062 15.5865 68.155 15.56 68.1491 15.5257C68.0562 14.988 68.1931 14.4371 68.0736 13.9119C68.0235 13.8793 67.9899 13.8383 67.9563 13.8383C50.7335 13.8356 33.5106 13.8356 16.2877 13.8383C16.2542 13.8383 16.2206 13.8794 16.1663 13.9147C16.0566 14.4373 16.1822 14.9875 16.0986 15.5305C15.8343 15.7337 15.5296 15.6029 15.2446 15.6232C14.956 15.6437 14.6649 15.6277 14.3942 15.6277C14.2516 16.1554 14.4047 16.6237 14.2988 17.0605C14.2599 17.1019 14.2311 17.1595 14.2017 17.1599C13.7328 17.1655 13.2638 17.1639 12.7949 17.1639C12.7949 15.4571 12.7949 13.7503 12.7949 12.0435C32.3463 12.0435 51.8978 12.0435 71.4493 12.0435C72.0817 13.7503 72.0859 15.4571 71.4493 17.1639Z" fill="#4471C5"/>
<path d="M21.2473 43.278C21.2473 47.8576 21.2473 52.4372 21.2473 56.9775C21.175 57.0456 21.1445 57.0995 21.1139 57.0996C18.9901 57.1035 16.8663 57.1031 14.6952 57.1031C14.6115 56.9976 14.507 56.8657 14.3425 56.6582C14.3034 56.3092 14.3544 55.849 14.3232 55.4279C14.258 55.3677 14.2276 55.315 14.1965 55.3146C13.7294 55.3094 13.2621 55.311 12.7949 55.311C12.7949 50.7026 12.7949 46.0942 12.7949 41.4859C13.2624 41.4859 13.7299 41.4859 14.1975 41.4858C14.2423 41.551 14.3235 41.6151 14.3256 41.6818C14.3381 42.0637 14.3317 42.4463 14.3317 42.8303C14.4146 43.0286 14.588 43.1456 14.7439 43.2781C16.9122 43.278 19.0798 43.278 21.2473 43.278Z" fill="#4371C5"/>
<path d="M71.4493 17.1641C71.4493 15.4573 71.4493 13.7505 71.4493 12.0437C71.9616 12.0437 72.4739 12.0437 72.9861 12.0437C72.9861 31.6081 72.9861 51.1724 72.9843 70.7368C72.9843 70.7731 72.9558 70.8095 72.9406 70.8458C72.9094 70.8732 72.8785 70.9241 72.8468 70.9247C72.5067 70.9304 72.1665 70.9282 71.8374 70.9282C71.7461 70.8691 71.7055 70.8005 71.7055 70.7154C71.7055 70.3318 71.7055 69.9481 71.7055 69.5645C71.7055 60.5282 71.7059 51.492 71.7034 42.4557C71.7034 42.1627 71.7481 41.8651 71.6646 41.5771C71.6368 41.481 71.5471 41.4558 71.4493 41.4859C71.4493 33.3787 71.4493 25.2714 71.4493 17.1641Z" fill="#7DA7D9"/>
<path d="M61.2042 43.278C61.2042 47.7513 61.2042 52.2246 61.2042 56.7064C61.1216 56.7931 61.0302 56.8804 60.9512 56.9778C60.9303 57.0036 60.948 57.0605 60.948 57.1031C60.4789 57.1031 60.0099 57.1031 59.5408 57.1031C59.4112 57.3193 59.4112 57.3193 59.4112 58.4565C59.314 58.6445 59.1575 58.7768 58.9679 58.9089C58.5639 58.9089 58.1411 58.9089 57.7273 58.9089C57.5284 59.1428 57.6532 59.4067 57.6193 59.6485C57.5851 59.8923 57.6884 60.1512 57.5432 60.3807C57.5029 60.3989 57.467 60.4293 57.431 60.4293C47.1991 60.4314 36.9672 60.4313 26.7199 60.4313C26.4993 59.9474 26.7427 59.4233 26.5691 58.9386C26.105 58.8236 25.6375 58.9586 25.2268 58.8719C25.0731 58.7356 24.9464 58.6231 24.8288 58.5188C24.8288 58.072 24.8288 57.647 24.8288 57.2238C24.5713 56.9757 24.2602 57.141 23.9777 57.1058C23.6894 57.0698 23.3909 57.162 23.1105 57.0465C23.0853 57.0089 23.0432 56.9756 23.0432 56.9423C23.0403 46.5845 23.0404 36.2265 23.0404 25.8686C23.5527 25.469 24.0649 25.4689 24.5772 25.8686C24.672 25.8971 24.7521 25.8722 24.7879 25.782C24.8162 25.7106 24.8305 25.6292 24.8314 25.552C24.8357 25.1815 24.8333 24.8109 24.8333 24.4735C24.9026 24.3592 24.9711 24.3339 25.0575 24.3306C25.4665 24.3155 25.8793 24.3793 26.2837 24.286C26.3753 24.2649 26.3986 24.1712 26.3701 24.0764C26.4679 24.1065 26.5583 24.0811 26.5841 23.9849C26.6155 23.8672 26.6155 23.7408 26.6259 23.618C26.6541 23.2848 26.573 22.9458 26.6647 22.627C26.7102 22.5911 26.7424 22.5435 26.7745 22.5435C37.0095 22.5403 47.2444 22.5403 57.4795 22.5403C57.5258 22.6043 57.6099 22.667 57.612 22.7324C57.6247 23.1157 57.6182 23.4995 57.6182 23.8849C57.7025 24.083 57.8742 24.202 58.0455 24.343C58.4571 24.343 58.8807 24.343 59.2898 24.343C59.4766 24.478 59.3983 24.6613 59.4087 24.8209C59.4197 24.9907 59.4008 25.1626 59.4141 25.332C59.4268 25.4932 59.3458 25.6704 59.484 25.8153C59.7261 25.917 59.9806 25.8512 60.229 25.8677C60.4373 25.8815 60.6484 25.8454 60.7858 25.8775C60.9646 26.0316 61.0929 26.1422 61.204 26.238C61.2042 31.9392 61.2042 37.6086 61.2042 43.278Z" fill="#FFFFFD"/>
<path d="M26.3701 24.0742C25.8745 24.0742 25.3789 24.0742 24.9254 24.0742C24.8691 23.9651 24.8359 23.9306 24.8356 23.8958C24.8322 23.394 24.8333 22.8922 24.8333 22.3989C25.1787 22.2518 25.1787 22.2518 26.2984 22.3383C26.3223 22.3704 26.3668 22.4024 26.367 22.4347C26.3713 22.9812 26.3701 23.5277 26.3701 24.0742Z" fill="#4A6BBC"/>
<path d="M24.5771 25.8682C24.0649 25.8682 23.5526 25.8682 23.0403 25.8682C23.0403 25.3159 23.0403 24.7637 23.0403 24.2113C23.1051 24.1662 23.1689 24.0843 23.2352 24.0821C23.6173 24.0697 24 24.0749 24.3825 24.0779C24.4192 24.0782 24.4556 24.1048 24.4922 24.1191C24.5205 24.1498 24.5732 24.1804 24.5736 24.2114C24.5785 24.7637 24.5771 25.3159 24.5771 25.8682Z" fill="#4161B7"/>
<path d="M26.6262 43.2772C26.6262 38.121 26.6261 32.965 26.6294 27.8088C26.6294 27.7766 26.6767 27.7445 26.7038 27.7099C26.9448 27.614 27.1991 27.6789 27.4476 27.6601C27.6554 27.6444 27.8672 27.6949 28.068 27.627C28.1019 27.5931 28.158 27.5633 28.1583 27.5328C28.1641 27.1068 28.1622 26.6808 28.1622 26.2499C28.2821 26.1331 28.4039 26.0142 28.5539 25.8679C37.5572 25.8679 46.5917 25.8679 55.6261 25.8696C55.6632 25.8696 55.7003 25.8947 55.7121 25.8989C55.762 25.9432 55.821 25.971 55.8213 25.9995C55.8269 26.5107 55.8253 27.0219 55.8253 27.5327C55.894 27.5755 55.961 27.6528 56.0297 27.6544C56.4984 27.6652 56.9674 27.6589 57.4363 27.6623C57.4719 27.6626 57.5072 27.695 57.5426 27.7124C57.5678 27.7445 57.6151 27.7767 57.6151 27.8089C57.6184 32.965 57.6183 38.1211 57.6183 43.2772C55.9449 43.9874 54.2457 43.7554 52.5441 43.419C51.9931 42.8698 52.1465 42.1576 52.1145 41.4927C52.0436 40.0173 52.249 38.5287 51.9899 37.1607C51.5834 36.6897 51.0301 36.733 50.6963 36.3852C50.3935 36.0661 50.3749 35.6058 50.1406 35.2493C49.812 34.8805 49.2576 34.9508 48.9095 34.6186C48.5825 34.3095 48.5832 33.8423 48.3093 33.3974C47.6397 33.0961 47.0515 32.5727 46.6888 31.7305C43.5057 31.4588 40.3163 31.7896 37.146 31.5468C36.693 31.4725 36.243 31.2731 35.8114 31.4733C35.3337 31.7912 35.4673 32.366 35.1712 32.7293C34.8984 33.1537 34.2517 32.9654 34.0149 33.4441C33.8456 33.8883 33.9108 34.3478 33.9102 34.8037C33.9255 35.3166 33.9312 35.8263 33.6711 36.2577C33.3526 36.6966 32.816 36.6779 32.4103 36.9814C32.0558 37.4274 32.149 37.9967 32.1456 38.5371C32.1326 40.6163 32.1481 42.6956 32.1357 44.7747C32.1322 45.363 32.1995 45.9705 31.8479 46.5039C31.7309 46.6325 31.5938 46.6577 31.4378 46.5812C31.0379 46.0662 31.1139 45.4534 31.1099 44.8658C31.0954 42.7401 31.1141 40.6142 31.0973 38.4886C31.0935 37.998 31.2132 37.4634 30.7581 37.0036C30.2588 37.3006 30.3617 37.7944 30.3529 38.2197C30.3283 39.4097 30.3568 40.6005 30.3378 41.7907C30.329 42.3387 30.3704 42.906 29.9765 43.3715C28.8465 43.7915 27.7261 43.8916 26.6262 43.2772Z" fill="#548ACD"/>
<path d="M52.4956 43.2771C54.2032 43.2771 55.9107 43.2771 57.6183 43.2771C57.6183 47.2715 57.6183 51.2658 57.6183 55.2355C57.2539 55.3587 56.9576 55.2916 56.6663 55.3097C56.416 55.3253 56.1624 55.2763 55.9227 55.345C55.8865 55.38 55.8295 55.4093 55.8292 55.4391C55.8237 55.9503 55.8253 56.4616 55.8253 56.973C55.7582 57.016 55.6935 57.0908 55.6234 57.0962C55.4115 57.1126 55.1976 57.1022 54.9844 57.1022C46.417 57.1022 37.8495 57.1022 29.2821 57.1022C29.0293 57.1022 28.7765 57.1022 28.5482 57.1022C28.404 56.9586 28.2832 56.8384 28.163 56.7186C28.163 56.2916 28.163 55.8655 28.163 55.4118C27.7031 55.1642 27.1777 55.4212 26.7038 55.2597C26.678 55.2278 26.6294 55.1959 26.6294 55.164C26.626 51.2017 26.6262 47.2394 26.6262 43.2771C27.7361 43.2771 28.8461 43.2771 29.9559 43.2771C30.6339 44.055 30.0765 45.0765 30.4934 45.9424C30.724 46.2737 31.2058 46.2974 31.4927 46.6054C31.5781 46.6054 31.6635 46.6054 31.7489 46.6054C31.7931 46.6475 31.8372 46.6896 31.8821 46.731C32.09 47.0503 32.0162 47.4578 32.2409 47.8329C32.596 48.2362 33.3473 48.0512 33.671 48.6148C33.8533 48.9299 33.8463 49.3173 34.0625 49.6172C34.3234 49.928 34.7763 49.8635 34.9843 50.0678C35.4022 50.406 35.3441 50.9161 35.6974 51.2171C36.1499 51.4509 36.6575 51.3544 37.159 51.346C40.463 51.3126 43.7639 51.3118 47.0618 51.3402C47.4679 51.3711 47.8756 51.3914 48.2434 51.2564C48.6435 50.9182 48.5203 50.4826 48.5542 50.0863C48.5809 49.4826 48.4229 48.8338 48.9767 48.3627C49.7673 48.4736 49.188 49.6063 50.0307 49.7379C50.5392 49.3328 50.2959 48.7503 50.3494 48.2408C50.3812 47.6506 50.2151 47.0099 50.7861 46.5643C51.5363 46.7107 51.0075 47.7294 51.7861 47.9418C52.3528 47.5305 52.0848 46.8986 52.1254 46.3482C52.21 45.3178 51.8182 44.2324 52.4956 43.2771Z" fill="#4371C5"/>
<path d="M52.4961 43.2769C52.4961 44.3864 52.4961 45.4958 52.4961 46.6052C51.9839 47.0048 51.4716 47.0049 50.9593 46.6052C50.8655 46.5772 50.786 46.6016 50.7501 46.6902C50.7216 46.7607 50.7058 46.8413 50.7052 46.9175C50.7013 47.4107 50.7032 47.904 50.7032 48.3973C50.1909 48.7969 49.6787 48.797 49.1664 48.3973C49.0725 48.3694 48.9931 48.3938 48.9572 48.4824C48.9286 48.5529 48.9128 48.6334 48.9123 48.7096C48.9084 49.2029 48.9103 49.6962 48.9103 50.1895C48.6463 50.4951 48.1985 50.4621 47.9121 50.7278C47.6462 51.0142 47.6793 51.4618 47.3735 51.7256C43.873 51.7256 40.3725 51.7256 36.872 51.7256C36.5849 51.4657 36.5832 51.0549 36.3612 50.744C35.9508 50.4253 35.331 50.4618 34.995 49.993C34.7639 49.6968 34.7807 49.3002 34.5818 48.9935C34.3111 48.6188 33.7568 48.7491 33.589 48.4919C33.1868 48.0512 33.2616 47.5609 32.9626 47.194C32.6476 46.8679 32.0786 46.9765 31.7494 46.6052C31.7494 43.2078 31.7494 39.8103 31.7494 36.4012C32.3669 36.3238 32.9145 36.4005 33.4161 36.3491C33.4798 36.2909 33.5381 36.2626 33.5383 36.2337C33.5437 35.6799 33.5423 35.1261 33.5423 34.5723C33.804 34.2661 34.2492 34.3044 34.5368 34.0457C34.8178 33.7563 34.7369 33.3158 34.971 33.0071C35.3103 32.6095 35.7956 32.475 36.1545 32.3671C36.6149 32.0346 36.5177 31.5068 36.8721 31.244C40.3282 31.244 43.7844 31.244 47.2406 31.2439C47.285 31.3099 47.3653 31.3747 47.3675 31.4421C47.3798 31.8255 47.3722 32.2096 47.3757 32.5934C47.376 32.6294 47.4062 32.6652 47.4226 32.701C47.4544 32.7274 47.4859 32.7762 47.5179 32.7766C47.9431 32.7817 48.3683 32.78 48.7823 32.78C48.8235 32.8212 48.8748 32.8477 48.8807 32.8821C48.9734 33.4201 48.8371 33.9715 48.9629 34.5276C49.5107 34.6371 50.0612 34.5167 50.6054 34.5977C50.8108 34.8608 50.6662 35.1666 50.702 35.4509C50.7382 35.7375 50.6273 36.0379 50.7887 36.3376C51.32 36.4059 51.8683 36.3275 52.3666 36.3792C52.4331 36.4388 52.4922 36.4671 52.4922 36.4954C52.4965 38.7561 52.4961 41.0165 52.4961 43.2769Z" fill="#FFFFFD"/>
<path d="M31.4933 46.606C31.031 46.606 30.5686 46.6075 30.1063 46.6028C30.0742 46.6025 30.0426 46.5568 30.0108 46.5323C29.9927 46.4978 29.9589 46.4632 29.9588 46.4287C29.956 45.3784 29.9565 44.3281 29.9565 43.2777C29.9565 41.0189 29.9565 38.7601 29.9564 36.5012C30.0214 36.4558 30.0852 36.3732 30.1514 36.3713C30.5716 36.3593 30.9924 36.3652 31.3711 36.3652C31.4387 36.4426 31.4899 36.4739 31.4899 36.5052C31.4935 39.8722 31.4933 43.2391 31.4933 46.606Z" fill="#3E5EB6"/>
<path d="M55.8255 32.7028C55.7056 32.7517 55.6692 32.7794 55.6328 32.7795C54.6542 32.7818 53.6757 32.7818 52.6972 32.7797C52.6599 32.7797 52.6227 32.7557 52.5909 32.7448C52.5567 32.7117 52.4998 32.6822 52.4996 32.6525C52.495 31.6319 52.4958 30.6112 52.4957 29.5906C52.56 29.5447 52.6239 29.4596 52.6886 29.459C53.6671 29.4505 54.6456 29.4527 55.6241 29.4547C55.6614 29.4548 55.6986 29.4788 55.7304 29.4896C55.7646 29.5228 55.8216 29.5523 55.8217 29.582C55.8263 30.6027 55.8255 31.6233 55.8255 32.7028Z" fill="#FEFFFD"/>
<path d="M36.8719 31.2444C36.8719 31.7006 36.8732 32.1568 36.8693 32.613C36.8691 32.6463 36.8319 32.6794 36.8118 32.7125C36.7798 32.7352 36.7478 32.7772 36.7155 32.7776C36.3006 32.782 35.8857 32.7805 35.4283 32.7805C35.3665 32.8508 35.2891 32.948 35.2004 33.0335C35.179 33.0542 35.1204 33.0365 35.079 33.0365C34.5667 33.4362 34.0544 33.4361 33.5422 33.0365C33.5127 32.9401 33.5387 32.8588 33.6316 32.8233C33.7048 32.7953 33.7879 32.7832 33.8669 32.7823C34.2414 32.7783 34.616 32.7805 34.9509 32.7805C35.019 32.7125 35.0744 32.683 35.0747 32.6529C35.0804 32.2317 35.0786 31.8103 35.0786 31.3586C35.189 31.263 35.3157 31.1535 35.4804 31.0111C35.7119 30.9517 36.0044 31.0013 36.2943 30.9893C36.4205 30.9841 36.5473 30.9854 36.6735 30.9902C36.7107 30.9916 36.7488 31.0113 36.7832 31.0289C36.8726 31.0744 36.9014 31.1479 36.8719 31.2444Z" fill="#4061B7"/>
<path d="M33.2861 36.0404C33.1591 36.084 33.1221 36.1075 33.0849 36.1077C32.7036 36.1105 32.3222 36.1106 31.9409 36.1075C31.9046 36.1071 31.8686 36.0795 31.8324 36.0645C31.8047 36.0336 31.7533 36.003 31.7529 35.9718C31.7476 35.5484 31.7493 35.1249 31.7493 34.7014C32.0011 34.5545 32.0011 34.5545 33.203 34.6182C33.2307 34.6491 33.2821 34.6797 33.2825 34.7109C33.2878 35.1343 33.2861 35.5579 33.2861 36.0404Z" fill="#4768BA"/>
<path d="M33.5422 33.0369C34.0545 33.0369 34.5668 33.0369 35.079 33.0369C35.079 33.4948 35.0804 33.9527 35.0763 34.4106C35.076 34.4435 35.0363 34.4762 35.015 34.509C34.9822 34.5303 34.9496 34.5699 34.9166 34.5702C34.4585 34.5743 34.0004 34.573 33.5422 34.573C33.5422 34.0609 33.5422 33.5489 33.5422 33.0369Z" fill="#3E5FB6"/>
<path d="M36.8716 52.0245C38.1758 51.9689 46.0807 51.9692 47.2776 52.0208C47.3116 52.0532 47.3687 52.0821 47.3691 52.1118C47.3749 52.5376 47.373 52.9636 47.3731 53.3896C47.3059 53.4326 47.2387 53.513 47.1714 53.5131C43.8053 53.5193 40.439 53.5186 37.0729 53.5169C37.0356 53.5169 36.9983 53.4927 36.9702 53.483C36.9332 53.4477 36.876 53.4187 36.8756 53.389C36.8698 52.9631 36.8716 52.5373 36.8716 52.0245Z" fill="#425FB6"/>
<path d="M31.7493 46.6057C32.208 46.6057 32.6666 46.6057 33.1453 46.6057C33.2535 46.7085 33.3722 46.8212 33.5226 46.964C33.5724 47.3824 33.5165 47.8354 33.5561 48.2837C33.6064 48.3635 33.6743 48.3954 33.759 48.3988C34.1701 48.4153 34.5849 48.3518 34.9918 48.4435C35.0842 48.4643 35.1078 48.5585 35.079 48.6538C34.5667 49.0534 34.0545 49.0535 33.5422 48.6538C33.5007 48.6538 33.4419 48.6715 33.4205 48.6507C33.332 48.5647 33.2549 48.4671 33.1946 48.3978C32.7337 48.3978 32.3179 48.3993 31.9023 48.3947C31.8702 48.3944 31.8385 48.3507 31.8067 48.3272C31.7876 48.2936 31.752 48.26 31.7517 48.2263C31.7483 47.6862 31.7493 47.146 31.7493 46.6057Z" fill="#4A64B9"/>
<path d="M35.0789 49.9352C35.1204 49.9352 35.1789 49.9175 35.2003 49.9382C35.289 50.0238 35.3664 50.1209 35.4282 50.1912C35.9189 50.1912 36.367 50.1912 36.7707 50.1912C36.8317 50.2923 36.8689 50.3253 36.8692 50.3587C36.873 50.8149 36.8717 51.2711 36.8717 51.7273C36.3276 51.7273 35.7834 51.7284 35.2392 51.7244C35.2063 51.7242 35.1737 51.6833 35.1409 51.6614C35.1202 51.6281 35.0818 51.595 35.0815 51.5615C35.0774 51.1444 35.0788 50.7272 35.0788 50.3152C35.0025 50.2703 34.9372 50.2009 34.8675 50.1961C34.4554 50.1677 34.0386 50.2365 33.6299 50.1462C33.5369 50.1257 33.513 50.0309 33.542 49.9352C34.0543 49.5357 34.5666 49.5355 35.0789 49.9352Z" fill="#3F5FB7"/>
<path d="M49.1664 48.3987C49.6787 48.3987 50.191 48.3987 50.7032 48.3987C50.7032 48.951 50.7032 49.5033 50.7033 50.0555C50.6384 50.1007 50.5747 50.1826 50.5084 50.1848C50.1263 50.1972 49.7436 50.192 49.3611 50.1889C49.3244 50.1886 49.288 50.1621 49.2514 50.1477C49.2231 50.117 49.1703 50.0865 49.17 50.0555C49.1651 49.5033 49.1664 48.951 49.1664 48.3987Z" fill="#4662B8"/>
<path d="M50.9593 46.6057C51.4715 46.6057 51.9838 46.6057 52.4961 46.6057C52.4961 47.158 52.4961 47.7103 52.4961 48.2626C52.4313 48.3077 52.3676 48.3896 52.3012 48.3918C51.9191 48.4043 51.5364 48.399 51.1539 48.3959C51.1172 48.3956 51.0808 48.3691 51.0442 48.3548C51.0159 48.324 50.9632 48.2935 50.9629 48.2625C50.9579 47.7103 50.9593 47.158 50.9593 46.6057Z" fill="#4662B8"/>
<path d="M47.3734 51.7261C47.3734 51.2682 47.372 50.8103 47.3761 50.3524C47.3765 50.3194 47.4161 50.2867 47.4374 50.2539C47.4702 50.2326 47.5029 50.193 47.5358 50.1927C47.9939 50.1886 48.452 50.1899 48.9102 50.1899C48.9102 50.6478 48.9115 51.1057 48.9074 51.5636C48.9071 51.5966 48.8675 51.6292 48.8461 51.662C48.8134 51.6834 48.7807 51.723 48.7477 51.7233C48.2896 51.7274 47.8315 51.7261 47.3734 51.7261Z" fill="#3D5CB5"/>
<path d="M35.079 49.9341C34.5668 49.9341 34.0545 49.9341 33.5422 49.9341C33.5422 49.5074 33.5422 49.0808 33.5422 48.6541C34.0545 48.6541 34.5668 48.6541 35.079 48.6541C35.079 49.0808 35.079 49.5075 35.079 49.9341Z" fill="#405EB7"/>
<path d="M35.3348 44.8139C35.2371 44.844 35.1549 44.8175 35.1195 44.7226C35.0918 44.6483 35.0803 44.5638 35.0803 44.4839C35.0782 42.4819 35.0782 40.4799 35.0805 38.478C35.0806 38.3989 35.1082 38.3199 35.1231 38.2409C35.1543 38.2131 35.1852 38.1613 35.2165 38.161C35.7271 38.156 36.2379 38.1574 36.7456 38.1574C37.0024 37.9023 36.8423 37.5906 36.8661 37.3084C36.8905 37.0188 36.8715 36.7256 36.8715 36.4787C36.96 36.4134 36.9924 36.3687 37.0253 36.3684C37.5344 36.364 38.0436 36.3653 38.5383 36.3653C38.7481 36.1814 38.6429 35.956 38.6613 35.7562C38.6767 35.5872 38.6534 35.4148 38.6673 35.2456C38.684 35.0416 38.5996 34.8259 38.722 34.6398C38.7657 34.6139 38.7999 34.5758 38.8341 34.5758C41.0471 34.5729 43.2601 34.5733 45.4553 34.5733C45.6649 34.7645 45.5574 34.9893 45.5766 35.1893C45.593 35.3581 45.5681 35.5308 45.583 35.6999C45.601 35.9032 45.5103 36.1201 45.6626 36.3333C46.1894 36.4166 46.7379 36.3227 47.261 36.3816C47.3073 36.4278 47.3634 36.4577 47.3637 36.4882C47.3691 36.9985 47.3675 37.5089 47.3675 38.0157C47.4369 38.0656 47.4998 38.1492 47.5654 38.1514C47.9486 38.164 48.3323 38.1564 48.7158 38.1595C48.7525 38.1598 48.7889 38.1868 48.8255 38.2014C48.8535 38.2324 48.9061 38.2634 48.9062 38.2943C48.9101 39.9556 48.9097 41.6167 48.9097 43.2779C48.3735 43.7416 47.7162 43.6701 47.0844 43.6722C43.9786 43.6823 40.8728 43.6734 37.7669 43.679C37.2168 43.68 36.6587 43.6302 36.1352 43.8353C35.7193 44.0484 35.6918 44.5658 35.3348 44.8139Z" fill="#548ACD"/>
<path d="M35.3349 44.8131C35.3349 44.346 35.3349 43.879 35.3349 43.4119C35.3998 43.3669 35.4647 43.2829 35.5298 43.2826C37.5687 43.2757 39.6075 43.2769 41.6464 43.2769C44.0676 43.2769 46.4888 43.2769 48.91 43.2769C48.91 43.8288 48.91 44.3807 48.91 44.9327C48.8456 44.9782 48.7823 45.0608 48.7165 45.063C48.3346 45.0755 47.9522 45.0679 47.5699 45.0709C47.5331 45.0711 47.4964 45.0968 47.4597 45.1106C47.4309 45.1411 47.3773 45.1713 47.3769 45.2022C47.3714 45.6266 47.3732 46.0512 47.3733 46.4758C47.3065 46.5189 47.2406 46.5978 47.1727 46.5994C46.7058 46.6103 46.2385 46.6041 45.7713 46.6071C45.7351 46.6074 45.699 46.6355 45.6628 46.6507C45.6353 46.6818 45.5841 46.7126 45.5838 46.7439C45.5788 47.2531 45.5803 47.7622 45.5803 48.2702C45.5107 48.3134 45.4432 48.3918 45.3755 48.392C43.1711 48.3984 40.9667 48.3972 38.7792 48.3972C38.5639 48.1022 38.7005 47.7992 38.6658 47.5157C38.6309 47.2301 38.7399 46.9314 38.5766 46.6257C38.0503 46.5722 37.5052 46.6326 36.9807 46.5942C36.7879 46.3491 36.9055 46.0881 36.8725 45.8465C36.8393 45.6038 36.9434 45.3457 36.7879 45.1064C36.3413 44.9942 35.8737 45.1477 35.4255 45.0273C35.3299 45.0018 35.305 44.9104 35.3349 44.8131Z" fill="#4371C5"/>
<defs>
<linearGradient id="paint0_linear_30_2450" x1="41.7595" y1="3.59644" x2="41.7595" y2="43.3167" gradientUnits="userSpaceOnUse">
<stop stop-color="#DF8B1D"/>
<stop offset="1" stop-color="#ECB523"/>
</linearGradient>
<linearGradient id="paint1_linear_30_2450" x1="41.8886" y1="41.0681" x2="41.8886" y2="81.5997" gradientUnits="userSpaceOnUse">
<stop stop-color="#DF8B1D"/>
<stop offset="1" stop-color="#ECB523"/>
</linearGradient>
</defs>
</svg>
