<svg width="84" height="87" viewBox="0 0 84 87" fill="none" xmlns="http://www.w3.org/2000/svg">
<path d="M4.08525 0.256925C4.05509 0.15908 4.08173 0.0767952 4.17688 0.0415121C4.25142 0.0138491 4.33595 0.00412013 4.41631 0.00264733C4.67232 -0.00202719 4.92839 0.000912022 5.18447 0.000912022C29.8095 0.000912022 54.4346 0.000912022 79.0596 0.000912022C79.3963 0.000912022 79.7329 0.000912022 80.0278 0.000912022C80.0976 0.0696211 80.1542 0.0992103 80.1545 0.129435C80.1598 0.683974 80.1583 1.23858 80.1583 1.79311C80.5801 2.28849 80.5243 2.88477 80.516 3.47011C80.5418 3.88512 80.4581 4.31333 80.6569 4.72129C80.9513 5.15449 81.6335 5.0127 81.8888 5.52344C82.1453 6.62785 82.3014 7.72586 81.728 8.78807C81.2523 9.10421 80.7667 9.06168 80.3511 8.87854C79.8549 8.54351 79.8095 8.02701 79.4782 7.57429C78.8221 7.21339 77.9716 6.92797 77.7268 5.78374C53.926 5.7838 30.1888 5.78336 6.5502 5.78407C5.87053 6.47936 5.59224 7.34043 4.81134 7.4498C4.46785 7.92045 4.42168 8.3744 4.0887 8.74945C3.58763 9.12559 2.97943 9.20762 2.3243 9.04036C1.61972 7.93941 1.90083 6.7638 2.06361 5.59798C2.31879 5.00227 2.99647 5.1459 3.41545 4.83226C3.82393 4.48756 3.70994 3.89198 4.04938 3.50989C4.17502 3.41076 4.31257 3.34109 4.46484 3.29377C5.26656 3.10948 6.07973 3.17568 6.88753 3.17549C30.2488 3.17164 53.6101 3.17332 76.9714 3.16845C77.6893 3.16832 78.4218 3.26431 79.1054 2.98762C79.4811 2.66124 79.4595 2.21919 79.512 1.80342C79.4792 1.45801 79.3965 1.13432 79.1356 0.873759C78.3966 0.566905 77.6194 0.675766 76.859 0.675573C53.424 0.66981 29.9889 0.672961 6.55378 0.663035C5.71807 0.662843 4.83119 0.852831 4.08525 0.256925Z" fill="url(#paint0_linear_30_2635)"/>
<path d="M81.6955 8.7058C81.6955 7.59634 81.6955 6.48687 81.6955 5.37747C81.2896 4.86494 81.3032 4.31379 81.544 3.74126C81.594 3.68901 81.6447 3.63715 81.6955 3.58528C82.25 3.58528 82.8044 3.58527 83.3589 3.58521C83.4021 3.65225 83.4804 3.71827 83.4826 3.78666C83.4947 4.16997 83.4884 4.55387 83.4884 4.93756C83.4884 30.9428 83.4884 56.9481 83.4884 82.9533C82.9158 83.1989 82.3311 83.0324 81.8065 83.0696C81.3112 82.6252 81.3414 82.1078 81.3326 81.6018C81.3316 81.4468 81.3334 81.2913 81.3331 81.1361C81.3009 80.5945 81.3306 80.0526 81.3311 79.5103C81.2827 78.3151 81.2983 77.1203 81.3196 75.9246C81.2317 67.7191 81.2976 59.5143 81.2846 51.3096C81.2804 48.6317 81.2349 45.9533 81.3141 43.2755C81.2347 35.1321 81.299 26.9887 81.2802 18.8454C81.2738 16.074 81.2723 13.3026 81.2842 10.5312C81.287 9.89717 81.2262 9.23914 81.6955 8.7058Z" fill="#020201"/>
<path d="M2.29297 5.37739C2.29297 6.57215 2.29297 7.76697 2.29297 8.96173C2.71265 9.35798 2.69716 9.88806 2.69716 10.3931C2.69613 21.3454 2.75191 32.2978 2.67436 43.25C2.75043 53.3305 2.68813 63.4111 2.70542 73.4917C2.70683 74.2991 2.74812 75.1078 2.67032 75.9136C2.69273 77.1252 2.71054 78.3377 2.66322 79.5497C2.68524 80.1897 2.69037 80.8298 2.6611 81.4703C2.68307 81.9819 2.6873 82.4895 2.29918 82.9845C1.73132 83.1084 1.11825 83.1723 0.5 82.9532C0.5 56.5643 0.500002 30.1754 0.501602 3.78639C0.501602 3.74912 0.525809 3.71179 0.535222 3.68451C0.571082 3.64679 0.600088 3.58942 0.629672 3.5891C1.18402 3.58372 1.73849 3.58513 2.29297 3.58513C2.3426 3.63757 2.39222 3.69003 2.44268 3.74202C2.68492 4.31379 2.69895 4.86486 2.29297 5.37739Z" fill="#020202"/>
<path d="M80.1597 84.7456C80.1597 85.28 80.1601 85.8144 80.1593 86.3488C80.1591 86.4502 80.0808 86.5062 79.9035 86.5377C79.5975 86.2276 79.5063 85.7877 79.2265 85.419C78.5407 85.0268 77.7576 85.1663 77.0038 85.1661C53.5195 85.1588 30.0352 85.1622 6.55094 85.1522C5.71664 85.1519 4.83104 85.3411 4.08651 84.7456C3.71127 84.2938 3.72894 83.7786 3.84305 83.2454C3.89197 83.09 3.97457 82.9567 4.08964 82.8409C4.2277 82.7467 4.37691 82.6815 4.53814 82.6396C5.17081 82.5067 5.81211 82.5416 6.45034 82.5416C30.2331 82.5386 54.0159 82.5387 77.7987 82.5413C78.3946 82.5413 78.9926 82.5129 79.5853 82.6084C79.7498 82.6419 79.9065 82.6996 80.0558 82.7759C80.198 82.8666 80.3023 82.9912 80.3703 83.1455C80.5498 83.7107 80.5584 84.2551 80.1597 84.7456Z" fill="#975143"/>
<path d="M4.08586 84.7454C29.2911 84.7454 54.4963 84.7454 79.7016 84.747C79.7389 84.747 79.7762 84.7712 79.8032 84.7805C79.8411 84.8165 79.8986 84.8454 79.8989 84.875C79.9042 85.4291 79.9028 85.9833 79.9028 86.5375C54.6975 86.5375 29.4923 86.5375 4.28706 86.5359C4.24979 86.5359 4.21246 86.5117 4.18537 86.5023C4.14746 86.4664 4.09003 86.4374 4.08977 86.4079C4.08446 85.8538 4.08586 85.2996 4.08586 84.7454Z" fill="#070707"/>
<path d="M4.08569 0.256348C29.2909 0.256348 54.496 0.256341 79.7012 0.257942C79.7385 0.257942 79.7759 0.282021 79.8044 0.291882C79.8412 0.327037 79.8984 0.356048 79.8987 0.385824C79.9043 0.854685 79.9027 1.32361 79.9027 1.79254C79.201 2.36699 78.3592 2.20132 77.5647 2.20184C62.209 2.21144 46.8532 2.20882 31.4976 2.20882C23.1372 2.20882 14.7769 2.21157 6.41655 2.20427C5.69777 2.20363 4.96098 2.30077 4.27581 1.96702C4.2121 1.90952 4.1489 1.85106 4.08569 1.7926C4.08569 1.28045 4.08569 0.768432 4.08569 0.256348Z" fill="#050303"/>
<path d="M80.1599 83.2094C80.1599 83.1241 80.1599 83.0388 80.1599 82.9534C79.7633 82.4656 79.7976 81.9593 80.0588 81.4529C80.6225 81.01 81.1566 81.0128 81.6967 81.4172C81.6967 81.876 81.6954 82.3348 81.6996 82.7936C81.6999 82.8264 81.7408 82.8588 81.7628 82.8914C81.796 82.912 81.829 82.9505 81.8623 82.9507C82.4047 82.9545 82.9472 82.9534 83.4897 82.9534C83.5182 83.0481 83.4932 83.1282 83.403 83.164C83.3316 83.1923 83.2501 83.2066 83.1728 83.2075C82.8022 83.2118 82.4314 83.2095 82.0938 83.2095C81.9795 83.2788 81.9542 83.3472 81.951 83.4335C81.9359 83.8424 81.9997 84.2549 81.9064 84.6593C81.8852 84.7508 81.7915 84.7741 81.6967 84.7457C81.3907 84.4817 81.4246 84.0339 81.1586 83.7474C80.8719 83.4816 80.4239 83.5152 80.1599 83.2094Z" fill="#904A3E"/>
<path d="M4.08594 82.9528C4.08594 83.0381 4.08594 83.1234 4.08594 83.2088C3.4883 83.6563 2.8906 83.6565 2.29297 83.2088C1.75834 83.2088 1.22366 83.2092 0.689032 83.2084C0.587665 83.2082 0.531569 83.13 0.5 82.9528C1.04244 82.9528 1.58493 82.9539 2.12737 82.9501C2.16067 82.9498 2.19372 82.9114 2.22689 82.8908C2.24891 82.8582 2.28983 82.8258 2.29015 82.793C2.29432 82.3342 2.29297 81.8754 2.29297 81.4166C2.75991 81.041 3.25848 81.0251 3.7819 81.2844C4.2742 81.7686 4.18314 82.3601 4.08594 82.9528Z" fill="#934F41"/>
<path d="M2.29311 3.58531C2.29311 3.04224 2.29202 2.49909 2.29586 1.95595C2.29612 1.92284 2.33582 1.89006 2.35715 1.85708C2.39012 1.83576 2.42291 1.79606 2.45601 1.79586C2.99935 1.79202 3.54268 1.79311 4.08608 1.79311C4.53387 2.39049 4.53387 2.98787 4.08608 3.58531C3.48845 4.03292 2.89075 4.03292 2.29311 3.58531Z" fill="#15100D"/>
<path d="M80.1592 3.58538C80.1592 2.988 80.1592 2.39062 80.1592 1.79318C80.6182 1.79318 81.0772 1.79183 81.5362 1.79599C81.569 1.79631 81.6014 1.83717 81.634 1.8592C81.6547 1.89237 81.6931 1.92534 81.6934 1.95864C81.6972 2.50089 81.6961 3.04306 81.6961 3.5853C81.1837 3.98494 80.6715 3.98496 80.1592 3.58538Z" fill="#0B0605"/>
<path d="M2.29317 83.21C2.89081 83.21 3.4885 83.21 4.08614 83.21C4.08614 83.722 4.08614 84.234 4.08614 84.7461C3.5437 84.7461 3.00121 84.7472 2.45877 84.7434C2.42547 84.7432 2.39242 84.7048 2.35925 84.6841C2.33723 84.6515 2.29631 84.6191 2.29606 84.5863C2.29183 84.1276 2.29317 83.6688 2.29317 83.21Z" fill="#070504"/>
<path d="M80.1592 83.2099C80.6173 83.2099 81.0754 83.2086 81.5335 83.2127C81.5665 83.2129 81.5992 83.2526 81.632 83.2739C81.6533 83.3067 81.693 83.3393 81.6933 83.3723C81.6973 83.8302 81.696 84.2881 81.696 84.746C81.1837 84.746 80.6715 84.746 80.1592 84.746C80.1592 84.234 80.1592 83.7219 80.1592 83.2099Z" fill="black"/>
<path d="M2.29297 43.27C2.29297 31.8342 2.29297 20.3984 2.29297 8.96258C2.33568 8.96258 2.39267 8.98031 2.41847 8.95943C2.51613 8.88048 2.6036 8.78898 2.69838 8.69882C3.12388 8.69882 3.54869 8.69882 3.96555 8.69882C4.00352 8.66085 4.05712 8.63306 4.06038 8.60021C4.11411 8.0595 4.06788 7.51303 4.09093 7.01049C4.18884 6.95408 4.2231 6.91724 4.25774 6.91692C4.68056 6.91295 5.10345 6.91436 5.49464 6.91436C5.55572 6.85327 5.61175 6.82343 5.6122 6.79289C5.61796 6.36719 5.61611 5.94136 5.61611 5.52008C5.68719 5.46974 5.75007 5.38772 5.81673 5.38452C6.11488 5.37017 6.41405 5.37823 6.71289 5.37823C30.2339 5.37823 53.7549 5.37823 77.2759 5.37823C77.6119 5.37823 77.948 5.37823 78.2424 5.37823C78.3101 5.45341 78.362 5.48421 78.3625 5.51565C78.3679 5.94135 78.3661 6.36719 78.3661 6.78931C78.4412 6.83356 78.5089 6.90687 78.5787 6.90892C78.9625 6.92038 79.3469 6.91436 79.7583 6.91436C79.8655 7.01464 79.9873 7.1285 80.1188 7.25157C80.2391 7.69559 80.0871 8.16445 80.1946 8.61378C80.2269 8.64618 80.2567 8.70227 80.2873 8.70265C80.7568 8.70823 81.2263 8.70656 81.6959 8.70656C81.6959 20.2277 81.6959 31.7489 81.6959 43.2701C80.0094 44.0197 78.3106 43.6634 76.8069 43.4992C76.2744 43.0308 76.2267 42.5743 75.9986 42.217C75.7417 41.8554 75.2578 41.7984 74.8763 41.3189C74.5617 40.8506 74.6814 40.1504 74.6808 39.4797C74.6725 30.5718 74.6777 21.6638 74.6705 12.7559C74.67 12.2136 74.7988 11.6384 74.4037 11.1615C74.0317 10.7723 73.3797 10.8445 73.0664 10.3583C72.8502 10.0429 72.7957 9.63616 72.4979 9.2225C52.2725 9.11441 32.048 9.11498 11.8214 9.19381C11.4114 9.52679 11.4105 10.0135 11.1767 10.3584C10.7906 10.9767 10.0057 10.6866 9.52446 11.0879C9.17829 11.6416 9.3207 12.256 9.32006 12.8412C9.3102 21.672 9.3157 30.5028 9.30885 39.3337C9.30834 40.0091 9.40817 40.7022 9.06405 41.4261C8.31286 41.8252 7.77497 42.5128 7.37341 43.4781C5.68155 43.6632 3.98124 44.0187 2.29297 43.27Z" fill="#E9C95C"/>
<path d="M4.08569 3.58517C4.08569 2.98779 4.08569 2.39041 4.08569 1.79297C29.358 1.79297 54.6303 1.79297 79.9026 1.79297C79.9026 2.34712 79.9026 2.90133 79.9027 3.45562C79.8357 3.49884 79.7696 3.57716 79.7012 3.57934C79.3178 3.59144 78.9337 3.58517 78.5499 3.58517C53.7285 3.58517 28.9071 3.58517 4.08569 3.58517Z" fill="#EDE0AD"/>
<path d="M2.29297 3.58521C2.8906 3.58521 3.4883 3.58521 4.08594 3.58521C4.08594 4.04145 4.08594 4.49763 4.08594 5.03097C3.98329 5.13355 3.84203 5.27474 3.73938 5.37739C3.20578 5.37739 2.74941 5.37739 2.29297 5.37739C2.29297 4.78001 2.29297 4.18258 2.29297 3.58521Z" fill="#E8DBA5"/>
<path d="M80.1593 3.58521C80.6716 3.58521 81.1839 3.58521 81.6962 3.58521C81.6962 4.18258 81.6962 4.77995 81.6962 5.37739C81.2372 5.37739 80.7782 5.37874 80.3192 5.37452C80.2864 5.3742 80.2539 5.33334 80.2213 5.31131C80.2006 5.27814 80.1622 5.24516 80.162 5.21186C80.1582 4.66968 80.1593 4.12745 80.1593 3.58521Z" fill="#EBDFAA"/>
<path d="M74.7801 10.4981C74.8779 10.468 74.9675 10.4932 74.9954 10.5893C75.079 10.8773 75.0342 11.1748 75.0343 11.4679C75.0368 21.0155 75.0363 30.5632 75.0363 40.1108C75.0363 40.5333 75.0363 40.9559 75.0363 41.3571C75.2857 41.566 75.5493 41.4424 75.7913 41.4763C76.0351 41.5104 76.2943 41.4063 76.5265 41.555C76.6192 41.845 76.5549 42.1412 76.5731 42.4328C76.5886 42.6827 76.5367 42.9364 76.613 43.1812C76.6454 43.2117 76.676 43.2656 76.7068 43.2657C78.3698 43.2697 80.0329 43.2693 81.6959 43.2693C81.6959 54.1931 81.6959 65.1169 81.6959 76.0406C81.4295 76.3316 81.0045 76.3548 80.7887 76.5391C80.426 76.9488 80.5249 77.4417 80.2443 77.779C79.9263 78.182 79.3745 78.0819 78.9956 78.3566C78.6148 78.6836 78.7442 79.2505 78.4102 79.5981C78.0757 80.0378 77.3168 79.8174 77.0287 80.495C77.7484 81.0055 78.4834 80.7927 79.0748 80.7295C79.6975 80.463 79.4943 79.661 80.1402 79.5777C80.4714 79.8158 80.426 80.2499 80.6449 80.5472C80.9158 80.8873 81.4151 80.8378 81.6959 81.1612C81.6959 81.2465 81.6959 81.3319 81.6959 81.4172C81.2378 81.4172 80.7796 81.4158 80.3215 81.4199C80.2886 81.4203 80.2559 81.4599 80.2231 81.4812C80.2018 81.514 80.1621 81.5466 80.1618 81.5797C80.1578 82.0376 80.1591 82.4955 80.1591 82.9534C80.0737 82.9534 79.9883 82.9534 79.9029 82.9534C79.627 82.6851 79.4848 82.311 79.1943 81.9229C54.43 81.8288 29.6676 81.8286 5.17344 81.8289C4.51491 82.2123 4.39868 82.6665 4.086 82.9534C3.99277 82.9811 3.91369 82.957 3.8777 82.8693C3.84901 82.7994 3.83268 82.7195 3.83185 82.6438C3.82756 82.235 3.8298 81.8261 3.8298 81.4173C3.77838 81.172 3.92854 81.0515 4.11443 80.9532C4.99996 80.6007 6.03995 81.1023 6.9121 80.5131C6.71609 79.7669 5.90836 80.0674 5.62975 79.6612C5.27935 79.2982 5.34275 78.8173 5.09839 78.4671C4.82592 78.115 4.31723 78.1488 4.03343 77.8155C3.739 77.4915 3.79035 77.0087 3.48664 76.6467C3.17197 76.3375 2.62063 76.4031 2.29297 76.0407C2.29297 65.117 2.29297 54.1932 2.29297 43.2694C3.95505 43.2694 5.6172 43.2694 7.27934 43.2695C7.32487 43.2048 7.40741 43.1412 7.40959 43.075C7.42214 42.692 7.41574 42.3085 7.41574 41.8959C7.4815 41.8201 7.55815 41.7243 7.64306 41.6364C7.69999 41.5775 7.76863 41.5298 7.84483 41.4665C8.17007 41.4665 8.5081 41.4665 8.83519 41.4665C8.87611 41.4256 8.93124 41.3965 8.93252 41.3652C8.94443 41.0695 8.95186 40.7734 8.95186 40.4775C8.95269 30.8074 8.95212 21.1373 8.95455 11.4672C8.95461 11.1744 8.90973 10.877 8.99349 10.5892C9.0214 10.4932 9.11099 10.468 9.20864 10.4981C9.75396 11.169 9.56217 11.9689 9.56256 12.7184C9.57197 32.5997 9.57242 52.481 9.57101 72.3592C9.5947 72.8823 9.50141 73.4241 9.735 73.8774C10.1601 74.2533 10.748 74.1424 11.1036 74.5342C11.2034 74.6547 11.2797 74.7861 11.3392 74.9292C11.5431 75.4507 11.9859 75.5673 12.4747 75.6047C12.9434 75.6405 13.413 75.6294 13.8823 75.6295C32.8296 75.6301 51.7769 75.6301 70.7242 75.6289C71.2783 75.6289 71.8344 75.6591 72.3781 75.5489C72.9424 75.4302 72.9142 74.851 73.0958 74.6011C73.4526 74.2137 73.8794 74.2174 74.201 73.9508C74.5253 73.4861 74.3953 72.9319 74.3906 72.3923C74.3323 61.4832 74.3743 50.5774 74.3652 39.6717C74.3577 30.6829 74.3601 21.694 74.3698 12.7051C74.3705 11.9519 74.2299 11.1563 74.7801 10.4981Z" fill="url(#paint1_linear_30_2635)"/>
<path d="M80.1592 79.6246C80.062 79.5947 79.9719 79.6198 79.9461 79.7152C79.9145 79.8321 79.9131 79.9577 79.9036 80.0798C79.8779 80.4123 79.9506 80.7494 79.8682 81.0689C79.8259 81.1061 79.7948 81.1572 79.7636 81.1573C78.7451 81.1615 77.7266 81.1607 76.708 81.1608C76.663 81.0959 76.5811 81.0321 76.5793 80.9659C76.5673 80.5474 76.5732 80.1283 76.5732 79.7502C76.6455 79.6821 76.6758 79.6287 76.7066 79.6283C77.2158 79.6231 77.7251 79.6246 78.2344 79.6247C78.2784 79.5588 78.3588 79.4937 78.3604 79.4267C78.3714 78.9604 78.3652 78.4937 78.3681 78.0271C78.3683 77.9905 78.3948 77.9541 78.4091 77.9176C78.4398 77.8892 78.4702 77.8364 78.5012 77.8361C79.0104 77.8309 79.5197 77.8324 80.029 77.8325C80.0724 77.7661 80.1519 77.7004 80.1534 77.6331C80.1644 77.1667 80.1582 76.7 80.1611 76.2334C80.1614 76.1971 80.1885 76.1607 80.2032 76.1244C80.234 76.0963 80.2645 76.0442 80.2957 76.0439C80.7624 76.0386 81.2293 76.0403 81.6961 76.0403C81.6961 77.235 81.6961 78.4299 81.6961 79.6247C81.1838 80.0241 80.6715 80.0241 80.1592 79.6246Z" fill="#C87536"/>
<path d="M80.1591 79.6257C80.6714 79.6257 81.1837 79.6257 81.696 79.6257C81.696 80.1378 81.696 80.6498 81.696 81.1618C81.2379 81.1618 80.7797 81.1632 80.3216 81.1591C80.2886 81.1588 80.256 81.1192 80.2232 81.0978C80.2019 81.065 80.1622 81.0324 80.1619 80.9994C80.1578 80.5415 80.1591 80.0836 80.1591 79.6257Z" fill="#EBD8A0"/>
<path d="M2.29297 76.04C2.7594 76.04 3.22582 76.04 3.71076 76.04C3.81539 76.1554 3.92873 76.2806 4.08517 76.4531C4.08722 76.8474 4.08504 77.3039 4.0862 77.7158C4.17072 77.782 4.20241 77.8286 4.23475 77.829C4.65757 77.8339 5.08039 77.8322 5.4947 77.8322C5.53325 77.8707 5.58812 77.8997 5.58947 77.9308C5.61259 78.4706 5.62917 79.0106 5.6464 79.5265C5.70787 79.5744 5.73976 79.621 5.77204 79.6212C6.27977 79.6258 6.78756 79.6244 7.29132 79.6244C7.44385 79.9136 7.44385 79.9136 7.36246 81.0859C7.33038 81.1108 7.29836 81.1574 7.26622 81.1575C6.20613 81.1613 5.14609 81.1606 4.086 81.1606C3.77562 80.9056 3.80585 80.4613 3.55836 80.1887C3.18055 79.8712 2.62396 80.0006 2.29303 79.6244C2.29297 78.4296 2.29297 77.2348 2.29297 76.04Z" fill="#C87536"/>
<path d="M2.29297 79.6259C2.83541 79.6259 3.3779 79.6248 3.92034 79.6286C3.95364 79.6288 3.98668 79.6672 4.01985 79.6878C4.04188 79.7204 4.0828 79.7529 4.08312 79.7857C4.08729 80.2445 4.08594 80.7032 4.08594 81.1621C3.88167 81.1955 3.86335 81.2139 3.8298 81.4181C3.31752 81.4181 2.80525 81.4181 2.29297 81.4181C2.29297 80.8206 2.29297 80.2233 2.29297 79.6259Z" fill="#E9D39C"/>
<path d="M4.08576 82.9542C4.08576 82.485 4.08576 82.0157 4.08569 81.5464C4.15319 81.5036 4.2192 81.4271 4.28862 81.4239C4.58676 81.4102 4.88587 81.418 5.18459 81.418C29.7243 81.418 54.2641 81.4178 78.8038 81.4205C79.1398 81.4205 79.4786 81.379 79.8021 81.4471C79.842 81.4865 79.8984 81.5162 79.8988 81.5465C79.9043 82.0156 79.9027 82.4849 79.9027 82.9542C54.6304 82.9542 29.3581 82.9542 4.08576 82.9542Z" fill="#EEDDA4"/>
<path d="M11.002 10.4973C11.002 9.94291 11.002 9.38857 11.002 8.83416C11.0692 8.79107 11.135 8.71415 11.204 8.71102C11.5021 8.69725 11.801 8.70512 12.0996 8.70512C32.0224 8.70512 51.9451 8.70512 71.8678 8.70512C72.206 8.70512 72.5442 8.70512 72.8572 8.70512C73.0023 8.84901 73.1234 8.96915 73.2435 9.08825C73.2435 9.55916 73.2435 10.0283 73.2435 10.4973C73.1798 10.5537 73.1161 10.6102 73.0529 10.6673C72.9002 10.7453 72.7386 10.7954 72.5691 10.8202C72.0166 10.8761 71.4618 10.8575 70.9077 10.8575C51.6754 10.8591 32.4431 10.8598 13.2108 10.8537C12.5353 10.8535 11.8426 10.9622 11.1907 10.6691C11.1275 10.6122 11.0648 10.5547 11.002 10.4973Z" fill="#060607"/>
<path d="M74.7799 10.4983C74.7799 31.2364 74.7799 51.9745 74.7799 72.7126C74.2144 73.118 73.664 73.1383 73.1324 72.6495C72.8662 72.2342 72.8505 71.7688 72.8521 71.2952C72.9177 51.7692 72.8607 32.2431 72.889 12.7171C72.8901 11.9681 72.6981 11.1687 73.243 10.4983C73.7554 10.4983 74.2676 10.4983 74.7799 10.4983Z" fill="black"/>
<path d="M9.20825 72.7126C9.20825 51.9745 9.20825 31.2364 9.20825 10.4983C9.80589 10.4983 10.4036 10.4983 11.0012 10.4983C11.101 10.6193 11.1829 10.7514 11.2488 10.8942C11.4225 11.4352 11.3444 11.9961 11.3839 12.5491C11.4556 16.687 11.4121 20.8241 11.414 24.9611C11.4207 39.6337 11.4173 54.3063 11.4148 68.9789C11.4147 69.5754 11.4481 70.1733 11.377 70.7681C11.3668 71.4319 11.4856 72.1175 11.0601 72.7144C10.443 73.1691 9.82529 73.1618 9.20825 72.7126Z" fill="#060607"/>
<path d="M72.9877 76.0412C52.393 76.0412 31.7984 76.0412 11.2037 76.0396C11.1663 76.0396 11.1291 76.0155 11.1006 76.0056C11.0638 75.9705 11.0067 75.9416 11.0063 75.9117C11.0002 75.5282 11.0023 75.1446 11.0023 74.761C11.4533 74.3188 12.0321 74.405 12.5768 74.4048C32.163 74.397 51.7493 74.3974 71.3355 74.4048C71.8798 74.405 72.4527 74.3229 72.9597 74.723C73.1884 75.1433 73.1758 75.5883 72.9877 76.0412Z" fill="#C77435"/>
<path d="M72.9874 76.0415C72.9874 75.6579 72.9874 75.2743 72.9875 74.8906C72.9204 74.8475 72.8543 74.7693 72.7859 74.7671C72.4025 74.755 72.0185 74.7613 71.6348 74.7613C51.4239 74.7613 31.2129 74.7613 11.002 74.7613C11.002 74.6759 11.002 74.5906 11.002 74.5053C11.0642 74.4491 11.1265 74.3929 11.1882 74.3358C11.9575 73.9756 12.7799 74.101 13.5815 74.1006C32.4569 74.0932 51.3324 74.0962 70.2079 74.0907C70.9668 74.0905 71.7429 74.1921 72.4348 73.8875C72.7987 73.6143 72.8316 73.1904 73.0626 72.8875C73.122 72.8286 73.1828 72.7708 73.2436 72.7131C73.7559 72.7131 74.2681 72.7131 74.7804 72.7131C74.7804 73.2571 74.7816 73.801 74.7776 74.3449C74.7773 74.3778 74.7365 74.4104 74.7144 74.4432C74.6811 74.4638 74.648 74.5022 74.6145 74.5026C74.1972 74.5067 73.7799 74.5053 73.3677 74.5053C73.3228 74.5816 73.2533 74.6468 73.2485 74.7165C73.2201 75.1285 73.2889 75.5451 73.1986 75.9535C73.178 76.0466 73.0832 76.0705 72.9874 76.0415Z" fill="#C57636"/>
<path d="M9.20815 72.7131C9.80579 72.7131 10.4035 72.7131 11.0011 72.7131C11.0507 72.7656 11.1004 72.818 11.1508 72.87C11.3931 73.4416 11.4068 73.9927 11.0011 74.5053C10.4578 74.5053 9.91438 74.5064 9.37105 74.5026C9.33795 74.5024 9.3051 74.4626 9.27219 74.4413C9.25086 74.4084 9.21116 74.3755 9.2109 74.3425C9.20706 73.7993 9.20815 73.2562 9.20815 72.7131Z" fill="#BE7234"/>
<path d="M11.002 72.7126C11.002 72.1152 11.002 71.5179 11.002 70.9205C11.467 70.517 12.0331 70.5582 12.5912 70.5579C12.7555 70.5519 12.9186 70.5445 13.0826 70.5309C27.3661 70.4743 41.6485 70.5138 55.9308 70.5088C61.0893 70.507 66.2479 70.4637 71.4057 70.5341C71.7487 70.504 72.0802 70.4429 72.3633 70.1624C72.6802 69.5023 72.5703 68.7668 72.5706 68.0512C72.5765 50.3162 72.5747 32.5811 72.5768 14.8461C72.5768 14.0791 72.5494 13.3114 72.6032 12.5458C72.64 11.9952 72.5604 11.434 72.735 10.8935C72.8013 10.7508 72.8861 10.6193 72.9873 10.4983C73.0727 10.4983 73.1581 10.4983 73.2434 10.4983C73.2434 31.2364 73.2434 51.9745 73.2434 72.7126C72.7512 73.1516 72.1402 73.1242 71.546 73.1245C51.9304 73.1323 32.3148 73.1324 12.6993 73.1245C12.1052 73.1242 11.4942 73.1517 11.002 72.7126Z" fill="#6896CD"/>
<path d="M72.9874 10.4983C72.9874 10.5836 72.9874 10.669 72.9874 10.7543C72.4951 11.1933 71.8842 11.1658 71.29 11.1661C51.7598 11.174 32.2295 11.174 12.6994 11.1662C12.1052 11.1659 11.4943 11.1933 11.002 10.7543C11.002 10.6689 11.002 10.5836 11.002 10.4983C31.6638 10.4983 52.3256 10.4983 72.9874 10.4983Z" fill="#7CA6D7"/>
<path d="M11.002 10.7539C31.6638 10.7539 52.3256 10.7539 72.9874 10.7539C72.9874 11.2659 72.9874 11.778 72.9874 12.29C72.499 12.7244 71.9 12.6592 71.3154 12.6627C71.0189 12.7132 70.7199 12.7043 70.4215 12.7043C51.5261 12.7039 32.6307 12.7078 13.7353 12.7027C13.522 12.7026 13.3088 12.7029 13.0972 12.6831C12.9351 12.6708 12.7717 12.6606 12.6088 12.6572C12.0449 12.6612 11.4716 12.7015 11.002 12.29C11.002 11.778 11.002 11.266 11.002 10.7539Z" fill="#9BBBE2"/>
<path d="M11.002 12.2896C11.5142 12.2896 12.0265 12.2896 12.5388 12.2896C13.0612 12.9166 12.8878 13.6707 12.8947 14.3793C13.0643 31.5068 12.8357 48.6344 12.9001 65.762C12.9048 66.9976 12.9067 68.2333 12.8969 69.4689C12.8929 69.9789 12.9214 70.5011 12.5388 70.9195C12.0265 70.9195 11.5142 70.9195 11.002 70.9195C11.002 51.3761 11.002 31.8328 11.002 12.2896Z" fill="#7EA8DA"/>
<path d="M9.55623 10.7887C9.91335 10.6965 10.286 10.7989 10.5974 10.7498C10.6834 10.8282 10.7423 10.8568 10.7423 10.8854C10.7462 31.3603 10.7462 51.8352 10.743 72.3101C10.743 72.3421 10.6946 72.3741 10.6466 72.4337C10.2979 72.4705 9.92622 72.4688 9.58543 72.4352C9.52825 72.3832 9.46934 72.3545 9.46934 72.326C9.46543 51.8511 9.46542 31.3762 9.46863 10.9013C9.46869 10.8694 9.51704 10.8374 9.55623 10.7887Z" fill="#020203"/>
<path d="M11.002 72.7131C31.7492 72.7131 52.4964 72.7131 73.2436 72.7131C73.2436 73.1818 73.2436 73.6505 73.2436 74.1234C73.1242 74.2405 73.0027 74.3598 72.8546 74.5053C52.2562 74.5053 31.6291 74.5053 11.002 74.5053C11.002 73.9079 11.002 73.3105 11.002 72.7131Z" fill="#020201"/>
<path d="M12.5386 70.9195C12.5386 51.3762 12.5386 31.8329 12.5386 12.2896C12.6239 12.2896 12.7094 12.2896 12.7947 12.2896C13.3838 13.0384 13.1317 13.9238 13.1956 14.7579C13.2453 15.4076 13.057 16.1001 13.4623 16.7145C14.0641 16.4967 13.9462 15.8629 14.2845 15.6182C14.6399 15.2787 15.1105 15.2646 15.4472 14.9938C15.7753 14.6472 15.7858 14.1157 16.1482 13.7903C17.4049 13.2802 66.504 13.26 67.8298 13.7698C68.2035 14.089 68.2198 14.6181 68.5357 14.9716C68.8703 15.2423 69.3274 15.2927 69.5689 15.51C69.9613 15.8999 70.0155 16.3541 70.2635 16.7006C70.6215 17.0505 71.1854 16.8719 71.553 17.2017C71.9104 17.7345 71.8592 18.3435 71.8598 18.9353C71.8671 25.9227 71.8666 32.9102 71.8604 39.8975C71.8598 40.4901 71.9073 41.0971 71.5798 41.6397C71.2763 42.0005 70.773 41.8699 70.3479 42.1567C70.0254 42.4058 70.026 42.956 69.4335 43.4715C67.1185 44.0415 64.4448 43.3404 61.7205 43.8653C61.373 47.7904 61.8671 51.7039 61.3487 55.5619C60.8075 55.9307 60.2875 55.9375 59.778 55.9454C58.3288 55.968 56.8786 55.9844 55.4305 55.9366C54.9215 55.9197 54.2819 56.0679 54.0471 55.3476C54.5914 54.771 55.3114 54.9461 55.9759 54.9127C57.414 54.8403 58.8663 55.0379 60.5326 54.7266C60.5728 48.8199 60.5549 42.959 60.5436 37.1467C59.7652 36.6439 59.0776 36.2655 58.8743 35.5429C58.4799 35.1863 58.0048 35.1863 57.673 34.9043C57.2914 34.5869 57.2927 34.0578 57.0059 33.6843C56.6829 33.3859 56.2122 33.3744 55.8759 33.1027C55.4911 32.7878 55.4921 32.2529 55.0391 31.7219C52.7406 31.5514 50.292 31.606 48.0162 31.693C47.4803 32.1116 47.4925 32.6009 47.2693 32.8673C46.9672 33.2997 46.5027 33.38 46.1952 33.6769C45.3203 35.229 45.0934 35.336 43.7579 34.8192C43.0863 33.9471 43.6818 32.7919 43.0762 31.7735C41.2792 31.5207 39.4314 31.5834 37.6386 31.7415C37.1326 32.3952 37.2734 33.0574 37.2724 33.6806C37.262 40.2091 37.2703 46.7377 37.2607 53.2663C37.2597 53.9396 37.3658 54.6407 36.953 55.2562C36.8824 55.2936 36.8117 55.33 36.7408 55.3663C36.6705 55.3293 36.6001 55.2923 36.529 55.2555C36.1139 54.6429 36.2193 53.9424 36.2182 53.2698C36.2086 46.7478 36.2172 40.2259 36.2058 33.7039C36.2048 33.1286 36.3434 32.5122 35.8808 31.9206C35.3579 32.2897 35.4946 32.8262 35.4911 33.2788C35.4705 36.0068 35.489 38.7351 35.4764 41.4631C35.4735 42.096 35.5449 42.7513 35.1434 43.3182C34.0073 43.8449 32.865 43.8142 31.7183 43.3565C31.2783 42.809 31.355 42.1505 31.3516 41.5194C31.3376 38.8777 31.3504 36.2359 31.3426 33.5941C31.3409 33.0459 31.4092 32.4842 31.0779 31.8257C29.2767 31.453 27.3997 31.6665 25.2417 31.7178C25.233 39.4608 25.2332 47.0487 25.2417 54.6648C26.8581 55.0581 28.267 54.8265 29.6567 54.9016C30.3669 54.94 31.1192 54.7632 31.7463 55.2772C31.7176 55.8799 31.2214 55.8965 30.8335 55.9149C29.0176 56.001 27.1992 56.0116 25.383 55.9104C24.9964 55.8888 24.6338 55.7633 24.4092 55.4037C24.1033 54.7618 24.1776 54.0713 24.177 53.3949C24.1706 46.7979 24.178 40.2009 24.1658 33.604C24.1648 33.0484 24.306 32.4342 23.7811 31.8718C23.3634 32.378 23.4516 32.8968 23.4494 33.3783C23.4373 36.0596 23.4506 38.741 23.4393 41.4223C23.4366 42.0547 23.5087 42.7071 23.138 43.2835C23.0389 43.3626 22.9479 43.4732 22.8197 43.4883C20.0241 43.8167 17.2341 43.7026 14.4467 43.4617C13.9996 43.0961 14.0348 42.456 13.3096 41.9358C13.054 46.566 13.283 50.955 13.1717 55.3347C13.2171 59.3612 13.2284 63.3868 13.1696 67.4119C13.1659 67.7336 13.1863 68.056 13.1645 68.3776C13.1268 69.237 13.3804 70.1395 12.7948 70.9193C12.7094 70.9195 12.6239 70.9195 12.5386 70.9195Z" fill="#548ACD"/>
<path d="M24.5766 55.3023C24.5465 55.3998 24.5758 55.474 24.667 55.5195C24.7019 55.5369 24.7412 55.5567 24.7785 55.5568C27.0345 55.5585 29.2905 55.5585 31.5465 55.5581C31.6629 55.5581 31.7216 55.4816 31.7484 55.3023C31.3744 54.8912 31.3469 54.3783 31.3443 53.8666C31.3287 50.8101 31.3268 47.7535 31.3463 44.6971C31.3496 44.1921 31.3385 43.667 31.7484 43.2691C32.8583 43.2691 33.9683 43.2691 35.0782 43.2691C35.5785 43.7943 35.4637 44.4609 35.4678 45.0851C35.4852 47.7222 35.472 50.3595 35.4772 52.9967C35.4783 53.5047 35.4397 54.0194 35.6465 54.5358C35.8599 54.9006 36.3265 54.9923 36.6151 55.3024C36.7005 55.3024 36.7859 55.3024 36.8713 55.3024C38.3051 54.9746 39.7583 55.2517 41.1999 55.1646C41.8314 55.1265 42.4842 55.2541 43.0847 54.9168C43.4728 54.3926 43.384 53.7789 43.3868 53.1925C43.3992 50.5899 43.3867 47.9873 43.3955 45.3848C43.3977 44.7488 43.3366 44.0996 43.6408 43.5002C44.111 42.8633 44.8139 42.894 45.4875 42.8831C47.0549 42.8578 48.6228 42.8809 50.1904 42.8706C50.6525 42.8675 51.1265 42.9164 51.615 42.6357C52.0509 41.7597 51.7298 40.7659 51.8601 39.8212C51.9336 39.2882 51.6814 38.5742 52.5211 38.3811C53.0103 38.966 52.8847 39.6744 52.887 40.3434C52.9008 44.4374 52.8917 48.5314 52.8955 52.6253C52.896 53.2207 52.852 53.8205 52.9696 54.2622C53.1454 54.8282 53.578 54.8943 53.8713 55.1261C53.9259 55.184 53.9792 55.2431 54.0324 55.3023C54.0023 55.4 54.0289 55.4822 54.1239 55.5176C54.1984 55.5453 54.2829 55.5567 54.363 55.5567C56.5378 55.5587 58.7126 55.5588 60.8873 55.5563C60.9661 55.5563 61.0448 55.5269 61.1236 55.5111C61.1505 55.4795 61.2009 55.4481 61.201 55.4166C61.2045 51.41 61.2043 47.4034 61.2044 43.3967C61.2721 43.3541 61.3397 43.2746 61.4075 43.2744C63.9234 43.268 66.4393 43.2699 68.9552 43.2673C69.1622 43.2671 69.3734 43.3002 69.5591 43.2414C69.6026 43.191 69.653 43.1599 69.6534 43.1282C69.6586 42.7031 69.6569 42.2779 69.6569 41.8609C69.7855 41.7323 69.9062 41.6117 70.0339 41.484C70.3659 41.484 70.705 41.484 71.0605 41.484C71.1396 41.5593 71.227 41.6508 71.3245 41.7298C71.3502 41.7506 71.4072 41.7329 71.4499 41.7329C71.9217 42.2136 71.8578 42.8336 71.8586 43.4204C71.8702 52.0219 71.8692 60.6233 71.8607 69.2247C71.8601 69.818 71.8886 70.4282 71.4499 70.9199C51.898 70.9199 32.3461 70.9199 12.7942 70.9199C12.7942 70.0665 12.7942 69.213 12.7942 68.3597C13.4128 67.8198 14.1678 67.9837 14.8773 67.9834C32.9498 67.9759 51.0223 67.9813 69.0949 67.9618C69.6647 67.9612 70.4207 68.3146 70.7498 67.4482C70.7943 63.6509 70.8407 59.8556 70.7218 55.953C69.928 56.2229 70.0515 56.8724 69.412 57.2312C68.4716 57.6282 15.8584 57.6818 14.3435 57.1578C13.9734 56.4749 13.5999 55.7021 12.7942 55.3024C12.7942 50.7539 12.7941 46.2052 12.7964 41.6567C12.7964 41.6216 12.83 41.5865 12.8479 41.5514C12.8802 41.5266 12.9122 41.4807 12.9447 41.4803C13.3683 41.4755 13.7918 41.4771 14.203 41.4771C14.2455 41.5196 14.2968 41.5462 14.3025 41.5803C14.3916 42.1173 14.2608 42.6667 14.3748 43.1905C14.425 43.2244 14.4582 43.2665 14.4915 43.2665C17.3409 43.2695 20.1904 43.2693 23.0398 43.2693C23.54 43.7945 23.4252 44.4611 23.4293 45.0853C23.4467 47.7224 23.4335 50.3597 23.4387 52.9969C23.4397 53.5049 23.4012 54.0197 23.608 54.536C23.8213 54.9006 24.288 54.9923 24.5766 55.3023Z" fill="#4371C5"/>
<path d="M71.4498 70.9195C71.4498 61.1905 71.4498 51.4615 71.4498 41.7325C71.4498 33.5397 71.4498 25.3469 71.4498 17.1541C70.803 15.5326 70.8217 13.9111 71.4498 12.2896C71.9621 12.2896 72.4744 12.2896 72.9867 12.2896C72.9867 31.7659 72.9867 51.2422 72.9851 70.7185C72.9851 70.7558 72.9607 70.7931 72.9517 70.819C72.9152 70.8577 72.8863 70.9151 72.8569 70.9155C72.3879 70.9212 71.9188 70.9195 71.4498 70.9195Z" fill="#7CA6D7"/>
<path d="M71.4501 12.2896C71.4501 13.911 71.4501 15.5326 71.4501 17.1541C71.4074 17.1541 71.3504 17.1364 71.3246 17.1572C71.2271 17.2361 71.1397 17.3277 71.0607 17.4028C70.6197 17.4028 70.1952 17.4028 69.778 17.4028C69.7405 17.3654 69.6885 17.3384 69.6836 17.3046C69.6052 16.7658 69.7162 16.216 69.6171 15.6699C69.0541 15.5476 68.5031 15.6772 67.9606 15.5918C67.7602 15.3251 67.8886 15.0208 67.8686 14.7355C67.8484 14.4471 67.8641 14.1561 67.8641 13.9092C67.748 13.8577 67.712 13.8277 67.6759 13.8277C50.5304 13.8257 33.3847 13.8257 16.2523 13.8257C16.2089 13.869 16.1572 13.8957 16.1518 13.9298C16.0676 14.4683 16.1892 15.0186 16.0791 15.5688C15.5225 15.6864 14.9717 15.5599 14.4282 15.644C14.2254 15.9085 14.3682 16.2139 14.3324 16.4982C14.2964 16.7847 14.4082 17.085 14.2594 17.3576C14.2167 17.3772 14.1809 17.4076 14.1449 17.408C13.761 17.4114 13.3772 17.4112 12.9933 17.4083C12.9561 17.4081 12.9191 17.3832 12.8821 17.3697C12.8529 17.3391 12.7982 17.3087 12.7981 17.278C12.794 15.6153 12.7944 13.9524 12.7944 12.2896C32.3463 12.2896 51.8982 12.2896 71.4501 12.2896Z" fill="#4371C5"/>
<path d="M12.7943 55.3023C13.2631 55.3023 13.7319 55.3023 14.2009 55.3022C14.2443 55.369 14.3239 55.4351 14.3253 55.5027C14.336 56.0075 14.3311 56.5125 14.3311 57.0141C14.7002 57.1732 15.0409 57.0719 15.3711 57.0896C15.7536 57.1102 16.138 57.0944 16.5216 57.0944C16.8626 57.0944 17.2036 57.0944 17.5445 57.0944C17.9281 57.0944 18.3117 57.0944 18.6953 57.0944C19.0362 57.0944 19.3772 57.0944 19.7181 57.0944C20.1017 57.0944 20.4853 57.0944 20.8689 57.0944C21.2099 57.0944 21.5509 57.0944 21.8918 57.0944C22.2754 57.0944 22.659 57.0944 23.0426 57.0944C23.3836 57.0944 23.7245 57.0944 24.0655 57.0944C24.449 57.0944 24.8327 57.0944 25.2162 57.0944C25.5572 57.0944 25.8982 57.0944 26.2391 57.0944C26.6227 57.0944 27.0063 57.0944 27.3899 57.0944C27.7309 57.0944 28.0718 57.0944 28.4128 57.0944C28.7963 57.0944 29.18 57.0944 29.5635 57.0944C29.9045 57.0944 30.2455 57.0944 30.5864 57.0944C30.97 57.0944 31.3536 57.0944 31.7372 57.0944C32.0782 57.0944 32.4191 57.0944 32.7601 57.0944C33.1011 57.0944 33.442 57.0944 33.783 57.0944C34.1665 57.0944 34.5502 57.0944 34.9337 57.0944C35.2747 57.0944 35.6156 57.0944 35.9566 57.0944C36.3402 57.0944 36.7238 57.0944 37.1074 57.0944C37.4484 57.0944 37.7893 57.0944 38.1303 57.0944C38.5138 57.0944 38.8975 57.0944 39.281 57.0944C39.622 57.0944 39.963 57.0944 40.3039 57.0944C40.6875 57.0944 41.0711 57.0944 41.4547 57.0944C41.7957 57.0944 42.1367 57.0944 42.4776 57.0944C42.8611 57.0944 43.2448 57.0944 43.6283 57.0944C43.9693 57.0944 44.3103 57.0944 44.6512 57.0944C45.0348 57.0944 45.4184 57.0944 45.802 57.0944C46.143 57.0944 46.4839 57.0944 46.8249 57.0944C47.2085 57.0944 47.5921 57.0944 47.9757 57.0944C48.3166 57.0944 48.6576 57.0944 48.9985 57.0944C49.3821 57.0944 49.7657 57.0944 50.1493 57.0944C50.4903 57.0944 50.8313 57.0944 51.1722 57.0944C51.5131 57.0944 51.8541 57.0944 52.1951 57.0944C52.5787 57.0944 52.9623 57.0944 53.3458 57.0944C53.6868 57.0944 54.0278 57.0944 54.3687 57.0944C54.7523 57.0944 55.1359 57.0944 55.5195 57.0944C55.8605 57.0944 56.2015 57.0944 56.5424 57.0944C56.926 57.0944 57.3096 57.0944 57.6932 57.0944C58.0341 57.0944 58.3751 57.0944 58.716 57.0944C59.0996 57.0944 59.4833 57.0944 59.8668 57.0944C60.2078 57.0944 60.5488 57.0944 60.8897 57.0944C61.2733 57.0944 61.6569 57.0944 62.0405 57.0944C62.3814 57.0944 62.7224 57.0944 63.0634 57.0944C63.4469 57.0944 63.8306 57.0944 64.2141 57.0944C64.5551 57.0944 64.896 57.0944 65.237 57.0944C65.6206 57.0944 66.0042 57.0944 66.3878 57.0944C66.7288 57.0944 67.0697 57.0944 67.4107 57.0944C67.7942 57.0944 68.1781 57.1025 68.5614 57.0921C68.8969 57.0829 69.2351 57.1354 69.5428 57.0674C69.5938 57.0209 69.6521 56.9926 69.6524 56.9636C69.658 56.4525 69.6564 55.9413 69.6565 55.4301C69.9216 55.2761 69.9216 55.2761 71.1166 55.3537C71.1422 55.3857 71.19 55.4177 71.19 55.4498C71.1933 59.497 71.1932 63.5442 71.1932 67.5915C70.7403 68.0108 70.1754 67.9723 69.6217 67.9724C51.2029 67.9744 32.784 67.9744 14.3652 67.9724C13.8115 67.9723 13.2466 68.0109 12.7937 67.5915C12.7943 63.4952 12.7943 59.3987 12.7943 55.3023Z" fill="#3C5CB5"/>
<path d="M43.7873 43.5253C43.7873 47.384 43.7874 51.2426 43.7857 55.1013C43.7857 55.1384 43.7618 55.1755 43.7754 55.1359C43.6199 55.3207 43.5115 55.4494 43.4196 55.5584C41.3471 55.5584 39.3108 55.5584 37.2671 55.5584C37.1803 55.4756 37.0933 55.3844 36.9963 55.3056C36.9707 55.2848 36.914 55.3024 36.8716 55.3024C36.8716 47.3345 36.8715 39.3665 36.8743 31.3985C36.8743 31.365 36.9156 31.3315 36.9376 31.298C37.9282 31.2061 40.639 31.1899 43.6808 31.2576C43.7659 31.3076 43.7894 31.3781 43.7892 31.4691C43.7863 32.4918 43.7892 33.5144 43.7842 34.537C43.7838 34.6321 43.7873 34.7074 43.8583 34.7633C43.8931 34.7823 43.9277 34.8176 43.9626 34.8178C44.3847 34.8212 44.8069 34.8214 45.1629 34.8196C45.3405 34.6615 45.4671 34.5489 45.5844 34.4445C45.5844 33.9979 45.5844 33.5729 45.5844 33.1322C46.0498 32.8813 46.5769 33.149 47.0446 32.9746C47.0716 32.9353 47.1139 32.9022 47.1142 32.8689C47.1184 32.3604 47.1171 31.8518 47.1171 31.337C47.4443 31.1298 47.7902 31.2703 48.1166 31.2415C48.4127 31.2153 48.713 31.236 49.0113 31.236C49.3524 31.236 49.6934 31.236 50.0344 31.236C50.3328 31.236 50.6312 31.236 50.9296 31.236C51.2707 31.236 51.6116 31.236 51.9527 31.236C52.2511 31.236 52.5495 31.236 52.8479 31.236C53.1889 31.236 53.5299 31.236 53.871 31.236C54.1694 31.236 54.4678 31.236 54.7662 31.236C55.0997 31.236 55.4332 31.236 55.7702 31.236C55.8911 31.8369 55.7703 32.3868 55.8513 32.9302C56.1144 33.1356 56.4201 32.9912 56.7042 33.0268C56.9909 33.0628 57.2908 32.9533 57.568 33.1002C57.6685 33.391 57.6001 33.6872 57.6184 33.9783C57.6341 34.2287 57.5859 34.4822 57.6548 34.7282C57.6865 34.7599 57.7163 34.8159 57.7468 34.8162C58.2582 34.8216 58.7698 34.8201 59.2814 34.8201C59.3249 34.8869 59.4037 34.9526 59.4059 35.0206C59.4181 35.4037 59.4105 35.7874 59.4139 36.1709C59.4143 36.2067 59.445 36.2424 59.4616 36.2781C59.4934 36.3042 59.525 36.3527 59.5571 36.353C59.9818 36.3581 60.4067 36.3564 60.8142 36.3564C60.9129 36.4187 60.949 36.4877 60.949 36.5743C60.9485 38.1508 60.9486 39.7274 60.9486 41.304C60.9486 45.6927 60.9494 50.0815 60.9465 54.4702C60.9463 54.7197 60.9877 54.9733 60.9059 55.2171C60.8729 55.2466 60.8418 55.2987 60.8107 55.2988C58.5514 55.3026 56.2921 55.3022 54.0329 55.3022C53.5397 54.723 53.6384 54.0176 53.6367 53.3442C53.6266 49.1634 53.6337 44.9826 53.6301 40.8017C53.6296 40.2061 53.6733 39.6056 53.5008 39.0221C53.3406 38.6235 52.9093 38.5546 52.6294 38.3054C52.0341 38.0157 52.3151 37.2731 51.7799 36.7742C50.5204 36.6589 49.1451 36.6726 47.9142 36.8277C47.4553 37.2746 47.4774 37.7553 47.2129 38.0938C46.9439 38.4536 46.4429 38.4455 46.1467 38.7626C45.8705 39.0936 45.8688 39.5715 45.5833 39.8333C45.2274 40.2456 44.6821 40.2265 44.3327 40.5783C43.9093 41.5093 44.4515 42.632 43.7873 43.5253Z" fill="#FFFFFD"/>
<path d="M31.7487 43.2697C31.7487 47.2808 31.7487 51.2918 31.7487 55.3029C29.4906 55.3029 27.2324 55.3032 24.9743 55.2995C24.9429 55.2994 24.9115 55.2489 24.8801 55.2219C24.8644 55.1858 24.835 55.1497 24.835 55.1136C24.833 47.1938 24.833 39.2738 24.833 31.3706C24.8951 31.2726 24.9641 31.2361 25.0505 31.2361C27.2235 31.2365 29.3964 31.2362 31.5693 31.2387C31.6045 31.2387 31.6396 31.2725 31.6747 31.2905C31.6994 31.3229 31.7456 31.3552 31.7457 31.3877C31.7489 35.3484 31.7487 39.309 31.7487 43.2697Z" fill="#FFFFFD"/>
<path d="M12.7942 67.5908C32.2607 67.5908 51.7272 67.5908 71.1937 67.5908C71.1937 67.8039 71.1937 68.017 71.1938 68.2301C71.1265 68.2731 71.0602 68.3509 70.9916 68.3531C70.6083 68.3651 70.2244 68.3589 69.8407 68.3589C50.8252 68.3589 31.8097 68.3589 12.7943 68.3589C12.7942 68.1029 12.7942 67.8468 12.7942 67.5908Z" fill="#4371C5"/>
<path d="M24.5777 55.3034C24.1107 55.3034 23.6437 55.3034 23.1766 55.3034C23.1313 55.2388 23.0467 55.1743 23.0465 55.1095C23.0399 52.5635 23.0408 50.0174 23.0408 47.4712C23.0408 46.0709 23.0408 44.6705 23.0408 43.2702C23.0408 39.3041 23.0408 35.338 23.0408 31.3719C23.1061 31.3269 23.1702 31.2452 23.237 31.243C23.6205 31.2306 24.0047 31.2357 24.3887 31.239C24.4249 31.2394 24.4609 31.2686 24.497 31.2845C24.5239 31.316 24.5743 31.3474 24.5743 31.379C24.5778 39.3538 24.5777 47.3286 24.5777 55.3034Z" fill="#3F5EB6"/>
<path d="M36.6162 55.3034C36.1492 55.3034 35.6822 55.3034 35.2152 55.3034C35.1698 55.2388 35.0852 55.1743 35.0851 55.1095C35.0785 52.5635 35.0794 50.0174 35.0794 47.4712C35.0794 46.0709 35.0794 44.6705 35.0794 43.2702C35.0794 39.3041 35.0794 35.338 35.0793 31.3719C35.1447 31.3269 35.2088 31.2452 35.2755 31.243C35.6591 31.2306 36.0433 31.2357 36.4273 31.239C36.4635 31.2394 36.4995 31.2686 36.5356 31.2845C36.5625 31.316 36.6128 31.3474 36.6129 31.379C36.6163 39.3538 36.6162 47.3286 36.6162 55.3034Z" fill="#3E5DB6"/>
<path d="M26.3698 19.2022C27.5166 19.2022 28.6634 19.2015 29.8102 19.2055C29.8421 19.2056 29.8737 19.254 29.9395 19.3077C29.9838 19.8176 29.9321 20.3619 29.9653 20.8845C30.1661 21.0815 30.3886 20.9686 30.5888 20.9905C30.7567 21.0089 30.9295 20.9809 31.0977 20.9978C31.2993 21.0181 31.5182 20.9157 31.6964 21.0633C31.7174 21.1112 31.7467 21.1472 31.7468 21.1832C31.7493 22.1978 31.7487 23.2124 31.7487 24.2098C31.4509 24.421 31.1482 24.2872 30.8644 24.3218C30.5789 24.3567 30.2798 24.2459 30.0048 24.3964C29.908 24.6872 29.9686 24.982 29.9577 25.2725C29.9483 25.5226 29.9558 25.7733 29.9558 25.9869C29.8905 26.0521 29.8606 26.1082 29.8305 26.1083C28.8115 26.1129 27.7924 26.1121 26.7628 26.1121C26.6789 26.0321 26.5918 25.9408 26.4947 25.862C26.4691 25.8412 26.4124 25.8588 26.3698 25.8588C26.0346 25.6121 26.1129 25.1413 25.8321 24.8641C25.5471 24.5952 25.0975 24.629 24.833 24.3227C24.833 23.2285 24.833 22.1343 24.833 21.0534C25.3629 20.9189 25.8309 21.0733 26.2792 20.9528C26.375 20.9271 26.3997 20.8356 26.3698 20.7383C25.97 20.2263 25.9701 19.7143 26.3698 19.2022Z" fill="#FEFEFD"/>
<path d="M24.5777 24.2703C24.1592 24.3664 23.8219 24.3068 23.4875 24.3217C23.3665 24.3271 23.2442 24.3066 23.142 24.2993C23.0962 24.2479 23.0444 24.217 23.0443 24.1858C23.0401 23.0813 23.0408 21.9767 23.0408 20.8721C23.1066 20.8279 23.1713 20.7477 23.2385 20.7456C23.6206 20.7333 24.0033 20.7384 24.3858 20.7416C24.4222 20.7419 24.4584 20.7697 24.4947 20.7847C24.5223 20.8158 24.5741 20.8467 24.5742 20.8778C24.5783 21.9824 24.5777 23.0869 24.5777 24.2703Z" fill="#4261B7"/>
<path d="M24.8329 24.3237C25.291 24.3237 25.7492 24.3224 26.2073 24.3264C26.2403 24.3268 26.2729 24.3664 26.3057 24.3877C26.3271 24.4205 26.3667 24.4532 26.367 24.4861C26.3711 24.944 26.3698 25.402 26.3698 25.8599C26.3995 25.957 26.3747 26.0537 26.2795 26.0732C25.826 26.1661 25.3704 26.083 24.9628 26.1238C24.8879 26.0394 24.8367 26.0086 24.8365 25.9773C24.8316 25.4261 24.8329 24.8749 24.8329 24.3237Z" fill="#405EB6"/>
<path d="M26.3697 19.2024C26.3697 19.7145 26.3697 20.2265 26.3697 20.7386C25.9024 20.7386 25.4351 20.7386 24.9678 20.7386C24.9228 20.6737 24.8411 20.6099 24.839 20.5435C24.8265 20.1618 24.8317 19.7794 24.8347 19.3973C24.8351 19.3606 24.8614 19.3242 24.8757 19.2876C24.9064 19.2592 24.9369 19.2064 24.9679 19.206C25.4351 19.2008 25.9024 19.2024 26.3697 19.2024Z" fill="#4366B9"/>
<path d="M43.7876 43.5251C43.7876 42.3804 43.787 41.2358 43.7908 40.0911C43.7908 40.0589 43.8371 40.0268 43.8638 39.992C44.1028 39.8933 44.3558 39.9542 44.6031 39.9428C44.8106 39.9331 45.0189 39.9408 45.1758 39.9408C45.3416 39.7867 45.4653 39.6717 45.5807 39.5644C45.5807 39.1243 45.5807 38.7004 45.5807 38.2444C46.0409 38.0115 46.5617 38.2525 47.0356 38.1025C47.0629 38.0714 47.1137 38.0406 47.114 38.0092C47.1193 37.5856 47.1176 37.1619 47.1176 36.7405C47.2397 36.6184 47.3597 36.4984 47.5017 36.3564C49.1246 36.3564 50.7695 36.3564 52.3737 36.3564C52.4415 36.4332 52.4926 36.464 52.493 36.4952C52.4978 37.0463 52.4965 37.5974 52.4965 38.1486C52.5612 38.2054 52.5827 38.2624 52.5612 38.3193C52.5397 38.3762 52.5181 38.4047 52.4965 38.4047C52.3989 38.3747 52.3087 38.3999 52.2829 38.4958C52.2513 38.613 52.2423 38.7392 52.242 38.8616C52.2393 40.1376 52.2419 41.4136 52.2385 42.6896C52.238 42.854 52.2765 43.0237 52.2 43.1816C52.1682 43.2115 52.1376 43.2655 52.1069 43.2656C49.4688 43.2694 46.8306 43.2692 44.1841 43.2692C44.0974 43.3518 44.0102 43.4431 43.9129 43.522C43.8871 43.5428 43.8302 43.5251 43.7876 43.5251Z" fill="#548ACD"/>
<path d="M52.4961 38.4038C52.4961 38.3184 52.4961 38.2331 52.4961 38.1478C52.9638 38.1478 53.4315 38.1478 53.8993 38.1477C53.9439 38.2131 54.0262 38.2781 54.0271 38.3442C54.0364 39.0665 54.033 39.7891 54.033 40.5116C54.033 45.4416 54.033 50.3716 54.033 55.3016C53.5653 55.3016 53.0976 55.3015 52.6299 55.3016C52.5852 55.2362 52.5026 55.1712 52.5019 55.1053C52.493 54.2979 52.4961 53.4905 52.4961 52.683C52.4961 47.9232 52.4961 43.1635 52.4961 38.4038Z" fill="#3C5CB5"/>
<path d="M52.2403 38.1173C52.0355 38.1315 51.9141 38.1459 51.7925 38.1472C51.4585 38.1505 51.1244 38.1483 50.842 38.1483C50.765 38.0762 50.7078 38.0477 50.7074 38.0184C50.7016 37.5949 50.7034 37.1713 50.7033 36.7478C50.7678 36.7025 50.8312 36.6204 50.8972 36.6183C51.2781 36.6058 51.6596 36.6111 52.041 36.6139C52.078 36.6142 52.1148 36.6386 52.139 36.6472C52.1787 36.6844 52.2359 36.7129 52.2363 36.7422C52.2422 37.1656 52.2403 37.5892 52.2403 38.1173Z" fill="#4A65B9"/>
<defs>
<linearGradient id="paint0_linear_30_2635" x1="41.7567" y1="0" x2="41.7567" y2="9.12291" gradientUnits="userSpaceOnUse">
<stop stop-color="#DF8B1D"/>
<stop offset="1" stop-color="#ECB523"/>
</linearGradient>
<linearGradient id="paint1_linear_30_2635" x1="41.7595" y1="10.4861" x2="41.7595" y2="82.9643" gradientUnits="userSpaceOnUse">
<stop stop-color="#DF8B1D"/>
<stop offset="1" stop-color="#ECB523"/>
</linearGradient>
</defs>
</svg>
