<svg width="84" height="87" viewBox="0 0 84 87" fill="none" xmlns="http://www.w3.org/2000/svg">
<path d="M80.1677 84.7621C80.1677 85.3167 80.1676 85.8713 80.1677 86.426C80.1002 86.4688 80.0342 86.5453 79.9648 86.5485C79.6667 86.5623 79.3675 86.5544 79.0688 86.5544C54.4418 86.5544 29.8147 86.5547 5.18774 86.5514C4.85192 86.5514 4.5111 86.6068 4.17982 86.5136C4.08344 86.4865 4.05821 86.3961 4.08843 86.2983C4.79101 85.725 5.63295 85.8909 6.42775 85.8905C22.3864 85.881 38.3451 85.8836 54.3038 85.8835C61.9845 85.8834 69.6651 85.886 77.3457 85.8789C77.9504 85.8784 78.5868 85.9737 79.3351 85.5304C78.5868 85.087 77.9504 85.1817 77.3457 85.1813C67.3181 85.1747 57.2906 85.1768 47.2631 85.1767C33.6513 85.1766 20.0395 85.1796 6.42768 85.1697C5.63288 85.1691 4.79095 85.3353 4.08837 84.762C3.70746 84.1456 3.49523 83.5151 3.92705 82.8287C4.06711 82.7394 4.21722 82.6778 4.3784 82.6385C4.97071 82.5267 5.56909 82.5564 6.16518 82.5563C30.0416 82.5537 53.9179 82.5538 77.7943 82.5568C78.4322 82.5568 79.0746 82.5123 79.7049 82.6653C79.8712 82.7106 80.0216 82.7879 80.1578 82.8935C80.62 83.5134 80.6184 84.1367 80.1677 84.7621Z" fill="#964F42"/>
<path d="M2.29488 82.9709C1.74004 82.9709 1.18513 82.9709 0.630229 82.971C0.587386 82.9035 0.510792 82.8376 0.50759 82.7682C0.493886 82.4702 0.501766 82.1712 0.501766 81.8725C0.501766 56.1467 0.501766 30.4209 0.501766 4.69503C0.501766 4.3585 0.501766 4.02191 0.501766 3.72688C0.570417 3.65727 0.600065 3.60072 0.630292 3.60046C1.18513 3.59515 1.73997 3.59662 2.29488 3.59662C2.34585 3.65195 2.39683 3.70722 2.4487 3.7621C2.69756 4.25873 2.63205 4.79692 2.65747 5.32409C2.69762 6.50108 2.68956 7.67762 2.66996 8.85531C2.75975 15.1676 2.69929 21.479 2.70544 27.7903C2.71037 32.865 2.74437 37.9397 2.68712 43.0144C2.70954 53.9822 2.74962 64.95 2.67194 75.9168C2.69103 77.1084 2.71024 78.301 2.66132 79.4924C2.66343 80.0194 2.68321 80.5474 2.64953 81.0745C2.6282 81.6585 2.71747 82.2563 2.44844 82.8121C2.39785 82.8653 2.34637 82.9181 2.29488 82.9709Z" fill="#020202"/>
<path d="M81.7046 3.5965C82.2594 3.5965 82.8143 3.5965 83.3692 3.59644C83.412 3.66393 83.4886 3.72989 83.4918 3.79925C83.5055 4.09729 83.4977 4.39629 83.4977 4.69491C83.4977 30.4208 83.4977 56.1465 83.4977 81.8723C83.4977 82.2089 83.4977 82.5454 83.4977 82.8409C83.4292 82.9102 83.3995 82.9666 83.3691 82.9669C82.8997 82.9725 82.4302 82.9709 81.9607 82.9709C81.4699 82.4688 81.6607 81.8286 81.6072 81.2378C81.609 80.5667 81.6528 79.8916 81.4197 79.2411C81.2534 78.1387 81.3256 77.0305 81.3296 75.923C81.2398 67.8615 81.3066 59.8008 81.2939 51.7402C81.2895 48.9256 81.2438 46.1106 81.3233 43.2962C81.2466 33.7422 81.3062 24.188 81.2933 14.6339C81.2907 12.7152 81.2388 10.7958 81.3277 8.87869C81.3112 7.69805 81.299 6.51639 81.3373 5.33537C81.3606 4.80532 81.2957 4.26239 81.5475 3.76217C81.5993 3.70665 81.6519 3.65157 81.7046 3.5965Z" fill="#020201"/>
<path d="M4.0882 1.80374C4.0882 1.24954 4.0882 0.695271 4.08813 0.140943C4.15518 0.0977164 4.22121 0.0193953 4.2896 0.017218C4.67307 0.00511448 5.05712 0.0113941 5.44104 0.0113941C30.2644 0.0113941 55.0878 0.0113941 79.9112 0.0113941C80.0782 0.657171 80.1704 1.30019 79.8405 1.92868C79.3 2.26745 78.691 2.21526 78.0983 2.21539C54.0346 2.22064 29.9709 2.22179 5.90731 2.21551C5.35529 2.21538 4.79328 2.24779 4.27795 1.97799C4.21436 1.92055 4.15128 1.86215 4.0882 1.80374Z" fill="#040202"/>
<path d="M79.9102 1.80334C79.9102 1.20592 79.9102 0.608488 79.9102 0.0109968C80.0041 -0.0169886 80.0836 0.00741076 80.1195 0.0960418C80.148 0.16655 80.1638 0.247108 80.1644 0.323316C80.1683 0.816614 80.1664 1.30998 80.1664 1.80334C80.5795 2.28409 80.5287 2.86499 80.5224 3.43475C80.5403 3.79831 80.4697 4.17441 80.6547 4.5208C80.9197 4.86988 81.4264 4.80456 81.7034 5.13193C81.7034 6.32679 81.7034 7.52171 81.7034 8.71657C81.2533 9.08595 80.7738 9.08069 80.3354 8.87384C79.8584 8.53616 79.8333 8.01526 79.5617 7.61418C79.2408 7.27637 78.7015 7.2845 78.4927 7.06779C78.0441 6.63879 77.9818 6.18123 77.7029 5.66276C53.9537 5.5391 30.2048 5.53878 6.45486 5.62805C6.06402 5.98251 6.01624 6.45147 5.77264 6.79486C5.51276 7.16116 5.06443 7.25978 4.74679 7.54265C4.43818 7.90313 4.43004 8.43056 4.02525 8.80244C3.46823 9.13903 2.87516 9.16734 2.29419 8.71657C2.29419 7.52171 2.29419 6.32679 2.29419 5.13193C2.61913 4.75717 3.17314 4.89903 3.52747 4.58869C3.83172 4.28226 3.76998 3.79037 4.08801 3.48708C4.21538 3.39768 4.35089 3.33588 4.49985 3.29393C5.30444 3.1257 6.11704 3.18551 6.92529 3.18544C30.2452 3.18205 53.5652 3.1834 76.8852 3.17962C77.6457 3.17949 78.4184 3.26345 79.1156 3.01504C79.5235 2.65776 79.5652 2.13238 79.9102 1.80334Z" fill="url(#paint0_linear_30_2517)"/>
<path d="M4.08813 84.762C29.3161 84.762 54.5442 84.762 79.7722 84.7654C79.8035 84.7654 79.8347 84.8172 79.8679 84.8465C79.9509 85.0903 79.907 85.3443 79.9073 85.594C79.9075 85.8008 79.9543 86.0135 79.8713 86.2107C79.8347 86.2429 79.8035 86.2947 79.7722 86.2948C54.5442 86.2982 29.3161 86.2982 4.08813 86.2982C4.08813 85.7862 4.08813 85.2741 4.08813 84.762Z" fill="#030303"/>
<path d="M81.9589 81.1772C81.9589 81.7747 81.9589 82.3721 81.9589 82.9696C81.9589 83.0111 81.9766 83.0695 81.9558 83.0911C81.8702 83.1797 81.773 83.2571 81.7027 83.3188C81.7027 83.776 81.7043 84.1908 81.6998 84.6055C81.6995 84.6379 81.6574 84.6698 81.6347 84.7019C81.6015 84.7219 81.5684 84.759 81.5351 84.7593C81.0787 84.7631 80.6222 84.7619 80.1658 84.7619C80.1658 84.1645 80.1658 83.567 80.1658 82.9696C80.2046 82.9273 80.2435 82.885 80.2817 82.8421C80.5578 82.6595 80.9223 82.6977 81.1673 82.5036C81.503 82.1253 81.321 81.5896 81.6351 81.2315C81.733 81.1512 81.8404 81.1305 81.9589 81.1772Z" fill="#171818"/>
<path d="M2.29409 3.59595C2.29409 3.05276 2.293 2.50958 2.29684 1.96646C2.2971 1.93335 2.3368 1.90057 2.35813 1.86765C2.39111 1.84632 2.42389 1.80662 2.457 1.80636C3.00038 1.80252 3.54376 1.80361 4.0872 1.80361C4.53503 2.40104 4.53503 2.99846 4.0872 3.59595C3.48952 4.04359 2.89177 4.04359 2.29409 3.59595Z" fill="#13120E"/>
<path d="M3.83104 82.9704C3.79396 83.1821 4.02143 83.2246 4.0872 83.3795C4.0872 83.8346 4.0872 84.2986 4.0872 84.7627C3.54382 84.7627 3.00038 84.7638 2.457 84.7599C2.42389 84.7596 2.39104 84.7199 2.35813 84.6986C2.3368 84.6657 2.2971 84.6328 2.29684 84.5997C2.293 84.0566 2.29409 83.5134 2.29409 82.9702C2.80641 82.5925 3.31872 82.5288 3.83104 82.9704Z" fill="#0E0908"/>
<path d="M80.1658 3.59601C80.1658 2.99859 80.1658 2.40117 80.1658 1.80368C80.6248 1.80368 81.0838 1.80233 81.5429 1.80649C81.5757 1.80681 81.6081 1.84766 81.6407 1.86969C81.6614 1.90287 81.6998 1.93591 81.7001 1.96922C81.7038 2.51144 81.7027 3.05372 81.7027 3.59601C81.1904 3.99556 80.6781 3.99556 80.1658 3.59601Z" fill="#0A0806"/>
<path d="M79.9105 82.97C54.6361 82.97 29.3618 82.97 4.08748 82.97C3.68134 82.4073 3.65021 81.8537 4.12692 81.3116C4.63303 81.0045 5.19927 81.0761 5.74745 81.076C29.8722 81.0707 53.9969 81.0704 78.1217 81.0761C78.7118 81.0762 79.3219 81.0036 79.8861 81.3647C80.3137 81.8778 80.3266 82.4172 79.9105 82.97Z" fill="#EEDCA3"/>
<path d="M79.9104 82.9699C79.9104 82.5009 79.9104 82.032 79.9104 81.5629C79.8432 81.5198 79.7772 81.4416 79.7087 81.4395C79.3252 81.4274 78.9411 81.4336 78.5573 81.4336C53.7339 81.4336 28.9106 81.4336 4.0873 81.4336C3.44569 81.6555 2.8464 81.5812 2.29419 81.1776C2.29419 80.6655 2.29419 80.1534 2.29419 79.6413C2.81144 79.2239 3.36557 79.2435 3.88596 79.4715C4.36863 79.7521 4.38457 80.2987 4.78149 80.6458C5.66652 80.9422 6.63781 80.7239 7.59015 80.8019C7.97413 80.7434 8.35882 80.762 8.74248 80.762C30.9333 80.7611 53.1241 80.7609 75.3149 80.762C75.6985 80.762 76.0833 80.7437 76.4648 80.7996C77.6963 80.8636 78.9618 80.5268 80.152 81.104C80.6314 81.7219 80.619 82.3443 80.1665 82.9698C80.0812 82.9699 79.9957 82.9699 79.9104 82.9699Z" fill="#EBD89F"/>
<path d="M2.29419 81.1777C2.75848 81.1777 3.2227 81.1777 3.67796 81.1777C3.83294 81.2435 3.87552 81.4708 4.0873 81.4338C4.0873 81.9459 4.0873 82.458 4.0873 82.9701C4.00194 82.9701 3.91651 82.9701 3.83114 82.9701C3.31883 82.9701 2.80651 82.9701 2.29419 82.9701C2.29419 82.3726 2.29419 81.7752 2.29419 81.1777Z" fill="#9C5848"/>
<path d="M76.5802 81.1782C53.5259 81.1782 30.4716 81.1782 7.41731 81.1782C7.13111 80.9084 7.09941 80.492 6.85325 80.1993C6.52139 79.9254 6.04596 79.9434 5.7282 79.6433C5.33448 79.336 5.36349 78.8006 5.07614 78.4356C4.79898 78.1569 4.3692 78.1599 4.08436 77.8967C3.71952 77.5583 3.83345 77.0087 3.51754 76.6236C3.18133 76.3148 2.62297 76.4282 2.29419 76.0573C2.29419 65.0473 2.29419 54.0373 2.29419 43.0273C3.74033 42.5963 5.27005 43.1685 6.75769 42.6831C7.07693 41.8819 7.51304 41.1635 8.30893 40.8552C8.6281 40.1741 8.54741 39.526 8.54773 38.8925C8.55292 30.2339 8.55062 21.5753 8.5519 12.9167C8.55197 12.4051 8.50579 11.8861 8.60896 11.385C8.68485 11.0165 8.60352 10.4596 9.2801 10.5463C9.65921 11.0208 9.62008 11.5901 9.61995 12.1396C9.61477 32.1941 9.6571 52.2486 9.60625 72.3C9.57109 72.7571 9.50654 73.2194 9.73228 73.6611C10.1247 74.0531 10.7949 73.9682 11.1318 74.4645C11.2199 74.59 11.2897 74.7223 11.3502 74.8617C11.5212 75.3724 11.8868 75.5997 12.4104 75.6259C12.794 75.645 13.1772 75.6505 13.5608 75.6506C32.6159 75.6511 51.6709 75.6544 70.726 75.6402C71.5635 75.6396 72.6047 75.9486 72.9216 74.6886C72.9615 74.5493 73.0255 74.4183 73.1065 74.2987C73.3932 73.9547 73.8829 74.0137 74.1986 73.7773C74.536 73.3974 74.4035 72.9605 74.4295 72.549C74.4215 72.3967 74.4117 72.2488 74.3936 72.0978C74.3526 51.8493 74.3965 31.604 74.2995 11.3585C74.0646 10.9678 73.6336 10.8937 73.3627 10.6302C73.2251 10.5008 73.2031 10.353 73.2949 10.1883C73.8502 9.8078 74.4106 9.85595 74.9952 10.1712C75.5896 10.847 75.4412 11.6884 75.4422 12.4799C75.4539 21.2621 75.4477 30.0444 75.4522 38.8265C75.4525 39.4613 75.382 40.1068 75.657 40.8054C76.3745 41.1779 76.9545 41.7741 77.1943 42.6259C78.6608 43.2805 80.3142 42.392 81.7034 43.2833C81.7034 54.208 81.7034 65.1326 81.7034 76.0573C81.4325 76.3429 81.0152 76.3855 80.7281 76.6439C80.4642 76.991 80.5143 77.4669 80.2475 77.8122C79.9258 78.2142 79.372 78.1031 78.9925 78.3788C78.6228 78.7158 78.7574 79.2802 78.4266 79.6346C78.1187 79.976 77.6381 79.9203 77.1484 80.213C76.8952 80.3841 76.9035 80.8914 76.5802 81.1782Z" fill="url(#paint1_linear_30_2517)"/>
<path d="M81.7035 43.2833C80.0403 43.2833 78.377 43.2833 76.7137 43.2833C76.6692 43.2175 76.5879 43.1526 76.5863 43.0857C76.5751 42.6171 76.5814 42.148 76.5783 41.6791C76.578 41.643 76.5484 41.6071 76.5324 41.5711C76.5009 41.5444 76.4696 41.4948 76.4377 41.4944C76.0125 41.4893 75.5873 41.491 75.1768 41.491C75.0811 41.43 75.0431 41.3611 75.0432 41.2751C75.0438 40.8914 75.0435 40.5077 75.0435 40.1241C75.0435 30.6178 75.0435 21.1116 75.0435 11.6053C75.0435 11.2217 75.0446 10.838 75.0418 10.4543C75.0415 10.417 75.0176 10.3798 75.0086 10.354C74.9719 10.3151 74.943 10.2576 74.9136 10.2573C74.3592 10.2519 73.8048 10.2533 73.2503 10.2533C72.9266 10.0241 72.8517 9.59947 72.5465 9.22618C52.2684 9.12634 31.9915 9.12647 11.7132 9.22567C11.389 9.66652 11.3741 10.1409 11.101 10.4734C10.4804 10.9775 9.84953 10.9665 9.21054 10.5094C9.11282 10.4793 9.02329 10.5045 8.99537 10.6005C8.91161 10.8883 8.9565 11.1858 8.95643 11.4786C8.95394 21.0218 8.95438 30.5649 8.95438 40.1081C8.95438 40.5319 8.95438 40.9557 8.95438 41.3921C8.47434 41.6266 7.94832 41.3666 7.46463 41.5524C7.3477 42.0948 7.47609 42.6451 7.39278 43.18C7.35909 43.2137 7.32905 43.27 7.29883 43.2701C5.76571 43.2744 4.23267 43.2739 2.68105 43.2739C2.60433 43.2009 2.51699 43.1094 2.41952 43.0304C2.39377 43.0096 2.33684 43.0273 2.29419 43.0273C2.29419 31.5906 2.29419 20.1539 2.29419 8.71713C2.84916 8.71713 3.40419 8.71713 3.95922 8.71719C4.00194 8.64956 4.08 8.58271 4.0816 8.51406C4.09249 8.0449 4.08615 7.57537 4.08961 7.10602C4.08986 7.07054 4.12259 7.03525 4.14026 6.9999C4.1726 6.97486 4.20462 6.92843 4.23728 6.92805C4.66205 6.92318 5.08683 6.92484 5.49618 6.92484C5.54177 6.87925 5.59781 6.84948 5.59826 6.81886C5.60402 6.39531 5.60216 5.97162 5.60216 5.55209C5.73056 5.41742 5.84634 5.296 5.9595 5.17733C6.04359 5.16183 6.12287 5.13436 6.20222 5.13436C30.1093 5.1325 54.0165 5.13257 77.9252 5.13257C78.1238 5.21659 78.243 5.3884 78.3845 5.56067C78.3845 5.97174 78.3845 6.39556 78.3845 6.81412C78.6571 7.03666 78.9642 6.88751 79.2484 6.92337C79.5356 6.95962 79.8358 6.85159 80.1143 6.99568C80.2178 7.2861 80.1475 7.58286 80.1661 7.87418C80.1821 8.12483 80.1335 8.37874 80.2025 8.62498C80.2343 8.6568 80.2642 8.71296 80.2947 8.71328C80.7642 8.71885 81.2339 8.71719 81.7035 8.71719C81.7035 20.2391 81.7035 31.7612 81.7035 43.2833Z" fill="#E9C95C"/>
<path d="M2.29419 76.0574C2.84845 76.0574 3.40272 76.0574 3.95711 76.0574C4.00059 76.1242 4.07994 76.1902 4.08154 76.258C4.09256 76.7265 4.08622 77.1955 4.08948 77.6643C4.08974 77.7001 4.12054 77.7357 4.13712 77.7715C4.16895 77.7975 4.20053 77.8459 4.23267 77.8463C4.65745 77.8514 5.08235 77.8497 5.48977 77.8497C5.58871 77.9122 5.62503 77.9813 5.62477 78.0679C5.62368 78.4514 5.62426 78.835 5.62426 79.243C5.72653 79.3515 5.84096 79.4729 5.96225 79.6017C6.40835 79.7222 6.87694 79.5691 7.31426 79.6751C7.35551 79.7138 7.41307 79.7425 7.41346 79.772C7.41909 80.2408 7.41743 80.7095 7.41743 81.1784C6.35367 81.1784 5.28997 81.1784 4.22614 81.1784C4.17984 81.1147 4.09576 81.052 4.09358 80.9868C4.0809 80.6045 4.08852 80.2214 4.08551 79.8387C4.08519 79.8018 4.05945 79.7652 4.04555 79.7284C4.01494 79.6996 3.98452 79.6461 3.95359 79.6459C3.40047 79.6408 2.8473 79.6421 2.29419 79.6421C2.29419 78.4471 2.29419 77.2523 2.29419 76.0574Z" fill="#C87435"/>
<path d="M2.29419 3.59644C2.89187 3.59644 3.48962 3.59644 4.0873 3.59644C4.0873 4.05528 4.08865 4.51412 4.08449 4.97297C4.08417 5.00576 4.04331 5.03816 4.02128 5.07076C3.9881 5.09144 3.95506 5.12987 3.92176 5.13006C3.37928 5.13377 2.83673 5.13269 2.29425 5.13269C2.29419 4.62062 2.29419 4.10856 2.29419 3.59644Z" fill="#ECDDA9"/>
<path d="M76.5798 81.1785C76.5798 80.7147 76.5783 80.2509 76.5832 79.7871C76.5835 79.7554 76.6316 79.7241 76.6599 79.6897C76.9409 79.5934 77.234 79.6552 77.5225 79.6442C77.7716 79.6347 78.0214 79.6422 78.2449 79.6422C78.3008 79.5863 78.3549 79.558 78.3568 79.5265C78.3899 78.9894 78.3622 78.4492 78.3758 77.9531C78.4703 77.8926 78.5035 77.853 78.537 77.8526C79.0414 77.8487 79.546 77.8499 80.038 77.8499C80.0803 77.8076 80.135 77.7787 80.1363 77.7478C80.1575 77.2099 80.172 76.6717 80.1873 76.1592C80.248 76.1093 80.2792 76.0613 80.311 76.0609C80.7749 76.0561 81.239 76.0576 81.7031 76.0576C81.7031 77.1672 81.7031 78.2767 81.7031 79.3862C81.7701 79.4487 81.7974 79.5154 81.785 79.5865C81.7723 79.6597 81.7562 79.6964 81.7378 79.696C81.4563 79.9571 81.0409 79.8831 80.7361 80.0904C80.4093 80.3329 80.5023 80.7661 80.2953 81.0632C80.2527 81.1021 80.2095 81.1403 80.1662 81.1785C78.9706 81.1785 77.7753 81.1785 76.5798 81.1785Z" fill="#C87536"/>
<path d="M80.166 3.59644C80.6783 3.59644 81.1906 3.59644 81.7029 3.59644C81.7029 4.1085 81.7029 4.62062 81.7029 5.13269C81.2448 5.13269 80.7866 5.13403 80.3285 5.12993C80.2955 5.12968 80.2628 5.09003 80.23 5.06871C80.2087 5.03592 80.1691 5.00326 80.1687 4.97028C80.1646 4.5124 80.166 4.05445 80.166 3.59644Z" fill="#EEE1AE"/>
<path d="M81.704 79.6415C81.704 79.5562 81.704 79.4708 81.704 79.3855C81.7979 79.3575 81.8774 79.3819 81.9132 79.4705C81.9418 79.5411 81.9576 79.6216 81.9582 79.6978C81.962 80.1911 81.9602 80.6844 81.9602 81.1778C81.8748 81.1778 81.7894 81.1778 81.704 81.1778C81.6556 81.1269 81.6071 81.076 81.5579 81.0254C81.3371 80.536 81.3473 80.0704 81.704 79.6415Z" fill="#9A5446"/>
<path d="M4.08813 3.59556C4.08813 2.99813 4.08813 2.40071 4.08813 1.80322C29.3625 1.80322 54.6368 1.80322 79.9112 1.80322C79.9112 2.35749 79.9112 2.91168 79.9113 3.46601C79.8442 3.50924 79.7782 3.58756 79.7098 3.58974C79.3263 3.60184 78.9422 3.59556 78.5584 3.59556C53.735 3.59556 28.9115 3.59556 4.08813 3.59556Z" fill="#EEE0AD"/>
<path d="M80.1658 82.9705C80.1658 82.373 80.1658 81.7756 80.1658 81.1781C80.6781 80.7785 81.1904 80.7785 81.7027 81.1781C81.7027 81.7204 81.7038 82.2626 81.7 82.8049C81.6998 82.8382 81.6614 82.8713 81.6407 82.9044C81.6081 82.9264 81.5756 82.9673 81.5428 82.9676C81.0838 82.9718 80.6248 82.9705 80.1658 82.9705Z" fill="#9A5446"/>
<path d="M74.7875 72.4721C74.7875 72.5575 74.7875 72.6429 74.7875 72.7282C74.5233 73.0343 74.0743 72.9987 73.7876 73.2649C73.5228 73.5523 73.5567 74.0002 73.2505 74.2645C72.9918 74.7281 72.5552 74.8593 72.0681 74.9019C71.5998 74.9427 71.1306 74.9364 70.6617 74.9364C51.5549 74.9373 32.4482 74.9391 13.3415 74.9301C12.547 74.9297 11.7054 75.0949 11.0038 74.5205C10.6384 73.9357 10.5642 73.337 10.9171 72.7159C11.0369 72.5969 11.1765 72.5113 11.3352 72.4544C12.0891 72.2481 12.8609 72.3182 13.6257 72.318C32.5149 72.3137 51.4041 72.3145 70.2932 72.3158C71.2317 72.3159 72.1696 72.3204 73.0998 72.1681C73.6917 72.105 74.2855 72.0374 74.7875 72.4721Z" fill="#030201"/>
<path d="M11.0049 10.508C11.0049 9.95346 11.0049 9.39888 11.0049 8.84423C11.0724 8.80132 11.1383 8.72479 11.2077 8.72159C11.5058 8.70789 11.8049 8.7157 12.1037 8.7157C32.1201 8.7157 52.1364 8.71538 72.1528 8.71814C72.4887 8.7182 72.8276 8.67651 73.1504 8.74464C73.1908 8.78441 73.2473 8.814 73.2477 8.84423C73.2532 9.31338 73.2516 9.78266 73.2516 10.2519C73.2516 10.3373 73.2516 10.4227 73.2516 10.508C73.1879 10.5647 73.1242 10.6213 73.0612 10.6789C72.909 10.7577 72.7484 10.8133 72.5809 10.8499C71.9029 10.9531 71.2192 10.9193 70.5375 10.9194C51.5123 10.9223 32.4872 10.9228 13.462 10.9166C12.7014 10.9163 11.9212 11.0286 11.193 10.6813C11.13 10.6242 11.0674 10.5661 11.0049 10.508Z" fill="#030203"/>
<path d="M9.211 10.5083C9.80868 10.5083 10.4064 10.5083 11.0041 10.5083C11.4924 11.0777 11.3692 11.7653 11.3784 12.4281C11.4343 12.7676 11.4193 13.1095 11.4193 13.4506C11.4199 32.1837 11.4206 50.9168 11.4188 69.6499C11.4187 70.0336 11.4363 70.4183 11.3803 70.7999C11.3749 71.4656 11.4959 72.1568 11.0041 72.7276C10.4064 73.1752 9.80862 73.1752 9.21094 72.7276C9.211 51.9878 9.211 31.2481 9.211 10.5083Z" fill="#020203"/>
<path d="M11.0049 74.5194C31.6184 74.5194 52.2319 74.5194 72.8543 74.5194C72.941 74.437 73.0285 74.3455 73.126 74.2665C73.1519 74.2456 73.2089 74.2634 73.2515 74.2634C73.2515 74.818 73.2515 75.3726 73.2516 75.9272C73.1841 75.9701 73.1181 76.0466 73.0488 76.0498C72.7506 76.0635 72.4515 76.0557 72.1528 76.0557C52.1364 76.0557 32.12 76.0559 12.1037 76.0532C11.7677 76.0532 11.4289 76.0949 11.106 76.0267C11.0656 75.987 11.0092 75.9574 11.0088 75.9271C11.0032 75.4579 11.0049 74.9886 11.0049 74.5194Z" fill="#C87435"/>
<path d="M74.7881 72.4716C74.2758 72.4716 73.7634 72.4716 73.2511 72.4716C72.8386 72.0687 72.8784 71.5546 72.8789 71.0394C72.899 51.6018 72.882 32.1643 72.897 12.7268C72.8976 11.9779 72.7066 11.1787 73.2511 10.5084C73.7202 10.5084 74.1893 10.5084 74.6584 10.5083C74.7017 10.5753 74.7801 10.6412 74.7822 10.7096C74.7944 11.0928 74.7881 11.4766 74.7881 11.8602C74.7881 32.064 74.7881 52.2679 74.7881 72.4716Z" fill="black"/>
<path d="M9.2109 72.728C9.80858 72.728 10.4063 72.728 11.004 72.728C11.004 73.3255 11.004 73.9229 11.004 74.5204C10.9625 74.5204 10.904 74.538 10.8825 74.5173C10.7939 74.4317 10.7164 74.3346 10.6547 74.2643C10.1972 74.2643 9.78226 74.2659 9.36735 74.2614C9.33501 74.2611 9.30311 74.219 9.27097 74.1964C9.25092 74.1632 9.21378 74.1302 9.21346 74.0968C9.20962 73.6405 9.2109 73.1842 9.2109 72.728Z" fill="#C17435"/>
<path d="M73.2514 74.2645C73.2514 73.8065 73.2501 73.3485 73.2542 72.8906C73.2544 72.8577 73.2941 72.825 73.3155 72.7923C73.3483 72.771 73.3809 72.7313 73.4139 72.731C73.872 72.7269 74.3302 72.7282 74.7884 72.7282C74.7884 73.1862 74.7897 73.6442 74.7856 74.1021C74.7853 74.1351 74.7457 74.1677 74.7243 74.2005C74.6916 74.2218 74.6589 74.2615 74.6259 74.2617C74.1678 74.2658 73.7096 74.2645 73.2514 74.2645Z" fill="#C67435"/>
<path d="M81.7029 81.1781C81.1906 81.1781 80.6783 81.1781 80.166 81.1781C80.166 80.7202 80.1646 80.2622 80.1687 79.8043C80.1691 79.7713 80.2087 79.7386 80.23 79.7058C80.2628 79.6845 80.2955 79.6449 80.3285 79.6445C80.7866 79.6405 81.2447 79.6418 81.7029 79.6418C81.7029 80.1539 81.7029 80.666 81.7029 81.1781Z" fill="#EEDDA4"/>
<path d="M73.2515 10.5083C73.2515 31.1627 73.2515 51.8171 73.2515 72.4716C73.2088 72.4716 73.1518 72.4538 73.126 72.4747C73.0284 72.5537 72.941 72.6452 72.8543 72.7276C52.232 72.7276 31.6184 72.7276 11.0049 72.7276C11.0049 72.1302 11.0049 71.5327 11.0049 70.9353C11.47 70.5318 12.0361 70.573 12.5943 70.5727C12.7587 70.5667 12.9218 70.5593 13.0858 70.5457C27.2855 70.4887 41.4843 70.5283 55.683 70.5234C60.9273 70.5215 66.1718 70.4785 71.4154 70.5488C71.7619 70.5267 72.0833 70.4385 72.3542 70.212C72.6869 69.5139 72.5779 68.7785 72.5781 68.0626C72.5841 50.1121 72.5823 32.1615 72.5845 14.211C72.5846 13.6146 72.5509 13.0171 72.6199 12.422C72.6248 11.7607 72.5065 11.0746 72.9953 10.5083C73.0807 10.5083 73.1661 10.5083 73.2515 10.5083Z" fill="#6A98D0"/>
<path d="M72.9953 10.5083C72.9953 11.1057 72.9953 11.7032 72.9953 12.3006C72.5069 12.735 71.9078 12.6698 71.3231 12.6734C71.0266 12.7238 70.7276 12.7149 70.4291 12.7149C51.5322 12.7146 32.6353 12.7184 13.7384 12.7133C13.5251 12.7133 13.3118 12.7136 13.1003 12.6937C12.9381 12.6815 12.7748 12.6712 12.6118 12.6679C12.0479 12.6719 11.4745 12.7121 11.0049 12.3006C11.0049 11.7032 11.0049 11.1058 11.0049 10.5083C31.6684 10.5083 52.3318 10.5083 72.9953 10.5083Z" fill="#9BBBE1"/>
<path d="M11.0049 12.301C11.5172 12.301 12.0295 12.301 12.5418 12.301C13.0643 12.9281 12.8909 13.6823 12.8978 14.3909C13.0673 31.5624 12.8385 48.7339 12.9033 65.9055C12.9078 67.0986 12.9099 68.2918 12.9001 69.4849C12.8959 69.995 12.9245 70.5171 12.5418 70.9356C12.0295 70.9356 11.5172 70.9356 11.0049 70.9356C11.0049 51.3908 11.0049 31.8459 11.0049 12.301Z" fill="#7EA8DA"/>
<path d="M12.5415 70.9357C12.5415 51.3908 12.5415 31.846 12.5415 12.301C12.6269 12.301 12.7123 12.301 12.7977 12.301C13.3868 13.0499 13.1314 13.9357 13.1996 14.7694C13.2527 15.4181 13.0441 16.1146 13.4762 16.7266C14.0669 16.5084 13.9342 15.8641 14.2345 15.6805C14.6427 15.2905 15.1134 15.2763 15.4503 15.0058C15.7756 14.6574 15.794 14.1305 16.1376 13.8081C17.4054 13.2926 66.5066 13.2711 67.8358 13.7801C68.21 14.0989 68.2271 14.6277 68.5418 14.982C68.8758 15.2536 69.3331 15.3038 69.5756 15.5213C69.9682 15.9099 70.0226 16.364 70.2698 16.711C70.6273 17.0621 71.191 16.884 71.5595 17.2117C71.9174 17.743 71.8664 18.3508 71.867 18.9414C71.8738 25.9572 71.8742 32.973 71.8677 39.9889C71.8671 40.5396 71.8923 41.0989 71.6208 41.61C71.3138 42.0721 70.7213 41.8029 70.3528 42.1136C69.9917 42.4321 70.0111 42.9785 69.5166 43.4332C68.3561 43.9014 66.9757 43.6436 65.6315 43.6504C64.6328 43.6555 63.5745 43.9292 62.6429 43.2893C62.1524 42.3692 62.3724 41.372 62.3547 40.4078C62.3306 39.0911 62.3047 37.7724 62.3737 36.456C62.4613 35.3184 62.0521 34.1251 62.7446 33.0561C63.5222 33.2265 63.2803 33.8762 63.3445 34.3676C63.4116 34.8811 63.2452 35.4541 63.7828 35.9553C64.4342 35.2346 64.1356 34.4932 64.1183 33.8654C63.8563 33.3239 63.2428 33.3892 62.9823 32.975C63.2659 32.303 63.8749 32.4796 64.3966 32.4298C64.816 32.4053 65.2456 32.4879 65.6556 32.326C66.0901 32.0978 65.9738 31.5519 66.2313 31.3105C66.5675 30.9103 67.1021 31.018 67.3689 30.6442C67.5833 30.2625 67.514 29.8446 67.5275 29.4386C67.4967 29.0352 67.6018 28.613 67.3554 28.2405C67.0578 27.9242 66.5693 28.0015 66.2599 27.709C66.012 27.4138 66.0505 26.9901 65.8018 26.6962C65.4344 26.3397 64.7934 26.5568 64.4883 26.0676C64.8421 25.3234 65.5364 25.5864 66.1155 25.5122C66.5526 25.4711 67.0485 25.6883 67.4519 25.168C67.1933 24.4712 66.577 24.7439 66.0881 24.7001C65.2011 24.7788 64.2956 24.5715 63.469 24.8633C63.049 25.2194 63.1124 25.7777 62.6411 26.255C61.6844 26.6561 60.5797 26.5864 59.5915 26.3075C59.0769 25.8856 59.1216 25.3411 58.8261 24.9731C58.4746 24.6427 57.9286 24.6909 57.5886 24.3384C57.2851 24.0161 57.3066 23.5357 56.892 23.024C53.9566 22.836 50.8761 22.8929 47.945 22.9927C47.4632 23.4402 47.4816 23.9215 47.2234 24.2631C46.9582 24.6259 46.4727 24.6586 46.1125 25.0274C45.8856 25.8354 45.307 26.4163 44.4581 26.6774C43.9098 27.5448 44.4287 28.5998 43.8572 29.4164C43.541 29.8042 42.9893 29.7607 42.5226 30.1865C42.0943 32.1419 42.6802 34.3069 42.1504 36.4412C40.3574 36.9254 38.6543 36.8254 37.1076 36.5753C36.5442 36.1452 36.567 35.6028 36.2306 35.1902C35.3939 34.6845 34.3169 35.2039 33.4303 34.7065C32.9925 34.4627 32.9758 33.8921 32.5318 33.5743C31.7594 33.2286 30.778 33.6355 30.0195 33.1218C29.6278 32.762 29.6286 32.2332 29.2925 31.8071C28.1062 31.321 26.1459 32.2501 25.8973 30.2154C25.4678 29.813 25.0631 29.7312 24.7988 29.4398C24.5075 29.117 24.4653 28.6559 24.1834 28.3274C23.8581 28.0397 23.3983 27.9956 22.999 27.659C22.6918 27.0957 22.3455 26.438 21.4796 26.4261C21.0298 26.3456 20.5812 26.1399 20.1386 26.3975C19.715 26.7187 19.8426 27.2879 19.5259 27.6417C19.2452 28.0422 18.5965 27.8501 18.3851 28.3587C18.2051 29.6277 18.2325 30.8881 18.38 32.0627C18.776 32.4397 19.1701 32.4019 19.5504 32.4225C20.1779 32.467 20.8896 32.237 21.3035 32.9627C21.045 33.4381 20.467 33.2941 19.9642 33.7134C19.6523 34.7854 19.8671 36.0161 19.867 36.9778C20.2742 37.7487 21.2351 37.3768 21.2507 38.221C20.7572 38.5954 20.1821 38.5175 19.6235 38.5209C19.2555 38.5403 18.872 38.4673 18.4495 38.736C18.1397 39.3847 18.2409 40.1094 18.3744 40.795C18.7349 41.2109 19.1752 41.1057 19.583 41.1342C20.1969 41.1827 20.897 40.9497 21.302 41.6648C21.019 42.1507 20.396 42.0256 20.0386 42.3757C19.7496 42.6437 19.7394 43.0882 19.2546 43.4685C17.7673 43.8558 16.1006 43.7001 14.6773 43.5445C13.9829 43.1007 14.0617 42.448 13.2918 41.9067C13.0628 46.5696 13.2627 50.9915 13.1732 55.4056C13.2258 59.3691 13.23 63.3311 13.1749 67.2931C13.091 68.5115 13.5132 69.7828 12.7975 70.9357C12.7123 70.9357 12.6269 70.9357 12.5415 70.9357Z" fill="#548ACD"/>
<path d="M12.7971 70.9357C12.7971 69.7408 12.7971 68.5459 12.7971 67.351C13.4998 66.7783 14.3414 66.9452 15.1359 66.9447C32.8804 66.9354 50.6249 66.9394 68.3695 66.9325C69.0828 66.9323 69.8205 67.0514 70.4921 66.6959C70.8693 66.195 70.78 65.6244 70.7826 65.0818C70.7952 62.481 70.7809 59.8802 70.7928 57.2794C70.7957 56.6457 70.7218 55.9927 71.0829 55.4109C71.1504 55.3589 71.2186 55.3078 71.2867 55.2566C71.3666 55.2864 71.4465 55.3161 71.5267 55.3454C71.8906 55.8192 71.8619 56.3816 71.8636 56.9284C71.8761 61.0355 71.874 65.1426 71.865 69.2497C71.8637 69.8396 71.8937 70.4464 71.4575 70.9356C51.9041 70.9357 32.3506 70.9357 12.7971 70.9357Z" fill="#4371C5"/>
<path d="M71.4582 70.9357C71.4582 65.7294 71.4582 60.5231 71.4582 55.3168C71.0486 54.867 71.0535 54.3048 71.0515 53.7531C71.0389 50.269 71.0366 46.7849 71.054 43.3009C71.0568 42.7569 71.0092 42.1824 71.4582 41.7464C71.4582 33.5529 71.4582 25.3594 71.4582 17.1659C70.8113 15.5443 70.8299 13.9227 71.4582 12.301C71.9705 12.301 72.4828 12.301 72.9951 12.301C72.9951 31.7789 72.9951 51.2569 72.9935 70.7347C72.9935 70.772 72.9692 70.8093 72.9602 70.8351C72.9236 70.8739 72.8948 70.9314 72.8652 70.9317C72.3963 70.9373 71.9272 70.9357 71.4582 70.9357Z" fill="#7CA6D7"/>
<path d="M71.4577 12.301C71.4577 13.9226 71.4577 15.5443 71.4577 17.1659C71.415 17.1659 71.358 17.1483 71.3323 17.1691C71.2347 17.248 71.1473 17.3395 71.0682 17.4147C70.6273 17.4147 70.2027 17.4147 69.7854 17.4147C69.748 17.3773 69.6959 17.3504 69.691 17.3166C69.6126 16.7777 69.7237 16.2279 69.6246 15.6816C69.0615 15.5593 68.5106 15.6889 67.9679 15.6036C67.7676 15.3368 67.896 15.0325 67.876 14.7472C67.8557 14.4587 67.8715 14.1677 67.8715 13.9208C67.7553 13.8693 67.7193 13.8393 67.6833 13.8393C50.5363 13.8373 33.3893 13.8373 16.2555 13.8373C16.2122 13.8806 16.1604 13.9074 16.1551 13.9415C16.0708 14.4799 16.1924 15.0304 16.0824 15.5806C15.5257 15.6982 14.9749 15.5716 14.4314 15.6557C14.2285 15.9203 14.3713 16.2257 14.3356 16.51C14.2995 16.7965 14.4113 17.0968 14.2625 17.3695C14.2198 17.3891 14.184 17.4195 14.148 17.4199C13.7641 17.4233 13.3802 17.4231 12.9963 17.4202C12.9591 17.42 12.9221 17.3951 12.885 17.3816C12.8558 17.351 12.8012 17.3205 12.801 17.2899C12.7969 15.6269 12.7974 13.964 12.7974 12.301C32.3507 12.301 51.9042 12.301 71.4577 12.301Z" fill="#4371C5"/>
<path d="M63.004 33.0415C62.9084 33.0126 62.8195 33.0367 62.7935 33.1295C62.7614 33.244 62.7501 33.3675 62.7496 33.4872C62.7464 34.4482 62.7478 35.4091 62.7478 36.3701C62.4136 36.7201 61.8711 36.6595 61.5323 36.9959C61.0925 37.8374 61.3894 38.7368 61.3141 39.6037C61.2092 40.8107 61.5217 42.0431 61.0969 43.2313C60.83 43.5926 60.3388 43.5679 59.98 43.8885C59.5307 44.6862 60.0091 45.6866 59.5729 46.5331C59.2534 47.0301 58.5864 46.8063 58.2162 47.1937C57.6884 48.0708 58.1615 49.0798 57.845 49.9813C57.7988 50.1029 57.7258 50.2067 57.6297 50.2939C57.2635 50.5414 56.7968 50.4577 56.4202 50.6635C55.9658 51.0301 56.2756 51.702 55.8559 52.08C55.5005 52.3402 55.0424 52.2714 54.6668 52.4591C54.2551 52.6964 54.3908 53.2283 54.0914 53.5222C53.8048 53.9068 53.1834 53.7061 52.9518 54.1837C52.7779 54.5792 52.8504 55.0582 52.5344 55.4027C52.1676 55.7173 51.6419 55.5538 51.2633 55.8174C50.9413 56.1841 51.095 56.7207 50.786 57.0849C50.4593 57.4571 49.9253 57.4443 49.5613 57.7475C49.2736 58.0742 49.2471 58.5391 48.8598 58.9912C47.5668 59.7008 45.9415 58.963 44.4279 59.5115C43.5219 62.0955 41.133 60.6162 39.4326 61.2657C39.0258 61.4731 38.9968 62.0468 38.5946 62.4455C34.0308 62.6533 29.4659 62.6833 24.9013 62.438C24.5564 62.0465 24.4873 61.5776 24.2168 61.3167C23.2123 60.768 21.8601 61.5482 21.1199 60.3847C20.8254 59.9218 20.8909 59.405 21.249 58.8397C22.5952 58.1117 24.2171 58.8317 25.6222 58.3396C26.0071 58.0036 25.9871 57.5239 26.2229 57.1731C27.1258 56.3336 28.3694 57.0738 29.3151 56.5273C29.6424 56.1883 29.5877 55.7141 29.8201 55.3637C30.4187 54.7904 31.1828 55.049 31.8786 54.9534C32.3593 54.8873 33.0268 54.9642 32.6667 54.1086C31.9971 53.6696 31.2551 53.9547 30.5532 53.8829C29.7616 53.802 28.9377 54.0426 28.178 53.6418C27.8453 53.3595 27.8769 52.8721 27.5439 52.5353C26.7372 52.1181 25.7505 52.5746 24.9081 52.14C24.3532 51.802 24.7297 50.994 24.1564 50.6674C23.7372 50.461 23.1865 50.5518 22.8777 50.1009C22.6368 49.5289 22.6342 48.9715 22.9567 48.4453C23.4101 48.0171 23.9602 48.0455 24.4971 48.0344C25.0568 47.9067 26.0767 48.5326 25.8858 47.1835C25.63 46.8493 25.1676 46.948 24.8622 46.6838C24.4505 46.4218 24.6613 45.7855 24.2055 45.53C23.8318 45.3528 23.3843 45.423 23.0343 45.1764C22.6008 44.7972 22.8918 44.1389 22.4793 43.7543C22.1141 43.5286 21.6579 43.6256 21.2895 43.414C21.1778 43.3353 21.098 43.2336 21.0452 43.1082C20.8982 42.6215 20.895 42.1571 21.25 41.7471C21.278 41.6533 21.2536 41.5738 21.165 41.538C21.0944 41.5094 21.0139 41.4937 20.9376 41.493C20.444 41.4892 19.9504 41.491 19.4569 41.491C18.8736 40.3816 18.8736 39.272 19.4569 38.1625C20.0546 38.1625 20.6523 38.1625 21.25 38.1625C21.6408 38.4701 21.5396 39.0471 21.9908 39.4357C22.7441 39.5919 23.5853 39.874 24.3235 39.1597C24.1992 38.3379 23.3781 38.6066 23.0933 38.2318C22.7284 37.8768 22.7486 37.4019 22.4662 37.0035C22.1909 36.662 21.6353 36.7359 21.1376 36.2911C20.8528 35.2977 20.6259 34.1737 21.2499 33.0415C21.2779 32.9477 21.2535 32.8683 21.1649 32.8324C21.0943 32.8039 21.0138 32.7881 20.9375 32.7875C20.4439 32.7836 19.9504 32.7855 19.4568 32.7855C18.7392 31.2709 19.0762 29.7018 19.214 28.1443C19.4919 27.5596 20.0612 27.385 20.492 27.2496C20.9662 26.915 20.9008 26.3931 21.2499 26.1283C21.8042 26.1283 22.3585 26.1283 22.9129 26.1282C22.9563 26.195 23.035 26.2608 23.0372 26.3289C23.0494 26.7121 23.0418 27.0959 23.0452 27.4794C23.0455 27.5153 23.0764 27.5509 23.0931 27.5866C23.125 27.6126 23.1566 27.6608 23.1887 27.6612C23.6135 27.6662 24.0384 27.6646 24.4519 27.6646C24.5837 27.7963 24.7044 27.9169 24.8362 28.0486C24.8362 28.462 24.8345 28.8867 24.8396 29.3113C24.8399 29.3434 24.8882 29.375 24.9232 29.4179C25.3644 29.537 25.8329 29.3838 26.2678 29.4894C26.3109 29.5294 26.3687 29.5579 26.3691 29.5872C26.3749 30.0132 26.3731 30.4394 26.3731 30.8651C26.4941 30.986 26.6147 31.1066 26.7574 31.2492C27.7893 31.2492 28.8439 31.2492 29.9013 31.2492C30.0271 31.851 29.9019 32.4012 29.9843 32.9386C30.0158 32.9701 30.0413 33.0101 30.0775 33.0276C30.1123 33.0443 30.1583 33.0411 30.1994 33.0411C31.1801 33.0417 32.1607 33.0408 33.1414 33.0448C33.1736 33.0449 33.2055 33.0925 33.24 33.1198C33.3348 33.3609 33.2705 33.6152 33.2893 33.8637C33.305 34.0713 33.2537 34.2831 33.3229 34.4834C33.357 34.5175 33.3871 34.5739 33.4174 34.574C34.5259 34.5785 35.6344 34.5778 36.7431 34.5778C36.7873 34.6439 36.8681 34.7091 36.8697 34.7762C36.8809 35.2447 36.8745 35.7136 36.8777 36.1824C36.8779 36.2185 36.9077 36.2544 36.9238 36.2903C36.9554 36.317 36.9869 36.3668 37.0186 36.3669C38.6379 36.3707 40.2573 36.3702 41.8734 36.3702C41.9175 36.296 41.9934 36.2276 41.9936 36.1591C41.9999 34.1135 41.9975 32.0678 42.0011 30.0221C42.0014 29.8589 41.9525 29.6869 42.0493 29.534C42.0835 29.5073 42.1155 29.4605 42.148 29.4602C42.6577 29.4556 43.1675 29.457 43.6555 29.457C43.7597 29.3924 43.7928 29.323 43.7926 29.2353C43.7914 28.2976 43.7937 27.36 43.7891 26.4225C43.7887 26.3284 43.7919 26.252 43.8869 26.1637C44.3059 26.0702 44.7715 26.1773 45.2176 26.1051C45.3442 25.9818 45.4661 25.8631 45.5855 25.7468C45.5855 25.3152 45.5855 24.8891 45.5855 24.44C46.0463 24.1882 46.5727 24.4497 47.0459 24.2842C47.0717 24.2513 47.1185 24.2193 47.1187 24.1869C47.1233 23.6773 47.1219 23.1677 47.1219 22.68C47.1866 22.5759 47.256 22.543 47.3438 22.543C50.7121 22.5439 54.0804 22.5436 57.4487 22.546C57.4836 22.546 57.5183 22.5815 57.5531 22.6004C57.5769 22.6332 57.6211 22.6658 57.6214 22.6988C57.6257 23.2078 57.6245 23.7168 57.6245 24.2104C57.8107 24.4202 58.0362 24.3142 58.2362 24.3328C58.4053 24.3486 58.578 24.3247 58.7473 24.339C58.9513 24.3562 59.1676 24.2692 59.3749 24.4101C59.484 24.9416 59.3619 25.4916 59.44 26.0228C59.4777 26.0605 59.5066 26.1156 59.5381 26.1171C60.7914 26.1765 62.2125 26.1434 62.7228 26.0439C62.7862 25.5098 62.7125 24.9624 62.7649 24.4456C62.819 24.3942 62.8495 24.3398 62.8803 24.3397C64.0314 24.3353 65.1826 24.336 66.3338 24.336C66.7335 24.8481 66.7335 25.3602 66.3338 25.8723C65.7991 25.8723 65.2644 25.8718 64.7297 25.8727C64.6283 25.8728 64.5723 25.951 64.5407 26.1283C64.8838 26.5601 64.9371 27.0193 64.6729 27.5062C64.4439 27.8458 64.082 27.9292 63.7109 28.0142C63.1998 28.1314 63.0103 28.4241 63.2906 28.9703C64.5675 29.2939 63.983 27.7435 64.7065 27.5279C65.2796 27.2327 65.8219 27.2699 66.3338 27.6646C66.7928 27.6646 67.2519 27.6632 67.7109 27.6674C67.7437 27.6677 67.7762 27.7085 67.8088 27.7306C67.8294 27.7637 67.8679 27.7968 67.8681 27.8301C67.8719 28.3723 67.8708 28.9146 67.8708 29.4569C67.6054 29.756 67.1719 29.7394 66.9472 29.9118C66.5953 30.2725 66.6762 30.713 66.4425 31.0216C66.1035 31.418 65.6206 31.5547 65.239 31.6674C64.8148 32.0018 64.8653 32.5039 64.5408 32.7855C64.0908 32.7855 63.6409 32.7849 63.1908 32.786C63.0913 32.7862 63.0364 32.8641 63.004 33.0415Z" fill="#FFFFFD"/>
<path d="M26.3736 57.1085C26.3736 57.6627 26.3736 58.2168 26.3737 58.7711C26.3067 58.8143 26.2398 58.895 26.1726 58.8953C24.7227 58.9025 23.2726 58.8995 21.8226 58.9027C21.6584 58.903 21.4879 58.8639 21.3379 58.94C21.3039 58.9801 21.2543 59.0114 21.2539 59.0433C21.2487 59.4682 21.2504 59.8933 21.2504 60.309C21.3803 60.4388 21.5009 60.5594 21.6347 60.6931C22.6432 60.6931 23.665 60.6924 24.6867 60.6963C24.7191 60.6964 24.7513 60.7431 24.8062 60.7856C24.8788 61.2204 24.803 61.6838 24.8496 62.1144C24.9032 62.168 24.9333 62.2245 24.9635 62.2245C29.4839 62.2288 34.0043 62.2292 38.5247 62.2262C38.5565 62.2262 38.5882 62.1769 38.6222 62.1488C38.7126 61.9067 38.6505 61.6526 38.6694 61.4038C38.6852 61.1964 38.631 60.9844 38.6945 60.8137C38.7449 60.7567 38.7729 60.6972 38.801 60.6972C40.3363 60.6927 41.8715 60.6932 43.4095 60.6932C43.528 60.5734 43.6478 60.4522 43.7696 60.3291C43.838 59.8784 43.738 59.4134 43.8292 58.9805C43.8926 58.9421 43.9267 58.9036 43.9608 58.9035C45.578 58.9005 47.1952 58.9009 48.7973 58.9009C49.0239 58.6134 48.8903 58.3081 48.9109 58.0233C48.9319 57.7348 48.9155 57.4434 48.9155 57.156C49.5299 57.0529 50.0807 57.171 50.6174 57.0668C50.7135 57.0481 50.7387 56.9503 50.7086 56.8525C50.9873 56.4844 50.7108 56.0113 50.9594 55.5905C51.4032 55.3224 51.908 55.474 52.3774 55.4887C52.7841 55.7386 52.8426 56.2192 53.3346 56.7012C58.4069 56.7223 63.6531 56.7128 68.6815 56.707C69.3557 56.2394 69.2869 55.6114 69.7401 55.2231C70.1991 54.9606 70.7086 54.8811 71.2014 55.3162C71.2014 59.2807 71.2015 63.2452 71.198 67.2097C71.198 67.2411 71.1471 67.2724 71.1199 67.3038C71.0837 67.3193 71.0475 67.3485 71.0112 67.3485C51.6065 67.3504 32.2018 67.3504 12.7971 67.3504C12.7971 63.339 12.7971 59.3276 12.7971 55.3162C13.297 54.9242 13.8073 54.9311 14.2845 55.2413C14.6849 55.6048 14.6665 56.148 15.0176 56.4899C15.5252 56.7711 16.0881 56.703 16.6359 56.7047C19.2759 56.7128 21.9161 56.698 24.556 56.7153C25.1814 56.7193 25.8485 56.6083 26.3736 57.1085Z" fill="#3C5CB5"/>
<path d="M71.2014 55.3177C70.733 55.3177 70.2646 55.3177 69.7961 55.3177C69.7521 55.3838 69.6718 55.4492 69.6702 55.5164C69.6592 55.9843 69.6654 56.4526 69.6624 56.9208C69.6621 56.9569 69.633 56.9929 69.6174 57.029C69.586 57.056 69.5546 57.1067 69.5233 57.1067C63.9028 57.1102 58.2823 57.1101 52.6619 57.1072C52.6286 57.1072 52.5954 57.0649 52.5376 57.0257C52.4382 56.5924 52.5569 56.1269 52.4743 55.6742C52.0952 55.5387 51.6921 55.5324 50.9945 55.655C50.9722 56.0214 50.9578 56.3935 50.9211 56.7633C50.9118 56.8572 50.8063 56.884 50.7087 56.854C50.7087 56.3951 50.7074 55.9363 50.7116 55.4774C50.7119 55.4446 50.7528 55.4122 50.7748 55.3796C50.808 55.359 50.841 55.3205 50.8743 55.3203C51.4168 55.3166 51.9593 55.3177 52.5018 55.3177C52.7645 54.926 53.4599 55.141 53.5891 54.5489C53.4602 53.9572 52.7653 54.1719 52.5018 53.7813C52.4733 53.6866 52.4982 53.6064 52.5885 53.5707C52.6599 53.5423 52.7415 53.5281 52.8187 53.5272C53.1895 53.5229 53.5603 53.5253 53.8977 53.5253C54.0121 53.456 54.0374 53.3876 54.0406 53.3012C54.0557 52.8924 53.992 52.4798 54.0853 52.0754C54.1064 51.9838 54.2001 51.9606 54.2949 51.9891C54.6856 52.2524 54.4708 52.947 55.0628 53.0759C55.6551 52.9467 55.44 52.2516 55.8319 51.9891C55.8319 51.4546 55.8314 50.9202 55.8323 50.3857C55.8324 50.2843 55.9107 50.2283 56.088 50.1967C56.5478 50.5186 56.2024 51.3077 56.8546 51.5369C57.5068 51.3074 57.1663 50.5193 57.625 50.1967C57.9542 49.8243 58.5128 49.9388 58.9068 49.5797C59.1711 48.928 59.1046 48.2312 58.967 47.5987C58.6867 47.1387 58.1426 47.226 57.8812 46.8681C57.8535 46.7749 57.8776 46.6958 57.9652 46.6599C58.0352 46.6312 58.1151 46.6149 58.1909 46.6141C58.5999 46.6098 59.009 46.6121 59.4181 46.6121C59.6853 46.339 60.086 46.2773 60.3845 46.0015C60.8764 45.1748 60.2652 44.088 60.9551 43.2834C60.9551 41.1298 60.9544 38.9762 60.9567 36.8225C60.9569 36.7013 60.9671 36.5762 60.9989 36.46C61.0247 36.3654 61.1145 36.3406 61.2112 36.3701C61.6754 36.9083 61.5731 37.5665 61.5936 38.1965C61.6403 39.6354 61.5007 41.0811 61.681 42.4124C61.9868 42.8946 62.4519 42.9798 62.7481 43.2834C65.0014 43.2834 67.2547 43.2837 69.5079 43.2805C69.5407 43.2805 69.5736 43.2368 69.6223 43.2021C69.7318 42.6779 69.6077 42.1293 69.688 41.5956C69.7221 41.5615 69.7518 41.5056 69.7822 41.5052C70.2059 41.4995 70.6297 41.5013 71.072 41.5013C71.1481 41.5738 71.2352 41.6651 71.3325 41.744C71.3581 41.7649 71.4149 41.7472 71.4575 41.7472C71.4575 46.2707 71.4575 50.7941 71.4575 55.3177C71.3722 55.3177 71.2867 55.3177 71.2014 55.3177Z" fill="#4371C5"/>
<path d="M26.3736 57.1086C22.4088 57.1086 18.4441 57.1088 14.4794 57.1054C14.4475 57.1054 14.4157 57.0564 14.3811 57.028C14.286 56.7435 14.3525 56.4474 14.3344 56.156C14.3188 55.9059 14.3685 55.6524 14.3003 55.4193C14.262 55.3783 14.2333 55.3206 14.2039 55.3203C13.735 55.3146 13.2661 55.3163 12.7971 55.3163C12.7971 50.7729 12.7971 46.2296 12.7988 41.6862C12.7988 41.6495 12.8249 41.6128 12.8388 41.5761C12.8694 41.5474 12.8996 41.4939 12.9305 41.4935C13.3552 41.488 13.7801 41.4898 14.2049 41.4897C14.248 41.5566 14.3266 41.6227 14.3282 41.6906C14.3392 42.1573 14.333 42.6246 14.336 43.0916C14.3363 43.1278 14.3646 43.1639 14.38 43.2C14.4111 43.2273 14.4422 43.2786 14.4734 43.2787C16.0877 43.2826 17.7019 43.2825 19.3161 43.2787C19.3475 43.2786 19.3787 43.2282 19.4213 43.1915C19.5321 42.7518 19.3783 42.2843 19.4988 41.8363C19.5245 41.7407 19.616 41.7159 19.7134 41.7458C20.0193 42.0097 19.9855 42.4576 20.2516 42.744C20.5384 43.0095 20.9863 42.9763 21.2503 43.2821C21.709 43.6048 21.3685 44.3927 22.0207 44.6222C22.6729 44.3931 22.3275 43.604 22.7873 43.2821C22.8811 43.2541 22.9605 43.2785 22.9965 43.3671C23.025 43.4376 23.0409 43.5181 23.0414 43.5944C23.0453 44.0877 23.0434 44.5811 23.0434 45.0744C23.4352 45.337 23.2202 46.0321 23.8125 46.1612C24.4044 46.0323 24.1897 45.3377 24.5804 45.0744C24.6752 45.0459 24.7553 45.0709 24.7911 45.161C24.8194 45.2325 24.8337 45.3139 24.8346 45.3911C24.8389 45.7617 24.8365 46.1324 24.8365 46.4696C24.9059 46.584 24.9743 46.6093 25.0607 46.6125C25.4698 46.6276 25.8825 46.5639 26.2871 46.6572C26.3787 46.6783 26.402 46.772 26.3735 46.8668C26.1058 47.1659 25.6689 47.1528 25.4321 47.3428C25.1091 47.6915 25.1424 48.1391 24.8365 48.4031C24.2932 48.4031 23.7497 48.4019 23.2063 48.4058C23.1732 48.4061 23.1404 48.4458 23.1075 48.4671C23.0861 48.5 23.0464 48.5329 23.0462 48.5659C23.0423 49.1091 23.0434 49.6522 23.0434 50.1954C23.4827 50.5294 23.2084 51.2787 23.7616 51.5539C24.4661 51.3065 24.1206 50.5173 24.5804 50.1954C24.6742 50.1675 24.7537 50.1919 24.7896 50.2805C24.8181 50.351 24.834 50.4315 24.8345 50.5077C24.8384 51.001 24.8365 51.4944 24.8365 51.9878C25.1098 52.2548 25.1714 52.6553 25.4473 52.9537C26.2744 53.4454 27.3617 52.8344 28.1666 53.5241C29.8084 53.5241 31.4502 53.524 33.092 53.5244C33.2031 53.5244 33.2615 53.6019 33.2898 53.7802C32.3689 54.4172 31.3231 54.029 30.338 54.1393C29.7883 54.2008 29.1654 53.9832 28.7119 54.4962C28.9419 55.1491 29.6778 54.8714 29.9597 55.3164C29.9597 55.8634 29.9609 56.4105 29.9566 56.9575C29.9564 56.9897 29.9112 57.0215 29.8868 57.0536C29.8524 57.0719 29.8179 57.1063 29.7834 57.1064C28.6469 57.1092 27.5103 57.1086 26.3736 57.1086Z" fill="#4371C5"/>
<path d="M21.2505 33.0397C21.2505 34.0989 21.2498 35.158 21.2536 36.2172C21.2537 36.2495 21.2995 36.2816 21.3357 36.3292C21.8592 36.431 22.4061 36.3159 22.9368 36.3897C22.973 36.4259 23.0286 36.4554 23.0291 36.4859C23.038 36.9927 23.0387 37.4997 23.0465 38.0065C23.0471 38.0394 23.0912 38.0716 23.1272 38.1207C23.6499 38.225 24.197 38.1064 24.7317 38.1838C24.764 38.2161 24.8196 38.2457 24.8201 38.276C24.8258 38.6979 24.824 39.1198 24.824 39.5995C24.7293 39.6702 24.5943 39.7711 24.3807 39.9307C24.4175 39.9239 24.3388 39.9507 24.26 39.951C23.3742 39.9541 22.4883 39.953 21.6598 39.953C21.489 39.7967 21.3646 39.6828 21.2504 39.5781C21.2504 39.0927 21.2504 38.6267 21.2504 38.1606C21.2799 38.0641 21.2552 37.9745 21.1606 37.9485C21.0446 37.9168 20.9196 37.9077 20.7983 37.9064C20.3811 37.9017 19.9638 37.9046 19.5425 37.9046C19.3674 37.5558 19.4876 37.2166 19.4621 36.8914C19.4391 36.5978 19.4572 36.301 19.4572 36.0057C19.4572 35.6681 19.4572 35.3306 19.4572 34.9931C19.4572 34.6977 19.4467 34.4019 19.4601 34.1072C19.475 33.7768 19.4041 33.4417 19.4956 33.1268C19.5408 33.0906 19.5723 33.0433 19.6042 33.043C20.153 33.0385 20.7017 33.0397 21.2505 33.0397Z" fill="#3F5FB6"/>
<path d="M62.7487 43.2821C62.2833 43.2821 61.8178 43.2821 61.3522 43.2822C61.3054 43.2194 61.2178 43.1568 61.2176 43.0938C61.2106 40.8522 61.2117 38.6105 61.2117 36.3689C61.7241 36.3689 62.2364 36.3689 62.7487 36.3689C62.7487 38.6732 62.7487 40.9777 62.7487 43.2821Z" fill="#4160B7"/>
<path d="M19.4572 27.9198C19.4572 29.5414 19.4572 31.1631 19.4572 32.7847C18.9931 32.7847 18.5289 32.7862 18.0648 32.7814C18.0331 32.781 18.0019 32.7329 17.9705 32.7069C17.9537 32.6717 17.9224 32.6364 17.9223 32.6012C17.9199 31.0408 17.9202 29.4803 17.9202 27.9198C18.4326 27.7255 18.9449 27.7245 19.4572 27.9198Z" fill="#3C5CB5"/>
<path d="M19.4571 38.1621C19.4571 39.2716 19.4571 40.3812 19.4571 41.4907C18.9891 41.4907 18.5212 41.4907 18.0531 41.4907C18.0087 41.425 17.9264 41.3596 17.9259 41.2934C17.9176 40.3154 17.9197 39.3374 17.9219 38.3593C17.9219 38.3224 17.9477 38.2856 17.9615 38.2488C17.992 38.2199 18.0223 38.1661 18.0532 38.1658C18.5211 38.1605 18.9891 38.1621 19.4571 38.1621Z" fill="#3C5CB5"/>
<path d="M63.003 33.0396C63.5006 33.0396 63.9982 33.0396 64.4553 33.0396C64.5076 33.1547 64.5378 33.1902 64.5379 33.2258C64.5404 34.237 64.5399 35.2483 64.5399 36.2511C64.1757 36.4069 64.1693 36.4071 63.0698 36.3069C63.0475 36.2739 63.0059 36.2409 63.0058 36.2078C63.0023 35.1517 63.003 34.0956 63.003 33.0396Z" fill="#4361B8"/>
<path d="M19.4579 27.9209C18.9456 27.9209 18.4333 27.9209 17.921 27.9209C17.8915 27.8244 17.9174 27.7431 18.0104 27.7075C18.0836 27.6796 18.1668 27.6675 18.2457 27.6666C18.6202 27.6626 18.9948 27.6648 19.3298 27.6648C19.3978 27.5968 19.4532 27.5673 19.4536 27.5371C19.4593 27.1159 19.4575 26.6946 19.4575 26.2424C19.5693 26.1486 19.6977 26.0409 19.8769 25.8907C20.0909 25.8358 20.3835 25.8854 20.6733 25.8734C20.7996 25.8682 20.9263 25.8695 21.0526 25.8743C21.0898 25.8757 21.1279 25.8954 21.1623 25.913C21.2517 25.9586 21.2804 26.0321 21.251 26.1286C21.251 26.6188 21.251 27.1091 21.251 27.5545C21.1588 27.6196 21.1269 27.6616 21.0945 27.6619C20.6796 27.6664 20.2646 27.6649 19.8071 27.6649C19.7455 27.7351 19.668 27.8324 19.5793 27.9178C19.5579 27.9385 19.4994 27.9209 19.4579 27.9209Z" fill="#4061B7"/>
<path d="M64.5422 32.7844C64.5422 32.2941 64.5422 31.8039 64.5422 31.3585C64.6344 31.2934 64.6664 31.2514 64.6987 31.2511C65.1136 31.2466 65.5286 31.2481 65.9859 31.2481C66.0477 31.1778 66.1251 31.0807 66.2138 30.9952C66.2353 30.9745 66.2939 30.9921 66.3353 30.9921C66.8477 30.5924 67.36 30.5926 67.8723 30.9921C67.9013 31.0878 67.8758 31.1686 67.7841 31.2043C67.7117 31.2324 67.6293 31.2455 67.5511 31.2463C67.1784 31.2505 66.8056 31.2482 66.4634 31.2482C66.4036 31.308 66.3508 31.3354 66.348 31.3675C66.3071 31.8168 66.3754 32.2722 66.3063 32.6964C66.2405 32.7405 66.2079 32.7814 66.1749 32.7816C65.6307 32.7856 65.0864 32.7844 64.5422 32.7844Z" fill="#405FB6"/>
<path d="M66.3356 27.6649C65.7379 27.6649 65.1402 27.6649 64.5425 27.6649C64.5425 27.1529 64.5425 26.6407 64.5425 26.1287C65.1189 26.1287 65.6953 26.1287 66.2276 26.1287C66.2915 26.2232 66.3325 26.2557 66.3327 26.2884C66.3369 26.7472 66.3356 27.2061 66.3356 27.6649Z" fill="#4964B9"/>
<path d="M69.612 27.6646C69.7072 28.0826 69.6527 28.419 69.6621 28.7524C69.6678 28.9583 69.6933 29.1684 69.6399 29.3551C69.5929 29.3994 69.5627 29.4528 69.5318 29.4531C69.1079 29.4587 68.6839 29.4569 68.2598 29.4569C68.2159 29.391 68.1357 29.3259 68.1342 29.259C68.1231 28.793 68.1274 28.3268 68.1301 27.8605C68.1304 27.8239 68.1563 27.7874 68.1702 27.7507C68.2007 27.722 68.2309 27.6687 68.2617 27.6682C68.6857 27.6628 69.1097 27.6646 69.612 27.6646Z" fill="#4463B8"/>
<path d="M67.8714 30.9921C67.3591 30.9921 66.8468 30.9921 66.3344 30.9921C66.3344 30.5341 66.3331 30.0761 66.3372 29.6182C66.3375 29.5853 66.3772 29.5526 66.3985 29.5198C66.4313 29.4985 66.4639 29.4588 66.4969 29.4585C66.9551 29.4545 67.4132 29.4558 67.8714 29.4558C67.8714 29.9679 67.8714 30.48 67.8714 30.9921Z" fill="#405EB6"/>
<path d="M66.3345 25.8713C66.3345 25.3592 66.3345 24.8471 66.3345 24.335C66.8018 24.335 67.2691 24.335 67.7365 24.335C67.7815 24.3999 67.8636 24.4638 67.8654 24.53C67.8773 24.9489 67.8714 25.3683 67.8714 25.7465C67.7978 25.8145 67.7674 25.8672 67.7364 25.8676C67.2691 25.8729 66.8018 25.8713 66.3345 25.8713Z" fill="#3C5CB5"/>
<path d="M21.251 43.2831C20.7929 43.2831 20.3347 43.2845 19.8765 43.2804C19.8436 43.2801 19.8109 43.2404 19.7781 43.2191C19.7568 43.1863 19.7172 43.1536 19.7168 43.1207C19.7127 42.6627 19.7141 42.2048 19.7141 41.7468C20.2264 41.7468 20.7387 41.7468 21.251 41.7468C21.251 42.259 21.251 42.771 21.251 43.2831Z" fill="#4561B7"/>
<path d="M29.9605 55.317C29.4069 55.317 28.8534 55.317 28.2998 55.3171C28.2556 55.2511 28.1755 55.1863 28.1733 55.1189C28.1611 54.7363 28.1661 54.353 28.1694 53.97C28.1698 53.9338 28.1988 53.8978 28.2145 53.8617C28.2458 53.8347 28.2772 53.7842 28.3087 53.7842C29.9693 53.7803 31.63 53.7808 33.2906 53.7808C33.2906 54.243 33.292 54.7052 33.2874 55.1673C33.2871 55.1994 33.2414 55.231 33.2168 55.2628C33.1823 55.2809 33.1478 55.3147 33.1132 55.3148C32.0623 55.3176 31.0114 55.317 29.9605 55.317Z" fill="#4460B7"/>
<path d="M57.8817 46.8673C58.3498 46.8673 58.8178 46.8673 59.2859 46.8672C59.3302 46.933 59.4124 46.9985 59.4129 47.0647C59.4212 48.0428 59.4191 49.021 59.4169 49.9992C59.4168 50.036 59.3908 50.0728 59.3769 50.1095C59.3463 50.1383 59.3159 50.1918 59.2849 50.1921C58.7318 50.1972 58.1786 50.1958 57.6255 50.1958C57.6255 49.1512 57.6253 48.1067 57.6258 47.0622C57.6259 46.9544 57.7039 46.8965 57.8817 46.8673Z" fill="#415FB7"/>
<path d="M60.9545 43.2824C60.9545 44.3329 60.955 45.3833 60.9522 46.4337C60.9521 46.4683 60.9183 46.5027 60.9002 46.5373C60.8683 46.5619 60.8367 46.6076 60.8046 46.6079C60.3423 46.6126 59.8799 46.6111 59.4175 46.6111C59.4175 45.5607 59.417 44.5103 59.4198 43.4598C59.4198 43.4253 59.4536 43.3908 59.4718 43.3563C59.5036 43.3317 59.5352 43.286 59.5673 43.2857C60.0297 43.281 60.4921 43.2824 60.9545 43.2824Z" fill="#3D5CB5"/>
<path d="M28.1669 53.5241C27.116 53.5241 26.0652 53.5247 25.0143 53.5218C24.9797 53.5218 24.9452 53.488 24.9107 53.4699C24.8861 53.4381 24.8404 53.4064 24.8401 53.3744C24.8355 52.9122 24.8369 52.45 24.8369 51.9878C25.8878 51.9878 26.9386 51.9873 27.9895 51.9901C28.0241 51.9902 28.0586 52.024 28.0931 52.0421C28.1177 52.074 28.1634 52.1055 28.1637 52.1376C28.1684 52.5997 28.1669 53.062 28.1669 53.5241Z" fill="#3E5CB5"/>
<path d="M64.5424 27.6642C64.5424 28.2114 64.5436 28.7585 64.5392 29.3056C64.539 29.3378 64.4936 29.3696 64.4692 29.4016C64.4347 29.4199 64.4003 29.4539 64.3657 29.4541C63.863 29.4576 63.3604 29.4565 62.8662 29.4565C62.709 29.0879 62.7076 29.0461 62.8042 27.7372C62.8362 27.7129 62.868 27.6676 62.9003 27.6673C63.4476 27.663 63.995 27.6642 64.5424 27.6642Z" fill="#4C67BA"/>
<path d="M22.7876 43.2833C22.7876 43.8356 22.7876 44.388 22.7877 44.9403C22.7228 44.9854 22.6591 45.0674 22.5928 45.0695C22.2107 45.082 21.8279 45.0768 21.4453 45.0737C21.4086 45.0734 21.3722 45.0469 21.3356 45.0325C21.3073 45.0018 21.2546 44.9712 21.2543 44.9402C21.2493 44.3879 21.2507 43.8355 21.2507 43.2832C21.763 43.2833 22.2753 43.2833 22.7876 43.2833Z" fill="#4360B7"/>
<path d="M57.6255 50.1965C57.6255 50.7489 57.6255 51.3012 57.6256 51.8536C57.5607 51.8987 57.497 51.9806 57.4307 51.9827C57.0486 51.9952 56.6658 51.99 56.2833 51.987C56.2466 51.9866 56.2101 51.9601 56.1736 51.9458C56.1453 51.9151 56.0925 51.8845 56.0922 51.8535C56.0872 51.3012 56.0885 50.7489 56.0885 50.1965C56.6009 50.1965 57.1132 50.1965 57.6255 50.1965Z" fill="#4360B7"/>
<path d="M24.5796 50.1966C24.5796 50.7489 24.5796 51.3013 24.5797 51.8536C24.5148 51.8988 24.4511 51.9806 24.3848 51.9828C24.0027 51.9953 23.6199 51.99 23.2374 51.987C23.2007 51.9867 23.1643 51.9601 23.1277 51.9458C23.0994 51.9151 23.0466 51.8845 23.0463 51.8535C23.0413 51.3012 23.0426 50.7489 23.0426 50.1965C23.555 50.1966 24.0673 50.1966 24.5796 50.1966Z" fill="#4662B8"/>
<path d="M24.8369 48.4035C24.8369 47.9455 24.8355 47.4875 24.8396 47.0296C24.84 46.9966 24.8796 46.964 24.9009 46.9312C24.9337 46.9099 24.9664 46.8702 24.9993 46.8699C25.4575 46.8658 25.9156 46.8672 26.3738 46.8672C26.3738 47.3251 26.3752 47.7831 26.3711 48.241C26.3708 48.274 26.3311 48.3066 26.3098 48.3394C26.277 48.3608 26.2443 48.4004 26.2114 48.4007C25.7532 48.4048 25.295 48.4035 24.8369 48.4035Z" fill="#4862B8"/>
<path d="M24.5797 45.076C24.5797 45.5431 24.5797 46.0102 24.5797 46.4774C24.5148 46.5224 24.4508 46.6044 24.3846 46.6062C23.9655 46.6181 23.5459 46.6122 23.1676 46.6122C23.0995 46.5387 23.0468 46.5083 23.0464 46.4772C23.0411 46.0102 23.0427 45.5431 23.0427 45.0759C23.555 45.076 24.0674 45.076 24.5797 45.076Z" fill="#4563B8"/>
<path d="M52.5025 53.7808C52.9698 53.7808 53.4372 53.7808 53.9045 53.7808C53.9496 53.8457 54.0313 53.9095 54.0334 53.9759C54.0458 54.3576 54.0406 54.7401 54.0375 55.1222C54.0373 55.1589 54.0108 55.1953 53.9966 55.2319C53.9658 55.2603 53.9354 55.3131 53.9043 55.3134C53.4371 55.3187 52.9697 55.3171 52.5024 55.3171C52.5025 54.805 52.5025 54.2929 52.5025 53.7808Z" fill="#4862B8"/>
<path d="M55.8316 51.9878C55.8316 52.4549 55.8316 52.922 55.8316 53.3892C55.7666 53.4343 55.7028 53.5159 55.6364 53.518C55.2545 53.5304 54.8719 53.5253 54.4896 53.5222C54.4529 53.5219 54.4165 53.4955 54.3799 53.4813C54.3515 53.4506 54.2987 53.4202 54.2983 53.3891C54.2931 52.9221 54.2947 52.4549 54.2947 51.9878C54.8069 51.9878 55.3192 51.9878 55.8316 51.9878Z" fill="#4563B8"/>
<path d="M22.7877 50.1643C22.5837 50.1787 22.4617 50.1988 22.3408 50.1936C22.007 50.1794 21.6705 50.2366 21.3584 50.1676C21.3121 50.124 21.2549 50.0953 21.2546 50.066C21.2492 49.5575 21.2507 49.0489 21.2506 48.5403C21.3148 48.4946 21.378 48.4116 21.4434 48.4096C21.862 48.3977 22.2812 48.4035 22.65 48.4035C22.7262 48.4754 22.7834 48.5041 22.7837 48.5333C22.7892 49.0419 22.7877 49.5505 22.7877 50.1643Z" fill="#4060B7"/>
<defs>
<linearGradient id="paint0_linear_30_2517" x1="41.7639" y1="0" x2="41.7639" y2="9.05516" gradientUnits="userSpaceOnUse">
<stop stop-color="#DF8B1D"/>
<stop offset="1" stop-color="#ECB523"/>
</linearGradient>
<linearGradient id="paint1_linear_30_2517" x1="41.7639" y1="9.9187" x2="41.7639" y2="81.1782" gradientUnits="userSpaceOnUse">
<stop stop-color="#DF8B1D"/>
<stop offset="1" stop-color="#ECB523"/>
</linearGradient>
</defs>
</svg>
