<svg width="84" height="87" viewBox="0 0 84 87" fill="none" xmlns="http://www.w3.org/2000/svg">
<path d="M2.29437 82.9721C1.73952 82.9721 1.1846 82.9721 0.629679 82.9722C0.586835 82.9047 0.510242 82.8387 0.507104 82.7694C0.493399 82.4713 0.501276 82.1723 0.501276 81.8737C0.501276 56.1471 0.501276 30.4206 0.501276 4.69409C0.501276 4.35755 0.501276 4.02094 0.501276 3.7259C0.569929 3.65629 0.59958 3.59974 0.629808 3.59949C1.18466 3.59417 1.73952 3.59565 2.29444 3.59565C2.34714 3.65431 2.39985 3.71303 2.45352 3.77131C2.71782 4.2953 2.63514 4.86264 2.66114 5.41769C2.7923 7.29359 2.64519 9.16802 2.64827 11.043C2.66588 21.7861 2.65301 32.5292 2.65992 43.2724C2.64935 53.957 2.65646 64.6415 2.65999 75.3261C2.66043 76.6872 2.76207 78.048 2.67702 79.4084C2.65678 79.9532 2.70168 80.5006 2.65205 81.0456C2.62937 81.6385 2.7214 82.2458 2.44929 82.8109C2.39825 82.8648 2.34631 82.9185 2.29437 82.9721Z" fill="#030303"/>
<path d="M4.08771 1.8025C4.08771 1.24784 4.08771 0.693238 4.08765 0.138511C4.15515 0.0956669 4.22117 0.0191333 4.29053 0.0159313C4.58871 0.00222638 4.88785 0.0101072 5.1866 0.0101072C29.8144 0.0101072 54.4423 0.00984869 79.0701 0.0125384C79.406 0.0126025 79.7449 -0.0290205 80.0679 0.0390556C80.1082 0.0787613 80.1648 0.10841 80.1651 0.138573C80.1704 0.693173 80.169 1.24778 80.169 1.80244C80.1052 1.85944 80.0415 1.91637 79.9784 1.97439C79.3793 2.27955 78.7295 2.21359 78.0941 2.21371C54.1169 2.21877 30.1396 2.21852 6.1624 2.21378C5.52704 2.21365 4.87715 2.28018 4.27708 1.9765C4.21362 1.91918 4.15066 1.86084 4.08771 1.8025Z" fill="#040202"/>
<path d="M80.1689 84.7645C80.1689 85.3191 80.1689 85.8737 80.169 86.4285C80.1015 86.4713 80.0355 86.5478 79.9661 86.551C79.6679 86.5647 79.3688 86.5569 79.07 86.5569C54.4422 86.5569 29.8144 86.5571 5.18658 86.5544C4.85062 86.5544 4.51171 86.5959 4.18881 86.5278C4.14847 86.4881 4.09186 86.4585 4.0916 86.4283C4.08628 85.8737 4.08769 85.3191 4.08769 84.7644C4.15142 84.7074 4.21514 84.6504 4.27828 84.5925C4.87733 84.2873 5.52715 84.3533 6.16251 84.3531C30.1398 84.3481 54.117 84.3483 78.0943 84.353C78.7296 84.3531 79.3795 84.2867 79.9796 84.5903C80.0431 84.6478 80.106 84.7061 80.1689 84.7645Z" fill="#030303"/>
<path d="M83.4992 3.59446C83.4992 29.9862 83.4992 56.3778 83.4976 82.7695C83.4976 82.8069 83.4735 82.8442 83.4635 82.8731C83.4286 82.9096 83.3996 82.9667 83.3698 82.9671C82.9006 82.9727 82.4314 82.9711 81.9622 82.9711C81.552 82.5699 81.5669 82.0483 81.5684 81.5374C81.6442 56.3015 81.5766 31.0656 81.6061 5.82971C81.6069 5.11424 81.4729 4.3759 81.819 3.69078C82.3586 3.31031 82.928 3.43615 83.4992 3.59446Z" fill="black"/>
<path d="M81.9624 3.59605C81.9624 30.0549 81.9624 56.5137 81.9624 82.9726C81.9624 83.5071 81.9628 84.0415 81.962 84.576C81.9619 84.6774 81.8836 84.7334 81.7062 84.765C81.3551 84.4622 81.461 83.9856 81.272 83.6203C81.0488 83.2459 80.6121 83.3138 80.2862 83.1473C80.1706 83.0835 80.082 82.9947 80.0116 82.8843C79.807 82.3627 79.8118 81.8387 79.9837 81.3125C80.0391 81.1918 80.1252 81.0965 80.2377 81.0263C80.5518 80.84 80.9869 80.9081 81.2443 80.5391C81.4304 80.1699 81.347 79.7516 81.3377 79.3377C81.3159 78.1967 81.3062 77.0585 81.3308 75.9188C81.2419 67.3482 81.31 58.7789 81.2952 50.2097C81.2912 47.9078 81.2458 45.6054 81.3252 43.3039C81.2509 35.4977 81.3052 27.6913 81.2958 19.885C81.2914 16.2593 81.2599 12.6333 81.3147 9.00935C81.3255 8.85162 81.3346 8.69202 81.3375 8.53365C81.3249 7.54203 81.3252 6.54901 81.345 5.55643C81.344 5.40676 81.3464 5.25677 81.3469 5.10704C81.3252 4.58562 81.345 4.06413 81.3477 3.54219C81.3375 2.93597 81.2716 2.31791 81.7062 1.80385C81.7995 1.77618 81.8785 1.80026 81.9145 1.88793C81.9432 1.95787 81.9596 2.03779 81.9603 2.11348C81.9646 2.52233 81.9624 2.9313 81.9624 3.34014C82.0561 3.39707 82.0872 3.45388 82.0561 3.51087C82.0251 3.56755 81.9939 3.59605 81.9624 3.59605Z" fill="#945143"/>
<path d="M2.29447 3.59502C2.29447 3.05182 2.29332 2.50862 2.29722 1.96549C2.29748 1.93238 2.33719 1.89959 2.35851 1.86667C2.39149 1.84535 2.42428 1.80564 2.45739 1.80539C3.00078 1.80154 3.54418 1.80263 4.08763 1.80263C4.53067 2.40161 4.53214 3.00859 4.12145 3.62403C3.50607 4.04357 2.89665 4.04037 2.29447 3.59502Z" fill="#13110E"/>
<path d="M4.08774 84.7638C3.54435 84.7638 3.00089 84.7649 2.4575 84.761C2.42439 84.7608 2.39153 84.7211 2.35862 84.6997C2.33729 84.6668 2.29752 84.6339 2.29733 84.6008C2.29349 84.0577 2.29458 83.5145 2.29458 82.9713C2.89381 82.5285 3.50105 82.527 4.11681 82.9375C4.53641 83.5527 4.53327 84.1619 4.08774 84.7638Z" fill="#0F0A0A"/>
<path d="M81.7058 1.80255C81.7058 2.4 81.7058 2.99743 81.7058 3.59494C81.2286 3.97291 80.7235 3.98336 80.1958 3.71086C80.0753 3.60871 79.9884 3.48281 79.9322 3.33526C79.7838 2.78982 79.7844 2.26634 80.1688 1.80249C80.6811 1.80255 81.1935 1.80255 81.7058 1.80255Z" fill="#141210"/>
<path d="M80.1687 82.9707C80.6614 82.9707 81.154 82.9707 81.6026 82.9707C81.6644 83.07 81.7029 83.1029 81.7031 83.1362C81.7069 83.6785 81.7058 84.2208 81.7058 84.7631C81.1935 84.7631 80.6811 84.7631 80.1688 84.7631C79.7347 84.1656 79.6962 83.5681 80.1687 82.9707Z" fill="#110E0D"/>
<path d="M81.9622 3.59435C81.9622 3.50898 81.9622 3.42368 81.9622 3.33831C82.4121 3.33831 82.8621 3.33767 83.3121 3.33882C83.4119 3.33908 83.4667 3.41695 83.4992 3.59441C82.9868 3.59435 82.4745 3.59435 81.9622 3.59435Z" fill="url(#paint0_linear_30_2365)"/>
<path d="M81.706 5.38726C81.706 6.41148 81.706 7.4357 81.706 8.45991C81.2981 8.80036 80.8773 8.80081 80.5058 8.55527C80.1033 8.23237 80.1725 7.71588 79.8176 7.45152C79.4373 7.19753 78.9284 7.28251 78.5682 6.97972C78.1553 6.59182 78.5499 5.71932 77.7189 5.58483C77.2883 5.52924 76.861 5.54474 76.4344 5.54474C53.6003 5.54596 30.766 5.54506 7.93182 5.54526C7.46252 5.54526 6.99265 5.53091 6.53104 5.59418C5.71201 5.72092 6.09049 6.57984 5.69958 6.96665C5.34576 7.277 4.85738 7.20348 4.46736 7.40476C4.18686 8.22315 3.40075 8.65345 2.98749 9.36943C2.91109 18.7423 2.98666 28.1094 2.95387 37.4764C2.94779 39.2208 3.03828 40.9672 2.88784 42.7103C2.85659 42.8727 2.79633 43.0243 2.71147 43.1659C2.65313 43.2222 2.59364 43.2783 2.53421 43.3343C2.45428 43.3173 2.37436 43.3003 2.29443 43.2832C2.29443 30.5658 2.29443 17.8485 2.29443 5.13122C2.43846 5.03926 2.59588 4.99719 2.76629 5.00404C3.70258 5.12674 3.96304 4.35235 4.56054 3.48978C29.4993 3.48978 54.6175 3.48965 79.7271 3.48991C80.1721 4.51598 80.8662 5.03638 81.706 5.38726Z" fill="url(#paint1_linear_30_2365)"/>
<path d="M2.29456 43.2832C2.37993 43.2832 2.46536 43.2832 2.55073 43.2832C3.10417 43.894 2.94349 44.6525 2.94439 45.359C2.95675 54.6988 2.95131 64.0386 2.95425 73.3785C2.95445 74.0144 2.90097 74.6578 3.12781 75.3385C3.78929 75.8002 4.55446 76.2383 4.61703 77.0806C5.04399 77.4753 5.51246 77.5007 5.84009 77.7838C6.17381 78.0839 6.22184 78.5368 6.43529 78.902C6.69159 79.266 7.17529 79.32 7.49659 79.6939C7.78689 80.1085 7.80642 80.5914 7.56998 81.0948C6.59405 81.8583 5.49337 81.5201 4.42497 81.451C4.28978 81.4122 4.16464 81.3461 4.0534 81.2599C3.76284 80.9562 3.82746 80.472 3.51603 80.173C3.15867 79.8809 2.61624 80.0142 2.29443 79.6428C2.29456 67.5229 2.29456 55.4031 2.29456 43.2832Z" fill="#C87435"/>
<path d="M4.08772 82.9704C3.49002 82.9704 2.89226 82.9704 2.29456 82.9704C2.29456 82.373 2.29456 81.7755 2.29456 81.178C2.89226 80.7304 3.49002 80.7304 4.08772 81.178C4.49323 81.6907 4.48004 82.2418 4.23911 82.8144C4.18922 82.8667 4.13844 82.9185 4.08772 82.9704Z" fill="#985546"/>
<path d="M2.55072 5.132C2.46535 5.132 2.37992 5.132 2.29456 5.132C2.29456 4.61992 2.29456 4.10778 2.29456 3.5957C2.89226 3.5957 3.49002 3.5957 4.08772 3.5957C4.12774 3.66026 4.16771 3.72481 4.2078 3.78943C4.18154 4.23484 4.30155 4.69261 4.08823 5.15954C3.58141 5.29992 3.06677 5.33661 2.55072 5.132Z" fill="#E9DCA9"/>
<path d="M4.08772 81.1798C3.49002 81.1798 2.89225 81.1798 2.29456 81.1798C2.29456 80.6677 2.29456 80.1556 2.29456 79.6435C2.83705 79.6435 3.37961 79.6424 3.92211 79.6461C3.95541 79.6464 3.98845 79.6848 4.02163 79.7054C4.04366 79.738 4.08458 79.7705 4.08484 79.8032C4.08906 80.2621 4.08772 80.721 4.08772 81.1798Z" fill="#E9D79F"/>
<path d="M80.169 1.80249C80.169 2.31463 80.169 2.82671 80.169 3.33885C79.7853 3.95275 79.169 3.7083 78.6515 3.70881C64.5778 3.72156 50.5041 3.719 36.4304 3.719C26.1097 3.719 15.789 3.72092 5.46825 3.71266C5.00882 3.71227 4.52985 3.83639 4.08765 3.59495C4.08765 2.99751 4.08765 2.40006 4.08765 1.80255C29.4481 1.80249 54.8086 1.80249 80.169 1.80249Z" fill="#EEE0AD"/>
<path d="M80.1689 82.9721C80.1689 83.5695 80.1689 84.167 80.1689 84.7645C54.8085 84.7645 29.4481 84.7645 4.08765 84.7645C4.08765 84.167 4.08765 83.5695 4.08765 82.9721C4.78909 82.3974 5.63073 82.562 6.42542 82.5614C21.1416 82.5517 35.8579 82.5545 50.5742 82.5545C59.7025 82.5545 68.8308 82.5508 77.9592 82.5606C78.7135 82.5614 79.5101 82.4216 80.1689 82.9721Z" fill="#964F42"/>
<path d="M7.41769 81.1802C7.41769 80.7115 7.41769 80.2428 7.41775 79.774C7.35096 79.7305 7.28519 79.6518 7.21698 79.6497C6.8337 79.6375 6.44983 79.6451 6.06622 79.6417C6.0303 79.6413 5.99469 79.6106 5.95895 79.594C5.93282 79.5622 5.88434 79.5306 5.88402 79.4986C5.87929 78.9888 5.88069 78.4789 5.88069 77.9795C5.84009 77.9389 5.81268 77.8861 5.77938 77.882C5.23977 77.8162 4.69298 77.8746 4.19051 77.8448C4.13185 77.7565 4.09067 77.7232 4.09035 77.6896C4.08625 77.1813 4.08747 76.6729 4.08747 76.1871C4.03508 76.1347 4.00806 76.0825 3.97437 76.0778C3.52032 76.0147 3.05512 76.1146 2.62271 76.0197C2.58685 75.9504 2.55278 75.9153 2.55271 75.8803C2.55047 65.015 2.55054 54.1496 2.55054 43.2843C3.16367 42.7726 3.90444 42.9365 4.60678 42.8952C5.31252 42.8537 6.03721 43.0113 6.69543 42.7196C7.08788 42.3809 7.0636 41.8444 7.45439 41.4349C8.04555 41.078 8.69929 40.9888 9.34527 41.5327C9.62462 41.995 9.61944 42.5122 9.61918 43.022C9.61354 52.8206 9.65664 62.6191 9.60266 72.4151C9.565 72.8357 9.56334 73.2539 9.7497 73.6544C10.2285 74.0492 10.9897 74.0442 11.2654 74.7229C11.4887 75.3785 11.9576 75.6541 12.6337 75.6404C12.9316 75.6344 13.2305 75.6504 13.5291 75.6504C32.5938 75.6509 51.6586 75.6534 70.7233 75.6425C71.5761 75.6419 72.5869 75.9056 72.9727 74.7203C73.2421 74.0437 73.9919 74.0501 74.4682 73.6867C74.7589 73.2104 74.674 72.7047 74.6466 72.2041C74.6181 62.5747 74.6359 52.9478 74.6352 43.3208C74.6351 42.7278 74.5914 42.1226 74.891 41.5716C75.3778 41.0362 75.9339 41.168 76.3831 41.3222C76.94 41.7258 76.8812 42.3416 77.2916 42.7094C78.6983 43.2654 80.3166 42.4241 81.7059 43.2842C81.7059 54.2092 81.7059 65.1341 81.7059 76.059C81.4298 76.3374 81.0217 76.403 80.7558 76.6325C80.472 77.0089 80.5076 77.4842 80.233 77.826C79.9076 78.221 79.3499 78.1156 78.9933 78.3881C78.6386 78.76 78.7421 79.3172 78.393 79.6636C78.0761 79.9857 77.5905 79.9329 77.1765 80.2258C76.8301 80.501 76.9193 81.1728 76.3767 81.4036C75.8016 81.6298 75.1997 81.5943 74.6048 81.5945C52.9003 81.5983 31.1958 81.5992 9.49135 81.5898C8.78299 81.5895 8.02551 81.7336 7.41769 81.1802Z" fill="url(#paint2_linear_30_2365)"/>
<path d="M9.21085 41.4916C8.65728 41.4916 8.1037 41.4916 7.55006 41.4916C7.50588 41.5576 7.42512 41.6227 7.42358 41.6898C7.41244 42.1577 7.41872 42.6261 7.41571 43.0942C7.41545 43.1305 7.38663 43.1665 7.37113 43.2026C7.33982 43.2298 7.30856 43.2807 7.27712 43.2807C5.70157 43.2846 4.12609 43.284 2.55054 43.284C2.55054 31.7616 2.55054 20.2392 2.55054 8.71681C2.9401 8.42862 3.45128 8.75741 3.85641 8.45846C4.13659 7.98468 3.78366 7.40171 4.08753 6.92448C4.59986 6.92448 5.1122 6.92448 5.62453 6.92448C5.9701 6.36418 5.5489 5.69436 5.88069 5.13208C30.0457 5.13208 54.2107 5.13208 78.3757 5.13208C78.7075 5.69436 78.2862 6.36418 78.6318 6.92448C79.1442 6.92448 79.6565 6.92448 80.1688 6.92448C80.4728 7.40178 80.1195 7.98501 80.3998 8.45802C80.8051 8.75863 81.3167 8.42677 81.7058 8.71681C81.7058 20.2392 81.7058 31.7616 81.7058 43.284C80.0452 43.284 78.3844 43.2845 76.7238 43.2807C76.6923 43.2806 76.661 43.23 76.6271 43.2009C76.537 42.9158 76.6004 42.6201 76.5826 42.3288C76.5674 42.0791 76.618 41.8258 76.5513 41.6055C76.5067 41.5551 76.4791 41.4961 76.4507 41.4957C75.9824 41.49 75.514 41.4917 75.0456 41.4917C74.47 40.8411 74.6461 40.0407 74.6449 39.2947C74.6314 30.6176 74.6386 21.9404 74.6327 13.2633C74.6322 12.5893 74.7216 11.9005 74.4408 11.2612C74.1164 10.8719 73.5763 10.8803 73.2299 10.5561C72.927 10.2389 72.8769 9.7845 72.6272 9.2374C52.3381 9.12667 32.0516 9.12686 12.0082 9.12737C11.371 9.63106 11.3799 10.1742 11.059 10.5231C10.7243 10.8692 10.1865 10.8649 9.83782 11.2331C9.52613 11.8582 9.62527 12.5501 9.62475 13.2232C9.61809 21.9127 9.62552 30.6021 9.61194 39.2915C9.61073 40.0385 9.7871 40.84 9.21085 41.4916Z" fill="#E9C95C"/>
<path d="M7.4178 81.1785C30.4727 81.1785 53.5277 81.1785 76.5826 81.1785C77.7781 80.5888 78.9735 80.5619 80.1689 81.1785C80.1689 81.776 80.1689 82.3734 80.1689 82.9709C54.8085 82.9709 29.4481 82.9709 4.08765 82.9709C4.08765 82.3735 4.08765 81.776 4.08765 81.1785C5.19768 81.1785 6.30777 81.1785 7.4178 81.1785Z" fill="#EEDCA3"/>
<path d="M4.08785 3.59607C29.3129 3.59607 54.538 3.59607 79.7719 3.59607C79.8585 3.51365 79.946 3.42214 80.0436 3.34318C80.0694 3.3223 80.1264 3.34004 80.1691 3.34004C80.1691 3.42541 80.1691 3.51071 80.1691 3.59607C80.4767 3.85999 80.4392 4.30944 80.7048 4.59692C80.9924 4.86224 81.4415 4.82599 81.7061 5.13243C81.7061 5.2178 81.7061 5.3031 81.7061 5.38847C81.1519 5.38847 80.5977 5.38847 80.0433 5.38853C79.9998 5.3218 79.9209 5.25616 79.9188 5.18808C79.9066 4.80492 79.9142 4.42118 79.9107 4.0377C79.9104 4.00178 79.8797 3.96617 79.8631 3.93044C79.8313 3.90437 79.7995 3.85538 79.7676 3.85538C54.6606 3.85212 29.5536 3.85218 4.46569 3.85218C4.25192 4.0965 4.36764 4.36022 4.34824 4.60262C4.32851 4.84879 4.34388 5.09772 4.34388 5.3006C4.2313 5.35446 4.19582 5.38603 4.16015 5.38629C3.69124 5.38962 3.22226 5.38937 2.75329 5.38687C2.71582 5.38668 2.67644 5.36734 2.64141 5.34998C2.54996 5.30451 2.52056 5.23016 2.55072 5.13249C3.00888 5.13249 3.46709 5.13384 3.92525 5.12974C3.95823 5.12948 3.99089 5.08985 4.02368 5.06852C4.045 5.03573 4.08464 5.00307 4.08497 4.97009C4.08919 4.51206 4.08785 4.0541 4.08785 3.59607Z" fill="url(#paint3_linear_30_2365)"/>
<path d="M80.1691 81.1797C78.9736 81.1797 77.7782 81.1797 76.5827 81.1797C76.5827 80.7158 76.5812 80.252 76.5861 79.7882C76.5864 79.7565 76.6345 79.7252 76.6628 79.6908C76.9439 79.5945 77.2369 79.6563 77.5254 79.6453C77.7746 79.6358 78.0244 79.6433 78.2478 79.6433C78.3037 79.5874 78.3579 79.5591 78.3598 79.5276C78.3929 78.9904 78.3652 78.4502 78.3788 77.9541C78.4733 77.8936 78.5065 77.854 78.54 77.8537C79.0444 77.8497 79.549 77.8509 80.041 77.8509C80.0833 77.8086 80.1381 77.7798 80.1393 77.7488C80.1605 77.2109 80.1751 76.6727 80.1903 76.1602C80.251 76.1103 80.2822 76.0622 80.314 76.0619C80.778 76.057 81.2421 76.0586 81.7061 76.0586C81.7061 77.2535 81.7061 78.4484 81.7061 79.6434C81.4422 79.9491 80.9943 79.9161 80.7078 80.1818C80.4418 80.4682 80.4749 80.9158 80.1691 81.1797Z" fill="#C77435"/>
<path d="M80.169 81.1799C80.169 80.7219 80.1677 80.2639 80.1718 79.806C80.1721 79.773 80.2117 79.7403 80.2331 79.7075C80.2659 79.6862 80.2985 79.6466 80.3315 79.6463C80.7897 79.6422 81.2478 79.6435 81.706 79.6435C81.706 80.1015 81.7074 80.5595 81.7033 81.0174C81.703 81.0504 81.6634 81.083 81.642 81.1158C81.6092 81.1371 81.5765 81.1768 81.5436 81.177C81.0854 81.1811 80.6272 81.1799 80.169 81.1799Z" fill="#E5D49D"/>
<path d="M81.706 5.132C81.2479 5.132 80.7896 5.13334 80.3315 5.12924C80.2985 5.12899 80.2658 5.08934 80.2331 5.06802C80.2117 5.03523 80.1721 5.00257 80.1718 4.96959C80.1677 4.51162 80.169 4.05366 80.169 3.5957C80.6813 3.5957 81.1937 3.5957 81.706 3.5957C81.706 4.10778 81.706 4.61986 81.706 5.132Z" fill="#E5D8A7"/>
<path d="M81.706 8.71608C81.2469 8.71608 80.7878 8.71742 80.3288 8.71326C80.296 8.71293 80.2636 8.67208 80.231 8.65005C80.2103 8.61688 80.1719 8.58383 80.1716 8.55052C80.1679 8.00829 80.169 7.46598 80.169 6.92368C80.2661 6.89397 80.356 6.91894 80.3818 7.01404C80.4135 7.13066 80.4153 7.25599 80.4245 7.37799C80.4495 7.71024 80.3795 8.04678 80.4588 8.3666C80.5002 8.40413 80.5306 8.45594 80.5618 8.45639C80.9431 8.46196 81.3245 8.46004 81.7059 8.46004C81.706 8.5454 81.706 8.63077 81.706 8.71608Z" fill="url(#paint4_linear_30_2365)"/>
<path d="M4.08777 6.92375C4.08777 7.46605 4.08886 8.00829 4.08515 8.55059C4.08489 8.5839 4.04647 8.61695 4.02578 8.65012C3.99318 8.67215 3.96072 8.713 3.92793 8.71332C3.46894 8.71755 3.00983 8.71621 2.55078 8.71621C2.52241 8.62168 2.54585 8.53542 2.63672 8.50583C2.99279 8.38992 3.36615 8.51377 3.72639 8.43731C3.80842 8.38851 3.83071 8.31979 3.83378 8.23263C3.84826 7.82475 3.78441 7.41309 3.87849 7.00976C3.89975 6.9185 3.99325 6.89538 4.08777 6.92375Z" fill="url(#paint5_linear_30_2365)"/>
<path d="M5.88055 5.13208C5.88055 5.66657 5.881 6.201 5.88017 6.73549C5.87998 6.83686 5.80172 6.8929 5.62439 6.92448C5.62439 6.38999 5.62394 5.85556 5.62477 5.32107C5.6249 5.21969 5.70316 5.16365 5.88055 5.13208Z" fill="url(#paint6_linear_30_2365)"/>
<path d="M78.6321 6.92302C78.5383 6.95101 78.4588 6.92661 78.4229 6.83797C78.3943 6.76747 78.3785 6.68697 78.3779 6.61069C78.3741 6.11738 78.3759 5.624 78.3759 5.13063C78.4698 5.10264 78.5492 5.12704 78.5852 5.21567C78.6137 5.28618 78.6295 5.36675 78.6301 5.44296C78.634 5.93627 78.6321 6.42965 78.6321 6.92302Z" fill="url(#paint7_linear_30_2365)"/>
<path d="M9.21069 41.489C9.21069 31.2277 9.21063 20.9664 9.21236 10.7051C9.21236 10.6681 9.23765 10.6311 9.24098 10.6219C9.28665 10.57 9.31431 10.5108 9.34262 10.5105C9.89632 10.5051 10.4501 10.5065 11.0039 10.5065C11.0539 10.5608 11.104 10.6151 11.1549 10.6691C11.3855 11.1619 11.346 11.69 11.3587 12.2138C11.3642 12.3742 11.3645 12.5324 11.3644 12.6927C11.3828 32.2329 11.33 51.7711 11.3941 71.3093C11.3956 71.7831 11.3801 72.2489 11.1154 72.667C10.4974 73.206 9.86078 73.1848 9.21069 72.7276C9.21069 62.3147 9.21069 51.9019 9.21069 41.489Z" fill="#020202"/>
<path d="M73.2523 10.5064C73.806 10.5064 74.3598 10.5064 74.9136 10.5063C74.9576 10.5726 75.0373 10.6376 75.0395 10.7052C75.0518 11.088 75.0455 11.4714 75.0455 11.8546C75.0455 21.7327 75.0455 31.6108 75.0455 41.4889C75.0455 51.8163 75.0455 62.1439 75.0455 72.4713C74.4469 73.2396 73.7946 73.2193 73.1002 72.6047C72.8816 72.2189 72.8571 71.7947 72.8587 71.3661C72.9336 51.6878 72.8679 32.0093 72.8941 12.331C72.8948 11.7817 72.8258 11.2193 73.0799 10.6963C73.1368 10.6328 73.1946 10.5696 73.2523 10.5064Z" fill="#020201"/>
<path d="M73.2522 74.5219C73.2522 74.9912 73.2522 75.4605 73.2523 75.9298C73.1848 75.9727 73.1188 76.0492 73.0494 76.0524C72.7513 76.0661 72.4522 76.0582 72.1534 76.0582C52.1365 76.0582 32.1196 76.0585 12.1027 76.0557C11.7668 76.0557 11.4279 76.0974 11.105 76.0292C11.0647 75.9895 11.0082 75.9599 11.0078 75.9296C11.0022 75.4605 11.0039 74.9911 11.0039 74.5219C11.0675 74.4649 11.1311 74.4081 11.194 74.3502C11.7929 74.045 12.4427 74.1114 13.0779 74.1112C32.4437 74.1062 51.8095 74.1064 71.1753 74.1099C71.7284 74.11 72.286 74.0775 72.8287 74.2353C72.9939 74.2954 73.1347 74.3916 73.2522 74.5219Z" fill="#C87435"/>
<path d="M73.2526 74.5221C73.1672 74.5221 73.0818 74.5221 72.9964 74.5221C72.794 73.9515 72.9216 73.4046 73.115 72.8619C73.1604 72.8176 73.2065 72.7737 73.2526 72.7298C73.7169 72.7298 74.1811 72.7298 74.6364 72.7298C74.7914 72.6641 74.834 72.4367 75.0457 72.4738C75.0457 73.0141 75.0468 73.5544 75.0433 74.0947C75.0431 74.1284 75.0075 74.162 74.9883 74.1956C74.9565 74.2191 74.9249 74.2628 74.8928 74.2632C74.4771 74.2678 74.0612 74.2662 73.6003 74.2662C73.54 74.3355 73.4628 74.4331 73.3744 74.5192C73.3529 74.5398 73.2941 74.5221 73.2526 74.5221Z" fill="#C57535"/>
<path d="M9.21077 72.7297C9.80847 72.7297 10.4062 72.7297 11.0039 72.7297C11.0536 72.7822 11.1032 72.8346 11.1537 72.8866C11.3959 73.4583 11.4096 74.0095 11.0039 74.5221C10.9624 74.5221 10.9039 74.5397 10.8824 74.5191C10.7937 74.4335 10.7163 74.3363 10.6546 74.2661C10.1638 74.2661 9.71561 74.2661 9.31189 74.2661C9.25086 74.1649 9.21365 74.1319 9.2134 74.0986C9.20949 73.6423 9.21077 73.186 9.21077 72.7297Z" fill="#C37335"/>
<path d="M11.0038 10.508C11.0038 9.95336 11.0038 9.39876 11.0038 8.8441C11.0713 8.80119 11.1372 8.72466 11.2065 8.72146C11.5047 8.70775 11.8038 8.71563 12.1025 8.71563C32.1195 8.71563 52.1364 8.71563 72.1534 8.71563C72.49 8.71563 72.8267 8.71563 73.1211 8.71563C73.1913 8.78448 73.2479 8.81413 73.2482 8.84422C73.2535 9.39876 73.2521 9.95336 73.2521 10.508C73.1194 10.6189 72.9734 10.708 72.8148 10.7768C72.2349 10.97 71.6333 10.9209 71.0387 10.921C51.7636 10.9251 32.4884 10.9255 13.2132 10.918C12.4593 10.9176 11.6628 11.0582 11.0038 10.508Z" fill="#030203"/>
<path d="M72.9961 10.5063C73.0815 10.5063 73.1669 10.5063 73.2523 10.5063C73.2523 31.2467 73.2523 51.987 73.2523 72.7274C72.7599 73.1664 72.1489 73.139 71.5546 73.1393C51.9369 73.1472 32.3192 73.1471 12.7015 73.1393C12.1073 73.139 11.4962 73.1666 11.0039 72.7274C11.0039 52.5844 11.0039 32.4416 11.0039 12.2987C11.087 12.2841 11.1701 12.2695 11.2531 12.2547C11.3819 12.368 11.4748 12.5059 11.5337 12.6669C11.7412 13.4202 11.6676 14.1926 11.6678 14.9577C11.6726 32.6634 11.67 50.3691 11.6767 68.0749C11.677 68.7025 11.5663 69.3483 11.89 70.1014C12.2405 69.4192 12.1233 68.7983 12.1235 68.2101C12.1309 50.4617 12.1283 32.7134 12.1328 14.965C12.133 14.1998 12.061 13.4276 12.2604 12.6717C12.3158 12.5099 12.4072 12.3712 12.5315 12.2547C12.6144 12.2521 12.6981 12.2496 12.7811 12.2466C12.8377 12.3064 12.8951 12.3668 12.9531 12.426C13.4278 14.1079 13.0987 15.8249 13.1724 17.5256C13.235 25.5058 13.2333 33.4854 13.1775 41.4651C13.2261 46.0757 13.2336 50.6864 13.177 55.2971C13.2251 59.3085 13.232 63.32 13.1768 67.3312C13.281 68.2947 13.0767 69.2873 13.3696 70.1962C14.6054 70.6388 69.5288 70.6603 70.8226 70.2356C71.2429 69.3223 70.9462 68.3196 71.0795 67.3609C71.0317 63.3582 71.0239 59.3559 71.0802 55.3537C71.0226 51.2213 71.0619 47.0887 71.0602 42.9561C71.06 42.5304 71.0696 42.1018 71.26 41.7044C71.3428 41.537 71.4777 41.4645 71.6631 41.4858C72.3021 42.1077 72.1149 42.918 72.1163 43.6615C72.1317 51.8451 72.1242 60.0289 72.1285 68.2126C72.1288 68.793 72.067 69.3849 72.3272 70.1782C72.6852 69.3848 72.5799 68.7602 72.5801 68.162C72.5867 50.1323 72.5849 32.1026 72.587 14.0728C72.5871 13.5193 72.5559 12.9645 72.621 12.4122C72.6256 11.7532 72.5092 11.0701 72.9961 10.5063Z" fill="#6A98D0"/>
<path d="M72.9961 10.5063C72.9961 11.1038 72.9961 11.7012 72.9961 12.2987C72.6826 12.5689 72.3072 12.6631 71.9193 12.5729C70.6534 12.2784 69.3709 12.4116 68.097 12.4109C50.5301 12.401 32.9631 12.4048 15.3962 12.4022C14.6721 12.4021 13.9464 12.4416 13.2249 12.3508C12.9985 12.3183 12.7855 12.108 12.5409 12.2988C12.1139 12.6367 11.687 12.6367 11.2601 12.2988C11.1609 12.2273 11.0866 12.1308 11.0039 12.0428C11.0039 11.5307 11.0039 11.0186 11.0039 10.5065C31.668 10.5064 52.332 10.5063 72.9961 10.5063Z" fill="#9BBBE1"/>
<path d="M11.0039 12.0452C11.2082 12.0787 11.2265 12.097 11.2601 12.3012C11.1747 12.3012 11.0893 12.3012 11.0039 12.3012C11.0039 12.2159 11.0039 12.1305 11.0039 12.0452Z" fill="#7DA7D9"/>
<path d="M11.0039 72.7297C31.7534 72.7297 52.5028 72.7297 73.2523 72.7297C73.2523 73.1938 73.2523 73.6578 73.2523 74.1129C73.1865 74.2678 72.959 74.3103 72.9961 74.5221C52.332 74.5221 31.668 74.5221 11.0039 74.5221C11.0039 73.9246 11.0039 73.3272 11.0039 72.7297Z" fill="#030201"/>
<path d="M12.797 41.4904C12.797 33.4674 12.797 25.4444 12.797 17.4214C13.0702 17.1481 13.4428 17.0081 13.7048 16.7541C13.9617 16.3864 14.0213 15.9367 14.3232 15.6185C14.6356 15.3106 15.0961 15.2647 15.4331 14.9973C15.7664 14.6549 15.7819 14.1232 16.1942 13.7574C16.6609 13.4078 17.2704 13.4394 17.8632 13.4391C33.9493 13.4304 50.0354 13.434 66.1215 13.4304C67.206 13.4302 68.0688 13.6145 68.663 14.7255C69.0582 15.4646 70.1069 15.7706 70.2619 16.6763C70.6833 17.0501 71.2124 17.0511 71.5546 17.3977C71.9302 17.9709 71.8699 18.6224 71.8706 19.2555C71.8782 26.0207 71.88 32.7859 71.8675 39.5512C71.8662 40.2162 71.9926 40.9286 71.4591 41.4906C71.1375 41.7847 70.7057 41.8783 70.4023 42.0388C70.0074 42.4432 70.0067 42.9769 69.4658 43.4898C67.4453 43.8091 65.233 43.7725 62.9632 43.4798C62.2658 41.2927 62.9574 39.1285 62.5027 37.0642C62.1464 36.5511 61.5958 36.806 61.1315 36.7216C60.931 36.6448 60.8305 36.4907 60.7923 36.2878C60.7693 35.332 61.0717 34.3588 60.6893 33.4716C60.3166 33.0574 59.751 33.1532 59.4252 32.7906C59.0018 32.3432 59.1146 31.7754 59.0717 31.2395C59.0366 30.8013 59.1875 30.3032 58.6398 29.9289C57.9275 30.5809 58.2994 31.3575 58.3207 32.0149C58.6223 32.507 59.2191 32.4531 59.4724 32.8829C59.4734 33.0422 59.4024 33.1535 59.2601 33.2237C58.7251 33.445 58.2043 33.4308 57.5786 33.0843C56.9884 32.0938 57.3119 30.905 57.2447 29.7712C57.2178 29.2223 57.4691 28.621 56.966 28.1353C56.1151 28.2339 56.6515 29.3236 55.9549 29.507C55.3206 29.0734 55.5172 28.4087 55.4757 27.8114C55.4475 27.3717 55.5546 26.9156 55.3264 26.4864C55.0703 26.1481 54.575 26.1928 54.2998 25.8748C54.0055 25.6146 54.0019 25.1849 53.6735 24.8359C52.9596 24.6803 52.1818 24.4469 51.3668 25.0915C52.2565 25.9804 53.5441 25.0746 54.3269 25.9281C54.3676 26.0796 54.3215 26.1944 54.1894 26.2777C53.0243 26.6544 51.874 26.5934 50.8742 26.296C50.3704 25.847 50.4061 25.3072 50.0826 24.9453C49.2567 24.3969 48.1094 25.102 47.3491 24.2716C47.597 23.5711 48.2199 23.8053 48.714 23.7353C49.2181 23.6639 49.7977 23.8635 50.2602 23.2649C49.2992 22.5794 48.2732 23.0563 47.334 22.9072C47.1177 22.8375 47.004 22.6812 46.9558 22.4678C46.8863 22.1012 47.0233 21.698 46.6112 21.1722C43.6963 21.0735 40.6319 21.086 37.719 21.1699C37.1875 21.6212 37.3662 22.1024 37.217 22.4858C37.144 22.6027 37.0435 22.6899 36.9192 22.7483C36.0176 23.1036 34.9827 22.6417 33.951 23.2019C34.8219 24.1964 36.1058 23.313 36.8959 24.0504C36.8453 24.7359 36.278 24.603 35.8678 24.6696C35.3363 24.7557 34.7783 24.626 34.3252 24.8192C33.8238 25.0724 33.9089 25.7124 33.4234 25.8946C32.9629 25.72 33.0429 25.1755 32.6769 24.8376C32.0643 24.559 31.3672 24.6651 30.7225 24.7622C30.2452 25.0152 30.3082 25.5257 30.0479 25.8456C29.7098 26.2603 29.1015 26.0799 28.744 26.4458C28.4528 26.7848 28.513 27.2681 28.2021 27.7016C27.9813 28.0426 27.3323 27.8407 27.092 28.3214C26.9272 28.7564 26.9994 29.2067 26.9913 29.6519C26.8952 30.7116 27.3363 31.8411 26.5781 32.8091C25.8905 32.5339 26.096 31.9094 26.0278 31.3938C25.9641 30.912 26.1721 30.3588 25.5917 29.9278C24.8809 30.6092 25.2552 31.3885 25.2893 32.0529C25.602 32.4922 26.1275 32.4635 26.3879 32.8307C26.3117 33.4188 25.6312 33.2864 25.3093 33.8146C24.8372 34.5078 25.7158 35.7301 24.6401 36.4225C24.0627 35.9402 24.3024 35.2657 24.2252 34.6645C24.1658 34.2017 24.384 33.6448 23.73 33.2914C23.0561 34.2255 23.6673 35.3719 23.1986 36.3018C23.1202 36.4251 23.0156 36.5159 22.8852 36.5798C22.5466 36.7443 22.1351 36.7416 21.7611 37.1354C21.4752 38.4876 21.6992 39.9681 21.6263 41.4332C21.5932 42.0974 21.7396 42.7975 21.2661 43.3829C18.9738 43.9423 16.6841 43.6795 14.5818 43.5226C14.0246 43.0382 13.9921 42.5292 13.7117 42.135C13.443 41.8915 13.0733 41.7565 12.797 41.4904Z" fill="#548ACD"/>
<path d="M12.797 67.3528C12.797 63.3413 12.797 59.3298 12.797 55.3183C13.2915 54.9209 13.8 54.9522 14.26 55.2169C14.6701 55.6005 14.6659 56.1278 15.0956 56.6051C16.7295 56.8449 18.5015 56.648 20.2615 56.7204C21.18 56.7583 22.1249 56.5472 23.0067 56.9779C23.8004 57.8664 23.1002 59.0855 23.6945 60.0616C24.3975 60.4561 25.1405 60.3197 25.8034 60.1833C26.3138 59.7856 26.2674 59.1639 26.6845 58.8291C27.4756 58.2891 28.4655 58.745 29.2502 58.3427C29.6468 57.9886 29.6079 57.437 30.0148 57.0445C30.5433 56.6933 31.1397 56.6982 31.6886 57.0176C32.1175 57.3902 32.0505 57.9481 32.4332 58.3438C33.8401 58.852 35.4522 58.1508 36.7903 58.7798C37.2069 59.1741 37.2189 59.6463 37.6346 60.2027C40.5501 60.422 43.6266 60.3251 46.509 60.2599C47.0478 59.7267 47.0242 59.1799 47.4341 58.816C48.1825 58.2984 49.1632 58.7209 49.9915 58.3529C50.3967 58.0457 50.3261 57.4819 50.7605 57.0256C51.5313 56.4211 52.665 56.9831 53.6014 56.5484C53.952 56.2705 53.9626 55.7771 54.2806 55.4769C54.8147 55.1785 55.3449 55.1738 55.8714 55.4922C56.1442 55.7706 56.2087 56.1775 56.685 56.6978C60.6125 56.739 64.7597 56.72 68.702 56.7068C69.3605 56.2474 69.2855 55.6156 69.7598 55.217C70.2886 54.8987 70.8797 54.8733 71.4591 55.3184C71.4591 59.3299 71.4591 63.3413 71.4591 67.3528C70.9668 67.7918 70.3558 67.7644 69.7616 67.7646C51.3393 67.7726 32.9169 67.7726 14.4946 67.7646C13.9003 67.7643 13.2893 67.7918 12.797 67.3528Z" fill="#3C5CB5"/>
<path d="M12.797 67.3521C32.351 67.3521 51.9051 67.3521 71.4591 67.3521C71.4591 68.5039 71.4591 69.6558 71.4591 70.8077C71.3918 70.8508 71.3261 70.9277 71.2569 70.9309C70.9588 70.9447 70.6597 70.9368 70.3609 70.9368C51.539 70.9368 32.7171 70.9368 13.8952 70.9368C13.5586 70.9368 13.222 70.9368 12.9313 70.9368C12.8584 70.8667 12.801 70.8373 12.8009 70.8076C12.7963 69.6558 12.797 68.5039 12.797 67.3521Z" fill="#4371C5"/>
<path d="M71.4594 55.318C70.9072 55.318 70.355 55.318 69.8028 55.318C69.7572 55.3823 69.6737 55.4459 69.6723 55.5113C69.6613 56.0153 69.6663 56.5197 69.6663 57.0266C69.3111 57.1973 68.9702 57.0855 68.6424 57.1051C68.2614 57.1279 67.8782 57.1104 67.4959 57.1104C67.1561 57.1104 66.8163 57.1104 66.4765 57.1104C66.1367 57.1104 65.7969 57.1104 65.4571 57.1104C65.0749 57.1104 64.6926 57.1104 64.3103 57.1104C63.9705 57.1104 63.6307 57.1104 63.291 57.1104C62.9512 57.1104 62.6114 57.1104 62.2716 57.1104C61.9318 57.1104 61.592 57.1104 61.2522 57.1104C60.8699 57.1104 60.4876 57.1104 60.1054 57.1104C59.7656 57.1104 59.4258 57.1104 59.086 57.1104C58.7462 57.1104 58.4064 57.1104 58.0666 57.1104C57.6843 57.1104 57.3018 57.1192 56.9198 57.1078C56.586 57.0979 56.2489 57.1549 55.9276 57.0775C55.8899 57.0367 55.8372 57.0062 55.8369 56.9751C55.8316 56.5081 55.8332 56.0411 55.8332 55.5742C56.0256 54.9714 56.6929 55.1203 57.1 54.7656C57.4272 54.3885 57.3129 53.7109 57.8461 53.3947C58.1651 53.196 58.5857 53.2389 58.9097 52.9283C59.2508 52.2177 58.9744 51.3983 59.1351 50.6271C59.1599 50.4965 59.2063 50.3746 59.2698 50.2594C59.3419 50.1499 59.4385 50.0673 59.5557 50.0098C59.8955 49.8451 60.3147 49.9134 60.7036 49.5862C61.0008 48.9821 60.8789 48.279 60.8214 47.7674C60.5725 47.0462 59.7508 47.3205 59.638 46.6908C60.0705 46.1424 60.6907 46.2806 61.2618 46.2388C61.5949 46.1791 61.946 46.1636 62.2871 45.6984C62.4503 43.5625 62.3014 41.2631 62.3673 38.9697C62.3925 38.0936 62.144 37.1652 62.7497 36.3701C62.8473 36.3401 62.9376 36.3653 62.9634 36.4613C62.9949 36.5787 63.004 36.705 63.0042 36.8275C63.0065 38.7856 63.0049 40.7436 63.0077 42.7017C63.0079 42.8664 62.9709 43.0361 63.0297 43.1619C63.0814 43.2203 63.1094 43.2796 63.1376 43.2796C65.2668 43.2839 67.3961 43.2839 69.5253 43.2802C69.5567 43.2802 69.588 43.2294 69.6443 43.1808C69.7035 42.664 69.6318 42.1173 69.6836 41.6008C69.7375 41.5495 69.7678 41.4952 69.7986 41.4949C70.3522 41.4898 70.9057 41.4912 71.4594 41.4912C71.4594 46.1002 71.4594 50.7091 71.4594 55.318Z" fill="#4371C5"/>
<path d="M23.0436 57.1095C20.1884 57.1095 17.3331 57.1098 14.4779 57.1062C14.4462 57.1062 14.4146 57.0567 14.3581 57.0097C14.2937 56.492 14.3699 55.9447 14.3187 55.443C14.2606 55.3796 14.2323 55.3215 14.2033 55.3211C13.7346 55.3155 13.2658 55.3171 12.797 55.3171C12.797 50.7081 12.797 46.0992 12.797 41.4902C13.2656 41.4902 13.7342 41.4902 14.2029 41.4902C14.2466 41.5567 14.3266 41.6223 14.3282 41.6898C14.3392 42.1579 14.3329 42.6265 14.3361 43.0949C14.3364 43.1309 14.3661 43.1668 14.3822 43.2027C14.4137 43.2293 14.4452 43.2792 14.4769 43.2793C16.7348 43.283 18.9926 43.2826 21.2505 43.2826C21.9383 44.0684 21.3483 45.1118 21.8049 45.971C22.1606 46.3277 22.6493 46.2105 23.1019 46.2511C23.6486 46.3119 24.3031 46.0844 24.602 46.8079C24.3491 47.166 23.8555 47.196 23.4976 47.6508C23.3731 48.841 23.3083 50.1342 23.5966 51.6819C24.4511 50.8684 24.1227 50.1133 24.217 49.4522C24.343 48.5691 23.8828 47.5762 24.7111 46.8237C25.2811 47.1814 25.2064 47.7719 25.218 48.3072C25.2427 49.4511 25.2502 50.596 25.2129 51.7379C25.2037 52.1149 25.1649 52.497 25.2842 52.7644C25.5656 53.3001 26.2357 53.1327 26.4254 53.6405C26.2563 54.093 25.7238 54.0811 25.3651 54.5471C24.9831 55.2351 25.4504 56.2641 24.8771 57.1086C24.2825 57.5369 23.6675 57.5711 23.0436 57.1095Z" fill="#4371C5"/>
<path d="M71.4591 17.4211C70.9894 17.4211 70.5198 17.4211 70.0501 17.4212C69.9294 17.3004 69.8087 17.1797 69.6879 17.059C69.6236 16.6044 69.716 16.1394 69.6257 15.676C69.1468 15.5593 68.6791 15.6897 68.2261 15.5979C68.1959 15.5677 68.1398 15.5378 68.1394 15.5072C68.1336 15.0815 68.1355 14.6556 68.1355 14.2178C68.0133 14.1052 67.8884 13.99 67.7215 13.8363C50.6152 13.8363 33.457 13.8362 16.2988 13.8387C16.2643 13.8387 16.2299 13.8761 16.1955 13.8961C16.1727 13.9293 16.1304 13.9624 16.1301 13.9958C16.1259 14.5049 16.1272 15.014 16.1272 15.5089C15.8434 15.7404 15.5369 15.6029 15.252 15.624C14.9629 15.6455 14.671 15.6288 14.4114 15.6288C14.2827 15.9901 14.353 16.2868 14.3344 16.5781C14.3184 16.8288 14.367 17.0827 14.298 17.3287C14.2661 17.3607 14.2363 17.4169 14.2058 17.4172C13.7362 17.4228 13.2666 17.4211 12.797 17.4211C12.797 15.7141 12.797 14.007 12.797 12.3C13.1971 12.0732 13.6338 12.1813 14.0521 12.1811C32.7479 12.1751 51.4437 12.1755 70.1395 12.1788C70.5623 12.1788 70.9928 12.1165 71.6019 12.3361C71.9378 13.9808 72.2134 15.6957 71.4591 17.4211Z" fill="#4371C5"/>
<path d="M71.4593 17.4223C71.4593 15.7599 71.4593 14.0975 71.4594 12.4351C71.3937 12.3904 71.3292 12.3094 71.2622 12.3072C70.8788 12.2949 70.4948 12.3012 70.111 12.3012C51.0064 12.3012 31.9018 12.3012 12.7973 12.3012C12.7402 12.2443 12.7211 12.1874 12.7402 12.1305C12.7592 12.0737 12.7782 12.0452 12.7973 12.0452C32.3868 12.0452 51.9764 12.0452 71.5741 12.0452C71.6619 12.1271 71.754 12.213 71.8485 12.3012C72.2281 12.3012 72.6122 12.3012 72.9963 12.3012C72.9963 31.8191 72.9963 51.3371 72.9963 70.8149C72.9194 70.8825 72.8886 70.9333 72.8568 70.9338C72.5168 70.9396 72.1765 70.9374 71.8475 70.9374C71.7559 70.8782 71.7155 70.8096 71.7155 70.7245C71.7154 70.3408 71.7155 69.9571 71.7155 69.5735C71.7155 60.5361 71.7159 51.4986 71.7134 42.4612C71.7134 42.1682 71.7581 41.8706 71.6746 41.5825C71.6468 41.4864 71.5571 41.4612 71.4593 41.4913C71.4593 33.4683 71.4593 25.4453 71.4593 17.4223Z" fill="#7DA7D9"/>
<path d="M11.2603 12.3008C11.6872 12.3008 12.1141 12.3008 12.5411 12.3008C12.5411 31.7999 12.5411 51.299 12.5411 70.7982C12.4771 70.8445 12.4118 70.9319 12.3491 70.9301C12.0138 70.921 11.675 70.9835 11.3527 70.9027C11.3155 70.8606 11.2636 70.8293 11.2636 70.7981C11.2602 51.299 11.2603 31.7999 11.2603 12.3008Z" fill="#7DA7D9"/>
<path d="M12.7967 12.0452C12.7967 12.1305 12.7967 12.2159 12.7967 12.3012C12.7113 12.3012 12.6259 12.3012 12.5405 12.3012C12.5741 12.097 12.5923 12.0787 12.7967 12.0452Z" fill="#7DA7D9"/>
<path d="M24.8371 51.9884C24.8371 50.3473 24.8372 48.7061 24.8368 47.065C24.8367 46.9539 24.7592 46.8956 24.5809 46.8673C24.6086 46.7741 24.5845 46.6951 24.4968 46.6591C24.4268 46.6304 24.3469 46.6141 24.2711 46.6133C23.8621 46.609 23.453 46.6113 23.0439 46.6113C22.6705 46.2007 22.6439 45.6886 22.6406 45.1777C22.6248 42.7194 22.6248 40.261 22.6406 37.8027C22.6439 37.2918 22.6705 36.7796 23.0439 36.3691C23.5562 35.9695 24.0685 35.9694 24.5809 36.3691C24.6767 36.3982 24.7658 36.3739 24.7918 36.2807C24.8238 36.1658 24.8348 36.0419 24.8352 35.9219C24.8385 35.0014 24.837 34.081 24.837 33.165C24.912 33.1203 24.9772 33.0502 25.0468 33.0454C25.4594 33.017 25.8767 33.0855 26.2858 32.9956C26.379 32.9751 26.403 32.8802 26.374 32.7844C26.4695 32.8133 26.5584 32.7892 26.5845 32.6964C26.6166 32.5819 26.628 32.4584 26.6283 32.3387C26.6316 31.3777 26.6302 30.4167 26.6302 29.4556C26.8894 29.1493 27.3307 29.1911 27.62 28.941C27.9055 28.6567 27.8297 28.2223 28.0484 27.9102C28.3756 27.4934 28.8658 27.3812 29.3263 27.2164C29.8018 26.9487 29.5519 26.2655 30.023 25.9965C31.0266 25.6066 32.0616 25.8193 33.0858 25.8292C33.1542 25.8427 33.2223 25.8568 33.2905 25.871C33.3864 25.9001 33.4673 25.8745 33.5029 25.7827C33.531 25.7102 33.5439 25.6276 33.5448 25.5494C33.549 25.1765 33.5467 24.8035 33.5467 24.4876C33.6261 24.3451 33.6964 24.3314 33.7893 24.3318C34.7532 24.3364 35.717 24.3349 36.6808 24.3344C36.7899 24.3343 36.8479 24.2566 36.8768 24.0787C36.477 23.5665 36.4771 23.0544 36.8768 22.5424C36.9622 22.5424 37.0476 22.5424 37.133 22.5424C37.4884 22.1566 37.9691 22.1511 38.4327 22.1459C40.8963 22.1183 43.3601 22.1183 45.8238 22.1459C46.2873 22.1511 46.768 22.1567 47.1235 22.5424C47.157 22.7466 47.1753 22.7648 47.3796 22.7984C47.7645 23.2252 47.6997 23.652 47.3796 24.0787C47.3501 24.1753 47.3748 24.2649 47.4694 24.2908C47.5855 24.3226 47.7106 24.3326 47.8319 24.333C48.7573 24.3362 49.6828 24.3348 50.5864 24.3348C50.7947 24.5316 50.6863 24.7539 50.7063 24.9522C50.7231 25.1194 50.699 25.2904 50.7125 25.4582C50.7288 25.6605 50.6466 25.8739 50.7658 26.0586C50.8087 26.0853 50.8422 26.1244 50.8758 26.1245C52.0159 26.1277 53.156 26.1272 54.2961 26.1272C54.6314 26.3739 54.5531 26.8448 54.8339 27.122C55.1189 27.3909 55.5686 27.3571 55.8331 27.6634C55.8331 28.1979 55.8326 28.7324 55.8334 29.2668C55.8336 29.3682 55.9118 29.4243 56.0892 29.4558C56.6016 29.056 57.1139 29.0562 57.6262 29.4558C57.6262 30.592 57.6257 31.7282 57.6285 32.8643C57.6286 32.8988 57.663 32.9332 57.6814 32.9677C57.7134 32.992 57.7453 33.0372 57.7775 33.0374C58.3248 33.0418 58.8721 33.0406 59.4194 33.0406C60.0979 33.8188 59.5393 34.8413 59.9554 35.7026C60.1825 36.0468 60.6828 36.0424 60.9564 36.3693C60.9899 36.5735 61.0083 36.5919 61.2125 36.6254C61.5896 36.9835 61.6047 37.4602 61.6096 37.9249C61.6359 40.3845 61.6342 42.8444 61.6114 45.3041C61.607 45.7755 61.5524 46.2388 61.2125 46.6114C60.7626 46.6114 60.3126 46.6108 59.8626 46.6119C59.7628 46.6121 59.708 46.69 59.6755 46.8674C59.8059 47.9936 60.0385 49.1276 59.4194 50.1961C59.0853 50.5616 58.5462 50.4682 58.1588 50.726C57.7117 51.6245 58.2895 52.6955 57.683 53.4933C57.3399 53.8537 56.8733 53.8542 56.5272 54.0954C56.1607 54.4157 56.2041 54.961 55.8387 55.3198C55.3871 55.6363 54.7785 55.2454 54.2961 55.5732C54.2961 56.0415 54.2961 56.5098 54.2961 56.9781C54.2298 57.022 54.1638 57.1034 54.0971 57.104C53.1176 57.1122 52.1381 57.1087 51.1585 57.1108C51.0365 57.111 50.9144 57.1268 50.8115 57.1339C50.7656 57.1849 50.7136 57.2156 50.7133 57.2468C50.7083 57.7571 50.7097 58.2674 50.7097 58.7757C50.638 58.8193 50.5703 58.896 50.5019 58.8966C49.6076 58.9047 48.7132 58.9008 47.8189 58.9033C47.6976 58.9036 47.5763 58.9215 47.4754 58.9297C47.431 58.9849 47.3834 59.0165 47.383 59.0488C47.378 59.4729 47.3796 59.8971 47.3796 60.3103C47.2482 60.4417 47.1278 60.562 47.0073 60.6825C46.9664 60.6864 46.9254 60.6939 46.8845 60.6939C43.6904 60.6944 40.4963 60.6944 37.2767 60.6944C37.1689 60.5931 37.0474 60.4791 36.9296 60.3684C36.8312 60.1195 36.8956 59.8656 36.877 59.6174C36.8615 59.4098 36.9112 59.1983 36.8444 58.9975C36.8106 58.9637 36.7854 58.9222 36.749 58.9067C36.7129 58.8914 36.6656 58.902 36.6232 58.902C35.0475 58.9019 33.4717 58.9024 31.896 58.8986C31.8644 58.8985 31.833 58.8485 31.7768 58.8009C31.7146 58.2836 31.7887 57.7367 31.7383 57.2367C31.6796 57.1722 31.6514 57.1139 31.6225 57.1136C31.1116 57.1081 30.6004 57.1095 30.0893 57.1095C30.0463 57.1767 29.9677 57.243 29.9661 57.3111C29.9551 57.7792 29.9614 58.2475 29.9582 58.7158C29.9579 58.7517 29.9275 58.7874 29.9111 58.8232C29.8794 58.8495 29.8478 58.8986 29.816 58.8987C28.7947 58.9028 27.7735 58.9021 26.7555 58.9021C26.7114 58.9763 26.6377 59.0436 26.6356 59.1131C26.6241 59.4959 26.6301 59.8792 26.6301 60.2925C26.5321 60.3977 26.4192 60.5192 26.3105 60.636C26.2255 60.6567 26.1482 60.6916 26.0707 60.692C25.1802 60.6958 24.2897 60.6945 23.4475 60.6945C23.2839 60.5418 23.1598 60.4261 23.0438 60.3178C23.0438 59.2381 23.0438 58.1739 23.0438 57.1097C23.5909 57.1097 24.138 57.111 24.6851 57.1067C24.7173 57.1064 24.7492 57.0615 24.7813 57.0373C24.7998 57.0029 24.8345 56.9686 24.8346 56.9341C24.8375 55.9249 24.837 54.9157 24.837 53.9079C24.9063 53.8646 24.971 53.791 25.0404 53.7862C25.4548 53.7578 25.8739 53.8254 26.2851 53.7369C26.379 53.7167 26.4032 53.6212 26.374 53.5249C26.268 53.1817 26.326 52.7882 26.1092 52.5286C25.6955 52.219 25.1583 52.3643 24.8371 51.9884Z" fill="#FFFFFD"/>
<path d="M47.1234 22.5426C43.7933 22.5426 40.4631 22.5426 37.133 22.5426C37.133 22.5001 37.1506 22.4433 37.1298 22.4177C37.0509 22.3206 36.9596 22.2335 36.8816 22.1518C36.8816 21.7155 36.8816 21.292 36.8816 20.8762C36.9379 20.7879 37.0066 20.75 37.0924 20.75C40.4495 20.7503 43.8068 20.7501 47.164 20.7514C47.2026 20.7514 47.2411 20.7691 47.2798 20.7785C47.3098 20.8085 47.3656 20.8383 47.366 20.8687C47.3718 21.292 47.3699 21.7155 47.3699 22.1569C47.2968 22.2335 47.2055 22.3206 47.1266 22.4177C47.1058 22.4433 47.1234 22.5001 47.1234 22.5426Z" fill="#3D5EB6"/>
<path d="M23.0439 36.3691C23.0439 39.7831 23.0439 43.1972 23.0439 46.6112C22.497 46.6112 21.9501 46.6124 21.4033 46.6082C21.3709 46.6079 21.339 46.5633 21.3069 46.5392C21.2882 46.5049 21.2533 46.4707 21.2531 46.4363C21.2503 45.385 21.2508 44.3337 21.2508 43.2825C21.2508 41.0401 21.2505 38.7978 21.2528 36.5555C21.2528 36.5199 21.283 36.4842 21.2992 36.4486C21.3305 36.4221 21.3616 36.3727 21.3932 36.3724C21.9434 36.3677 22.4937 36.3691 23.0439 36.3691Z" fill="#3D5DB6"/>
<path d="M61.2128 46.6114C61.2128 43.2827 61.2128 39.9539 61.2128 36.6252C61.1851 36.532 61.2092 36.453 61.2969 36.417C61.3669 36.3883 61.4469 36.372 61.5226 36.3713C61.9316 36.367 62.3407 36.3693 62.7498 36.3693C62.7498 39.7192 62.75 43.069 62.748 46.419C62.748 46.4552 62.7202 46.4915 62.7054 46.5278C62.6745 46.5556 62.6439 46.6074 62.6127 46.6078C62.1461 46.613 61.6795 46.6114 61.2128 46.6114Z" fill="#3C5CB5"/>
<path d="M60.9566 36.3697C60.4942 36.3697 60.0318 36.3712 59.5694 36.3666C59.5374 36.3662 59.5057 36.3205 59.4739 36.2959C59.4558 36.2614 59.422 36.2269 59.4219 36.1923C59.4191 35.1419 59.4196 34.0914 59.4196 33.041C59.4196 32.9556 59.4196 32.8702 59.4196 32.7849C59.8788 32.7849 60.3381 32.7849 60.8163 32.7849C60.9251 32.8885 61.044 33.0017 61.1599 33.112C61.1783 33.1932 61.2102 33.2695 61.2105 33.3459C61.214 34.2222 61.2128 35.0985 61.2128 36.0255C61.1455 36.0829 61.0468 36.1594 60.9597 36.2475C60.9388 36.2686 60.9566 36.3279 60.9566 36.3697Z" fill="#3F60B7"/>
<path d="M24.581 36.3695C24.0687 36.3695 23.5563 36.3695 23.044 36.3695C23.044 35.2202 23.044 34.0709 23.0439 32.9215C23.1084 32.8758 23.172 32.7927 23.2378 32.7908C23.6577 32.7787 24.0782 32.7847 24.4571 32.7847C24.525 32.8596 24.5774 32.8905 24.5775 32.9215C24.5816 34.0708 24.581 35.2202 24.581 36.3695Z" fill="#4060B7"/>
<path d="M59.4191 32.7851C58.9542 32.7851 58.4893 32.7867 58.0245 32.7817C57.9929 32.7814 57.9619 32.7321 57.9306 32.7056C57.9145 32.6701 57.8842 32.6346 57.8842 32.599C57.8816 31.5877 57.8821 30.5764 57.8821 29.5735C58.2463 29.4178 58.2527 29.4175 59.3523 29.5177C59.3746 29.5508 59.4162 29.5838 59.4163 29.6168C59.4198 30.6729 59.4191 31.729 59.4191 32.7851Z" fill="#4262B8"/>
<path d="M26.3741 32.7851C25.9092 32.7851 25.4443 32.7867 24.9794 32.7817C24.9479 32.7814 24.9169 32.7321 24.8856 32.7056C24.8694 32.6701 24.8392 32.6346 24.8391 32.599C24.8366 31.5877 24.8371 30.5764 24.8371 29.5735C25.2013 29.4178 25.2077 29.4175 26.3073 29.5177C26.3296 29.5508 26.3711 29.5838 26.3713 29.6168C26.3747 30.6729 26.3741 31.729 26.3741 32.7851Z" fill="#4464B9"/>
<path d="M29.9601 25.8715C29.9601 25.4037 29.9601 24.9359 29.9601 24.4681C30.0259 24.4237 30.0913 24.3415 30.1575 24.3409C31.1359 24.3326 32.1144 24.3347 33.093 24.3369C33.1299 24.337 33.1667 24.3627 33.2035 24.3765C33.2325 24.407 33.2862 24.4373 33.2866 24.4682C33.292 24.9359 33.2903 25.4037 33.2903 25.8715C32.2542 26.1385 31.2017 25.9391 30.1576 25.9815C30.0918 25.9449 30.0259 25.9082 29.9601 25.8715Z" fill="#4466B9"/>
<path d="M54.2962 25.8717C53.2061 25.8717 52.116 25.8717 51.0677 25.8717C51.0069 25.7711 50.969 25.7375 50.9687 25.7036C50.9647 25.2837 50.9661 24.8638 50.9661 24.4762C51.0353 24.361 51.1048 24.3338 51.1937 24.334C52.1235 24.3362 53.0533 24.3342 53.9831 24.3374C54.061 24.3377 54.1388 24.3675 54.2166 24.3837C54.2431 24.4151 54.2924 24.4461 54.2928 24.4776C54.2977 24.9423 54.2962 25.4069 54.2962 25.8717Z" fill="#4365B9"/>
<path d="M47.3795 24.0794C47.3795 23.6526 47.3795 23.2258 47.3795 22.7991C47.3501 22.7025 47.3788 22.629 47.4684 22.5833C47.5029 22.5658 47.5414 22.5447 47.5782 22.5447C48.5876 22.5426 49.597 22.543 50.5969 22.543C50.7408 22.9214 50.7445 23.061 50.6448 24.0162C50.6113 24.0372 50.5778 24.0766 50.5444 24.0767C49.4894 24.0799 48.4344 24.0794 47.3795 24.0794Z" fill="#3F61B7"/>
<path d="M36.8764 22.543C36.8764 23.0551 36.8764 23.5672 36.8764 24.0793C35.812 24.0793 34.7475 24.0793 33.683 24.0794C33.6374 24.0149 33.5546 23.9515 33.5524 23.8855C33.5399 23.5029 33.5451 23.1196 33.5482 22.7366C33.5485 22.7 33.5756 22.6636 33.5902 22.6271C33.6211 22.599 33.652 22.5466 33.6831 22.5465C34.7475 22.5423 35.812 22.543 36.8764 22.543Z" fill="#4061B7"/>
<path d="M29.7042 27.6637C29.325 27.6637 28.9458 27.6637 28.5755 27.6637C28.4215 27.7303 28.3787 27.9564 28.1672 27.9197C27.6549 28.3194 27.1425 28.3193 26.6302 27.9197C26.6017 27.825 26.6266 27.7449 26.7169 27.7091C26.7883 27.6807 26.8698 27.6665 26.9471 27.6656C27.3179 27.6613 27.6887 27.6637 28.0261 27.6637C28.1405 27.5944 28.1659 27.5259 28.1691 27.4396C28.1842 27.0307 28.1204 26.618 28.2137 26.2137C28.2348 26.1222 28.3286 26.0989 28.4234 26.1274C28.8264 25.9227 29.2365 25.9835 29.703 26.0932C29.895 26.6095 29.8989 27.133 29.7042 27.6637Z" fill="#4061B7"/>
<path d="M57.6259 29.4568C57.1136 29.4568 56.6013 29.4568 56.0889 29.4568C56.0889 28.9044 56.0889 28.3521 56.0889 27.7997C56.1537 27.7546 56.2175 27.6726 56.2838 27.6705C56.6659 27.658 57.0487 27.6633 57.4312 27.6663C57.4679 27.6666 57.5044 27.6931 57.5409 27.7075C57.5692 27.7382 57.622 27.7688 57.6223 27.7998C57.6273 28.3521 57.6259 28.9044 57.6259 29.4568Z" fill="#4564B9"/>
<path d="M55.8327 27.6631C55.3746 27.6631 54.9164 27.6645 54.4582 27.6604C54.4252 27.6601 54.3926 27.6205 54.3598 27.5991C54.3385 27.5663 54.2988 27.5337 54.2985 27.5007C54.2944 27.0428 54.2957 26.5848 54.2957 26.1269C54.2957 26.0415 54.2957 25.9561 54.2957 25.8708C54.7548 25.8708 55.2138 25.8695 55.6729 25.8736C55.7057 25.8739 55.7381 25.9148 55.7707 25.9368C55.7914 25.97 55.8299 26.0031 55.8301 26.0363C55.8338 26.5786 55.8327 27.1209 55.8327 27.6631Z" fill="#3D5EB6"/>
<path d="M26.6302 27.9197C27.1426 27.9197 27.6549 27.9197 28.1672 27.9197C28.1672 28.3776 28.1686 28.8357 28.1645 29.2936C28.1642 29.3265 28.1245 29.3592 28.1032 29.392C28.0704 29.4133 28.0378 29.453 28.0048 29.4533C27.5466 29.4573 27.0885 29.456 26.6302 29.456C26.6302 28.9439 26.6302 28.4318 26.6302 27.9197Z" fill="#3E5FB6"/>
<path d="M29.7041 27.6633C29.7041 27.2064 29.7054 26.7495 29.7014 26.2926C29.7011 26.2594 29.663 26.2265 29.6425 26.1935C29.61 26.1713 29.5779 26.1303 29.5452 26.1299C29.1713 26.1254 28.7972 26.1271 28.4232 26.1271C28.3956 26.0338 28.4196 25.9548 28.5073 25.9188C28.5773 25.8901 28.6572 25.8738 28.733 25.873C29.142 25.8687 29.5511 25.8709 29.9602 25.8709C30.0498 25.9279 30.0795 25.9847 30.0498 26.0417C30.0201 26.0985 29.9904 26.1271 29.9602 26.1271C29.9602 26.5768 29.9609 27.0266 29.9597 27.4764C29.9596 27.5761 29.8816 27.6309 29.7041 27.6633Z" fill="#4466B9"/>
<path d="M54.2959 55.574C54.2658 55.4764 54.2912 55.386 54.3874 55.3602C54.5051 55.3288 54.6315 55.3215 54.7544 55.3197C55.0892 55.3147 55.4241 55.318 55.7153 55.318C55.7818 55.2344 55.8292 55.2026 55.8296 55.1703C55.8346 54.7459 55.8329 54.3214 55.8329 53.9097C55.9662 53.7764 56.0869 53.6559 56.2171 53.5256C56.6324 53.5256 57.0575 53.5273 57.4825 53.5222C57.5145 53.5218 57.5459 53.4727 57.5896 53.436C57.6759 53.1158 57.6119 52.7776 57.6231 52.4433C57.6359 52.0601 57.6181 51.676 57.6284 51.2926C57.6375 50.957 57.5856 50.6188 57.6537 50.3072C57.6984 50.2591 57.7271 50.2013 57.7563 50.201C58.3106 50.1956 58.8649 50.1969 59.4192 50.1969C59.4192 50.2823 59.4192 50.3677 59.4192 50.453C59.1516 50.7276 58.7474 50.7809 58.4473 51.0545C57.9852 51.7994 58.5342 52.8041 57.8822 53.5256C57.8822 53.567 57.8998 53.6251 57.8791 53.6468C57.7944 53.7357 57.6978 53.8136 57.6261 53.8774C57.6261 54.363 57.6261 54.81 57.6261 55.2643C57.1203 55.3692 56.6686 55.2772 56.1607 55.345C56.1209 55.3897 56.043 55.4862 55.9541 55.571C55.9324 55.5917 55.8743 55.574 55.8329 55.574C55.3206 55.574 54.8082 55.574 54.2959 55.574Z" fill="#4E68BA"/>
<path d="M59.4196 50.1959C59.4196 49.1513 59.4194 48.1068 59.4199 47.0623C59.42 46.9543 59.498 46.8965 59.6758 46.8673C60.1438 46.8673 60.6119 46.8673 61.08 46.8672C61.1243 46.933 61.2065 46.9985 61.2071 47.0647C61.2153 48.0429 61.2132 49.0211 61.211 49.9993C61.211 50.0361 61.185 50.0728 61.171 50.1096C61.1404 50.1384 61.11 50.1919 61.079 50.1922C60.5259 50.1973 59.9727 50.1959 59.4196 50.1959Z" fill="#415FB7"/>
<path d="M57.8821 53.5248C57.8821 52.5593 57.8816 51.5937 57.8844 50.6281C57.8846 50.5937 57.9189 50.5594 57.9373 50.525C57.9693 50.5007 58.001 50.4556 58.0332 50.4553C58.4951 50.4507 58.9571 50.4521 59.4191 50.4521C59.4191 51.4177 59.4197 52.3833 59.4168 53.3488C59.4167 53.3832 59.3824 53.4176 59.3639 53.452C59.332 53.4762 59.3003 53.5213 59.268 53.5216C58.8061 53.5262 58.3441 53.5248 57.8821 53.5248Z" fill="#405FB6"/>
<path d="M24.5809 46.8676C24.5809 48.5198 24.5813 50.1719 24.5782 51.824C24.5782 51.8576 24.5383 51.8911 24.5169 51.9246C24.4834 51.946 24.4501 51.9856 24.4163 51.986C23.9951 51.9902 23.5739 51.9887 23.1719 51.9887C23.1229 51.9397 23.069 51.9116 23.0665 51.8795C23.0244 51.3461 23.0451 47.7694 23.0894 46.9502C23.1204 46.9227 23.1511 46.8716 23.1824 46.8712C23.6485 46.8661 24.1148 46.8676 24.5809 46.8676Z" fill="#405FB7"/>
<path d="M24.5125 53.5259C24.5557 53.6533 24.5793 53.6905 24.5794 53.7278C24.5814 54.7048 24.5814 55.6817 24.5792 56.6588C24.5791 56.6955 24.5529 56.7321 24.5388 56.7688C24.5082 56.7974 24.4779 56.8506 24.4469 56.851C24.022 56.8565 23.597 56.8547 23.1719 56.8548C23.1292 56.7875 23.05 56.7205 23.0494 56.6529C23.0414 55.676 23.0435 54.699 23.0457 53.7219C23.0458 53.6852 23.072 53.6486 23.0861 53.6119C23.1167 53.5832 23.147 53.5301 23.178 53.5297C23.6029 53.5241 24.0279 53.5259 24.5125 53.5259Z" fill="#3F5FB7"/>
<path d="M24.8371 51.9888C25.3887 51.9888 25.9401 51.9888 26.4917 51.9888C26.5379 52.0524 26.6245 52.1165 26.6238 52.1795C26.6191 52.5983 26.6733 53.0201 26.5874 53.4349C26.5677 53.5301 26.4713 53.5549 26.3741 53.5251C25.916 53.5251 25.4578 53.5265 24.9996 53.5224C24.9666 53.5221 24.934 53.4824 24.9012 53.4611C24.8798 53.4283 24.8402 53.3956 24.8399 53.3627C24.8358 52.9048 24.8371 52.4468 24.8371 51.9888Z" fill="#4B6BBC"/>
<path d="M26.6303 43.2833C26.6303 41.0255 26.6299 38.7678 26.6336 36.51C26.6337 36.4786 26.6848 36.4473 26.7198 36.4073C27.1626 36.2925 27.631 36.4446 28.0756 36.334C28.1103 36.2965 28.1636 36.2658 28.1637 36.2348C28.1681 35.2126 28.1673 34.1904 28.1673 33.1685C28.236 33.1257 28.303 33.0484 28.3716 33.0468C28.8402 33.036 29.3091 33.0423 29.7779 33.0389C29.8135 33.0387 29.8489 33.0066 29.8843 32.9893C29.9097 32.9572 29.9569 32.9253 29.9572 32.893C29.9619 32.3836 29.9605 31.874 29.9605 31.3769C30.0029 31.3345 30.0295 31.283 30.0637 31.2774C30.6018 31.1888 31.1524 31.3184 31.6756 31.2061C31.7103 31.1521 31.7506 31.1186 31.7509 31.0849C31.7549 30.5768 31.7537 30.0687 31.7537 29.5845C31.8073 29.5309 31.8358 29.4765 31.8678 29.4742C32.4092 29.4374 32.9544 29.4685 33.516 29.4513C33.5821 28.8439 33.5174 28.2972 33.5576 27.7813C33.6117 27.7273 33.6416 27.671 33.6719 27.6709C34.6944 27.6663 35.7168 27.6671 36.7373 27.6671C36.7853 27.5999 36.8686 27.5368 36.8708 27.471C36.8834 27.0881 36.8758 26.7044 36.8789 26.321C36.8793 26.2844 36.9065 26.248 36.9213 26.2115C36.9523 26.1836 36.9833 26.1312 37.0144 26.1312C40.4239 26.1276 43.8333 26.1277 47.2429 26.1277C47.2886 26.1922 47.3714 26.2556 47.3736 26.3217C47.3862 26.7046 47.3785 27.0882 47.3818 27.4717C47.3821 27.5082 47.4097 27.5445 47.4247 27.5809C47.4558 27.6086 47.4868 27.6605 47.518 27.6606C48.5404 27.6649 49.5628 27.6641 50.5834 27.6641C50.6269 27.7353 50.7028 27.8026 50.7044 27.8715C50.715 28.3399 50.7088 28.8087 50.7123 29.2772C50.7126 29.3125 50.746 29.3474 50.7641 29.3826C50.7965 29.4072 50.8287 29.4531 50.8614 29.4534C51.3708 29.4579 51.8803 29.4566 52.3751 29.4566C52.4197 29.5012 52.4731 29.5289 52.4765 29.5618C52.5329 30.1017 52.4839 30.6476 52.5085 31.1493C52.6024 31.2071 52.6362 31.2459 52.6703 31.2462C53.1783 31.2501 53.6863 31.2489 54.1785 31.2489C54.4034 31.5377 54.2594 31.8431 54.2949 32.127C54.3308 32.4135 54.2215 32.7132 54.3734 33.0002C54.8227 33.1202 55.2909 32.9701 55.7401 33.0763C55.7724 33.1086 55.8288 33.1386 55.829 33.1689C55.8335 34.1912 55.8327 35.2135 55.8327 36.2358C55.8986 36.2807 55.9634 36.3626 56.0299 36.364C56.5351 36.3748 57.0407 36.37 57.5044 36.37C57.5719 36.4478 57.6229 36.4791 57.6229 36.5105C57.6267 38.8535 57.6263 41.1965 57.6263 43.5395C57.3547 43.6861 57.0592 43.7069 56.7592 43.7039C51.4005 43.6507 46.0416 43.7408 40.6857 43.6605C40.0142 43.6307 39.3175 43.7339 38.7778 43.398C38.3322 43.0058 38.3765 42.4591 38.0581 42.1029C37.7286 41.8138 37.2495 41.8326 36.8727 41.5099C36.5053 41.0645 36.5156 40.5506 36.7815 40.0473C37.1146 39.623 37.6575 39.6351 38.1168 39.224C38.4548 37.9945 38.3154 36.6535 38.2163 35.4278C37.8467 34.88 37.277 34.9582 37.0109 34.7071C36.5806 34.3698 36.5527 33.8742 36.1573 33.5764C35.538 33.3236 34.8766 33.3854 34.333 33.5186C33.8472 33.851 33.8777 34.3905 33.477 34.6143C32.7392 34.4626 33.1966 33.5362 32.5387 33.2493C31.8496 33.5355 32.1864 34.1894 32.1052 34.6917C32.1731 36.1246 32.0023 37.5645 32.1964 38.8751C32.4933 39.3863 33.018 39.3619 33.2864 39.7043C33.3589 39.846 33.3337 39.9676 33.2126 40.0702C32.9163 40.2896 32.5036 40.3228 32.3458 40.532C31.8225 41.5379 32.5129 42.6896 31.6159 43.472C29.9415 43.7197 28.267 43.9942 26.6303 43.2833Z" fill="#548ACD"/>
<path d="M26.6303 43.2828C28.3381 43.2828 30.0458 43.2828 31.7536 43.2828C32.0209 43.0096 32.4219 42.9486 32.7211 42.6722C33.2116 41.8456 32.6008 40.7589 33.2906 39.9541C33.9638 40.0444 33.8575 40.6089 33.8996 41.0321C33.9667 41.7058 33.942 42.3873 33.9136 43.0634C33.9152 43.5153 33.858 43.973 34.0093 44.4127C34.2179 44.8693 34.7713 44.7155 35.0687 45.0103C35.4151 45.2893 35.3245 45.8075 35.6602 46.094C35.9762 46.3383 36.3899 46.2618 36.7324 46.4183C36.8409 46.4717 36.9312 46.5476 37.0048 46.6429C37.294 47.0361 37.0194 47.6836 37.5825 47.9565C38.3174 47.9173 37.93 46.9245 38.5727 46.821C39.1031 47.1807 38.9873 47.7396 39.021 48.2516C39.099 48.7465 38.7999 49.3297 39.3535 49.732C40.1799 49.6141 39.6378 48.5286 40.3528 48.3555C40.973 48.8047 40.783 49.4711 40.8209 50.0755C40.848 50.4953 40.7578 50.9286 40.9853 51.3961C41.8435 51.9493 42.8678 51.4109 43.7962 51.6709C43.8974 51.7588 43.9725 51.8658 44.0238 51.989C44.168 52.3279 44.1251 52.7475 44.5666 53.088C45.7431 53.2134 47.0239 53.2441 48.2203 53.0695C48.5858 52.6679 48.5388 52.2788 48.5574 51.9045C48.5815 51.2961 48.431 50.6462 48.9743 50.1659C49.7433 50.2939 49.2472 51.2684 49.9638 51.5372C50.5774 51.1949 50.2907 50.5547 50.3543 50.0312C50.2676 49.1937 50.4913 48.3328 50.1425 47.4612C49.3482 47.1058 48.5166 46.7293 48.4298 45.6313C47.0494 45.3418 45.762 45.3943 44.496 45.5681C43.988 46.2224 43.8753 47.2092 42.7881 47.1267C41.9205 47.0608 41.7723 46.3381 41.5003 45.7942C41.1933 45.4037 40.7067 45.3762 40.375 45.004C40.0643 44.4534 40.0113 43.8618 40.4631 43.283C46.049 43.283 51.6348 43.283 57.2293 43.283C57.316 43.3655 57.4034 43.4569 57.5009 43.5359C57.5267 43.5568 57.5837 43.539 57.6263 43.539C57.6263 44.5192 57.6263 45.4995 57.6263 46.4874C57.5079 46.602 57.3856 46.7203 57.2343 46.8665C56.8104 46.8692 56.3515 46.8666 55.9374 46.868C55.8758 46.9656 55.836 46.9993 55.8358 47.0332C55.8326 48.0529 55.8331 49.0725 55.8331 50.0738C55.5917 50.2903 55.3272 50.1722 55.0849 50.192C54.8386 50.2121 54.5893 50.1964 54.3574 50.1964C54.218 50.7215 54.3664 51.1896 54.276 51.5768C54.1297 51.7495 54.0204 51.8786 53.9217 51.9951C53.4675 51.9951 53.0428 51.9951 52.6285 51.9951C52.5361 52.0527 52.5019 52.122 52.5023 52.2095C52.5039 52.5931 52.503 52.9767 52.503 53.3829C52.3995 53.4923 52.2847 53.6137 52.1642 53.7411C51.7169 53.8607 51.2482 53.7071 50.8019 53.817C50.768 53.8525 50.714 53.8828 50.7136 53.9137C50.708 54.3396 50.7098 54.7656 50.7098 55.1905C50.64 55.2336 50.5725 55.3114 50.5042 55.3121C49.6088 55.3202 48.7134 55.3164 47.818 55.3188C47.6967 55.3191 47.5754 55.3374 47.4746 55.3457C47.4305 55.4016 47.3833 55.4334 47.3829 55.4658C47.3783 55.9754 47.3797 56.4851 47.3797 56.974C47.3155 57.0769 47.2461 57.1106 47.1586 57.1106C43.7901 57.1097 40.4217 57.1101 37.0532 57.1076C37.0183 57.1076 36.9835 57.0724 36.9487 57.0536C36.9247 57.0209 36.8802 56.9884 36.8799 56.9555C36.8755 56.4464 36.8769 55.9373 36.8769 55.4568C36.809 55.3447 36.739 55.3161 36.6497 55.3162C35.1147 55.318 33.5798 55.3163 32.0447 55.3203C31.9503 55.3205 31.8742 55.3175 31.7856 55.2177C31.6916 54.8017 31.8069 54.3357 31.7268 53.8825C31.6967 53.8523 31.6669 53.7964 31.6364 53.796C31.2116 53.7902 30.7866 53.7921 30.3395 53.7921C30.2342 53.6701 30.1235 53.5419 29.9823 53.3783C29.8932 52.9798 30.0357 52.5121 29.9233 52.0754C29.8732 52.0377 29.8409 51.9923 29.8082 51.992C29.384 51.9872 28.9597 51.9888 28.5516 51.9888C28.4151 51.8523 28.2945 51.7318 28.1673 51.6047C28.1673 50.0779 28.1677 48.5444 28.164 47.011C28.1639 46.9793 28.1142 46.9478 28.0595 46.8826C27.6336 46.8459 27.1724 46.8844 26.7513 46.8624C26.6884 46.7963 26.6341 46.7658 26.6339 46.7351C26.6296 45.5842 26.6303 44.4336 26.6303 43.2828Z" fill="#4371C5"/>
<path d="M29.9601 26.1274C29.9601 26.042 29.9601 25.9566 29.9601 25.8713C31.0701 25.8713 32.1802 25.8713 33.2902 25.8713C33.3192 25.9669 33.2951 26.0557 33.2022 26.0817C33.0877 26.1138 32.9641 26.1251 32.8444 26.1256C31.8829 26.1288 30.9215 26.1274 29.9601 26.1274Z" fill="#548ACD"/>
<path d="M40.4629 43.2826C40.4629 43.8367 40.4629 44.3907 40.4628 44.9449C40.5297 44.9883 40.5955 45.067 40.6637 45.0691C41.047 45.0812 41.431 45.0736 41.8147 45.0771C41.8505 45.0774 41.8862 45.1084 41.9219 45.125C41.9479 45.1569 41.9961 45.1885 41.9965 45.2206C42.0016 45.6452 41.9999 46.0699 41.9999 46.4833C42.1318 46.6151 42.2523 46.7356 42.3785 46.8617C42.7125 46.8617 43.0521 46.8617 43.4282 46.8617C43.5193 46.7562 43.6299 46.628 43.7711 46.4644C43.8603 46.066 43.7177 45.5983 43.833 45.1504C44.5795 45.0423 44.929 45.038 48.8008 45.0875C48.8829 45.1388 48.9174 45.2081 48.917 45.2954C48.9154 45.679 48.9163 46.0626 48.9163 46.469C49.0197 46.5783 49.1344 46.6997 49.255 46.8272C49.7022 46.947 50.1708 46.7933 50.6174 46.9031C50.6512 46.9385 50.7057 46.9689 50.7058 46.9996C50.7102 48.0651 50.7095 49.1305 50.7095 50.1961C50.1971 50.5957 49.6848 50.5959 49.1725 50.1961C49.0786 50.1681 48.9992 50.1925 48.9633 50.2811C48.9347 50.3516 48.9189 50.4321 48.9183 50.5084C48.9145 51.0017 48.9163 51.4951 48.9163 51.9885C47.2085 52.6223 45.5008 52.6223 43.793 51.9885C43.793 51.9031 43.793 51.8177 43.793 51.7324C43.5061 51.4746 43.4539 51.0689 43.2139 50.7857C42.3562 50.274 41.2679 50.8858 40.4628 50.1961C40.4628 49.6616 40.4633 49.1272 40.4624 48.5927C40.4623 48.4913 40.3841 48.4353 40.2067 48.4037C39.6943 48.8035 39.182 48.8033 38.6697 48.4037C38.6697 47.9539 38.6703 47.5041 38.6692 47.0543C38.6689 46.9546 38.591 46.8998 38.4135 46.8674C37.8669 46.9875 37.3373 47.0057 36.8765 46.6113C36.5858 46.3511 36.5911 45.9308 36.3238 45.6055C35.9277 45.3225 35.3222 45.3176 34.9793 44.8553C34.7658 44.5771 34.8021 44.204 34.623 43.9117C34.3613 43.5356 33.829 43.622 33.5464 43.2827C33.5464 42.2381 33.5465 41.1935 33.546 40.149C33.546 40.0411 33.468 39.9832 33.2902 39.954C33.3202 39.8565 33.2949 39.7663 33.199 39.7405C33.0817 39.709 32.9556 39.7084 32.8329 39.6984C32.4998 39.6714 32.1616 39.7485 31.8423 39.6611C31.8057 39.617 31.7565 39.5855 31.7565 39.5538C31.7527 37.8948 31.7532 36.2359 31.7532 34.5769C32.2655 34.1773 32.7779 34.1771 33.2902 34.5769C33.388 34.6071 33.4785 34.5816 33.5043 34.4852C33.5357 34.3674 33.5355 34.2409 33.546 34.1179C33.5747 33.7845 33.4922 33.4452 33.5855 33.1265C33.6315 33.0908 33.6637 33.0439 33.6961 33.0438C34.7185 33.0399 35.741 33.0406 36.739 33.0406C36.8464 33.1065 36.8781 33.1761 36.8775 33.2646C36.8751 33.6486 36.8748 34.0327 36.8795 34.4166C36.8798 34.4503 36.9217 34.4833 36.9561 34.534C37.4813 34.6457 38.0324 34.5191 38.565 34.6002C38.6019 34.6371 38.6584 34.6672 38.6585 34.6974C38.6627 36.3178 38.6622 37.9381 38.6622 39.5868C38.5552 39.6838 38.4294 39.7978 38.2833 39.9303C37.8624 40.0136 37.3949 39.8858 36.9605 39.9904C36.9218 40.0475 36.8798 40.0806 36.8795 40.1141C36.875 40.5378 36.8766 40.9614 36.8766 41.3706C37.161 41.6013 37.4679 41.4528 37.7521 41.4887C38.0393 41.5249 38.3395 41.4166 38.6179 41.5612C38.7207 41.8519 38.6508 42.1485 38.6693 42.4399C38.6852 42.6905 38.6366 42.9444 38.7055 43.1891C38.7381 43.222 38.7678 43.2784 38.7981 43.2786C39.353 43.284 39.908 43.2826 40.4629 43.2826Z" fill="#FFFFFD"/>
<path d="M30.0018 39.699C29.9457 38.364 29.9472 35.8236 30.001 34.6651C30.0315 34.636 30.0617 34.5821 30.0926 34.5817C30.518 34.5761 30.9436 34.5779 31.3691 34.5779C31.4119 34.6453 31.4915 34.7125 31.4917 34.7802C31.4987 36.3538 31.4974 37.9275 31.4954 39.5012C31.4954 39.5381 31.4699 39.5749 31.4563 39.6118C31.4258 39.6409 31.3956 39.6948 31.3647 39.6953C30.9393 39.7008 30.5137 39.699 30.0018 39.699Z" fill="#3F5FB6"/>
<path d="M33.2902 39.9541C33.2902 41.0046 33.2907 42.055 33.2879 43.1054C33.2878 43.14 33.254 43.1745 33.2359 43.209C33.2041 43.2336 33.1724 43.2793 33.1403 43.2796C32.678 43.2843 32.2156 43.2828 31.7532 43.2828C31.7532 42.2323 31.7527 41.1819 31.7555 40.1314C31.7556 40.0968 31.7894 40.0624 31.8075 40.0278C31.8393 40.0032 31.871 39.9575 31.9031 39.9572C32.3654 39.9526 32.8278 39.9541 33.2902 39.9541Z" fill="#4261B7"/>
<path d="M33.2902 34.5774C32.7779 34.5774 32.2656 34.5774 31.7532 34.5774C31.7532 34.025 31.7532 33.4727 31.7532 32.9203C31.818 32.8752 31.8818 32.7932 31.9481 32.7911C32.3302 32.7786 32.713 32.7839 33.0955 32.787C33.1322 32.7872 33.1686 32.8138 33.2052 32.8281C33.2335 32.8589 33.2863 32.8894 33.2865 32.9204C33.2916 33.4727 33.2902 34.025 33.2902 34.5774Z" fill="#4363B8"/>
<path d="M43.7933 51.9888C45.5011 51.9888 47.2088 51.9888 48.9166 51.9888C48.9166 52.4569 48.9166 52.9251 48.9167 53.3933C48.8505 53.4373 48.7844 53.5192 48.718 53.5196C47.1427 53.5267 45.5673 53.5255 43.9919 53.5235C43.9549 53.5234 43.9179 53.4982 43.9089 53.4949C43.8568 53.4491 43.7977 53.4215 43.7974 53.3933C43.7917 52.9251 43.7933 52.4569 43.7933 51.9888Z" fill="#3D5CB5"/>
<path d="M40.4633 50.1968C41.5142 50.1968 42.5651 50.1963 43.616 50.1991C43.6506 50.1992 43.6851 50.233 43.7196 50.2511C43.7442 50.2829 43.7899 50.3145 43.7902 50.3465C43.7949 50.8087 43.7934 51.2709 43.7934 51.7331C43.7515 51.7331 43.6911 51.7153 43.6709 51.7362C43.5844 51.8257 43.5098 51.9266 43.4588 51.9891C42.4408 51.9891 41.4849 51.9891 40.5721 51.9891C40.5079 51.8956 40.4663 51.8631 40.466 51.8304C40.4621 51.2859 40.4633 50.7414 40.4633 50.1968Z" fill="#3F5DB6"/>
<path d="M35.0833 44.8201C35.1248 44.8201 35.1834 44.8024 35.2048 44.8231C35.2935 44.9086 35.371 45.0058 35.4327 45.0761C35.8901 45.0761 36.3051 45.0745 36.7201 45.079C36.7524 45.0794 36.7843 45.1214 36.8164 45.144C36.8364 45.1772 36.8736 45.2103 36.8739 45.2436C36.8777 45.6999 36.8764 46.1562 36.8764 46.6124C36.3322 46.6124 35.7879 46.6135 35.2437 46.6096C35.2108 46.6093 35.1782 46.5684 35.1454 46.5465C35.1247 46.5132 35.0863 46.4801 35.086 46.4466C35.0819 46.0295 35.0833 45.6122 35.0833 45.2001C35.0069 45.1552 34.9417 45.0858 34.8719 45.081C34.4598 45.0526 34.0429 45.1214 33.6342 45.0311C33.5412 45.0105 33.5173 44.9157 33.5463 44.8201C34.0587 44.4204 34.571 44.4202 35.0833 44.8201Z" fill="#3F5FB7"/>
<path d="M49.1728 50.1968C49.6851 50.1968 50.1974 50.1968 50.7098 50.1968C50.7098 50.7491 50.7098 51.3015 50.7098 51.8539C50.645 51.899 50.5812 51.9809 50.5149 51.983C50.1328 51.9955 49.75 51.9903 49.3675 51.9873C49.3308 51.9869 49.2943 51.9604 49.2578 51.9461C49.2295 51.9153 49.1767 51.8848 49.1764 51.8538C49.1714 51.3015 49.1728 50.7491 49.1728 50.1968Z" fill="#4662B8"/>
<path d="M38.6702 48.4038C39.1825 48.4038 39.6949 48.4038 40.2072 48.4038C40.2072 48.9562 40.2072 49.5085 40.2073 50.0609C40.1424 50.106 40.0787 50.1879 40.0123 50.1901C39.6302 50.2026 39.2474 50.1974 38.8649 50.1943C38.8282 50.194 38.7918 50.1674 38.7552 50.1531C38.7269 50.1224 38.6741 50.0917 38.6738 50.0607C38.6689 49.5085 38.6702 48.9562 38.6702 48.4038Z" fill="#4A64B9"/>
<path d="M36.8771 46.612C37.3271 46.612 37.7771 46.6114 38.227 46.6124C38.3268 46.6127 38.3816 46.6906 38.4141 46.8681C38.4141 47.3353 38.4141 47.8025 38.4142 48.2699C38.349 48.3148 38.2851 48.3962 38.2185 48.3983C37.8365 48.4107 37.4537 48.4056 37.0714 48.4025C37.0347 48.4022 36.9983 48.3755 36.9618 48.361C36.9336 48.3302 36.881 48.2996 36.8808 48.2686C36.8758 47.7165 36.8771 47.1642 36.8771 46.612Z" fill="#4B65B9"/>
<path d="M35.0834 44.8198C34.5711 44.8198 34.0587 44.8198 33.5464 44.8198C33.5464 44.3076 33.5464 43.7956 33.5464 43.2834C34.0045 43.2834 34.4628 43.2821 34.9209 43.2862C34.9539 43.2864 34.9866 43.3261 35.0193 43.3474C35.0407 43.3802 35.0803 43.4128 35.0806 43.4458C35.0847 43.9038 35.0834 44.3617 35.0834 44.8198Z" fill="#405EB7"/>
<defs>
<linearGradient id="paint0_linear_30_2365" x1="82.7261" y1="3.33813" x2="82.7261" y2="3.59441" gradientUnits="userSpaceOnUse">
<stop stop-color="#DF8B1D"/>
<stop offset="1" stop-color="#ECB523"/>
</linearGradient>
<linearGradient id="paint1_linear_30_2365" x1="41.7653" y1="3.48975" x2="41.7653" y2="43.3343" gradientUnits="userSpaceOnUse">
<stop stop-color="#DF8B1D"/>
<stop offset="1" stop-color="#ECB523"/>
</linearGradient>
<linearGradient id="paint2_linear_30_2365" x1="41.894" y1="41.146" x2="41.894" y2="81.6065" gradientUnits="userSpaceOnUse">
<stop stop-color="#DF8B1D"/>
<stop offset="1" stop-color="#ECB523"/>
</linearGradient>
<linearGradient id="paint3_linear_30_2365" x1="41.8885" y1="3.33301" x2="41.8885" y2="5.38877" gradientUnits="userSpaceOnUse">
<stop stop-color="#DF8B1D"/>
<stop offset="1" stop-color="#ECB523"/>
</linearGradient>
<linearGradient id="paint4_linear_30_2365" x1="80.9328" y1="6.91187" x2="80.9328" y2="8.71628" gradientUnits="userSpaceOnUse">
<stop stop-color="#DF8B1D"/>
<stop offset="1" stop-color="#ECB523"/>
</linearGradient>
<linearGradient id="paint5_linear_30_2365" x1="3.30909" y1="6.91235" x2="3.30909" y2="8.71641" gradientUnits="userSpaceOnUse">
<stop stop-color="#DF8B1D"/>
<stop offset="1" stop-color="#ECB523"/>
</linearGradient>
<linearGradient id="paint6_linear_30_2365" x1="5.75171" y1="5.13208" x2="5.75171" y2="6.92448" gradientUnits="userSpaceOnUse">
<stop stop-color="#DF8B1D"/>
<stop offset="1" stop-color="#ECB523"/>
</linearGradient>
<linearGradient id="paint7_linear_30_2365" x1="78.5033" y1="5.11963" x2="78.5033" y2="6.93402" gradientUnits="userSpaceOnUse">
<stop stop-color="#DF8B1D"/>
<stop offset="1" stop-color="#ECB523"/>
</linearGradient>
</defs>
</svg>
